<svg width="166" height="161" viewBox="0 0 166 161" fill="none" xmlns="http://www.w3.org/2000/svg">
<circle cx="85.2315" cy="81.2198" r="62.9229" fill="url(#paint0_linear_2402_24041)"/>
<circle cx="159.282" cy="24.5445" r="6.69392" fill="#CBBCFF"/>
<circle cx="17.8764" cy="8.92523" r="8.92523" fill="#CBBCFF"/>
<circle cx="8.9509" cy="118.706" r="4.46262" fill="#CBBCFF"/>
<circle cx="147.737" cy="143.25" r="2.23131" fill="#CBBCFF"/>
<path fill-rule="evenodd" clip-rule="evenodd" d="M76.0168 59.353H95.3622C102.926 59.353 107.991 64.6635 107.991 72.5624V90.7944C107.991 98.6687 102.926 103.979 95.3622 103.979H76.0168C68.4526 103.979 63.3652 98.6687 63.3652 90.7944V72.5624C63.3652 64.6635 68.4526 59.353 76.0168 59.353ZM84.4065 88.3376L95.0052 77.7389C95.7639 76.9802 95.7639 75.753 95.0052 74.9721C94.2466 74.2134 92.997 74.2134 92.2384 74.9721L83.0231 84.1874L79.1183 80.2826C78.3596 79.5239 77.1101 79.5239 76.3515 80.2826C75.5928 81.0412 75.5928 82.2684 76.3515 83.0494L81.662 88.3376C82.0413 88.7169 82.5322 88.8954 83.0231 88.8954C83.5363 88.8954 84.0272 88.7169 84.4065 88.3376Z" fill="white"/>
<circle cx="95.079" cy="4.01646" r="2.23131" fill="#CBBCFF"/>
<circle cx="55.8074" cy="157.53" r="3.12383" fill="#CBBCFF"/>
<circle cx="108.914" cy="152.622" r="0.892523" fill="#CBBCFF"/>
<circle cx="152.2" cy="98.6239" r="2.23131" fill="#CBBCFF"/>
<circle cx="0.917914" cy="66.9394" r="0.892523" fill="#CBBCFF"/>
<defs>
<linearGradient id="paint0_linear_2402_24041" x1="148.154" y1="144.143" x2="-1.59081" y2="100.725" gradientUnits="userSpaceOnUse">
<stop stop-color="#9D81FF"/>
<stop offset="1" stop-color="#CBBCFF"/>
</linearGradient>
</defs>
</svg>
