<svg width="92" height="32" viewBox="0 0 92 32" fill="none" xmlns="http://www.w3.org/2000/svg">
<rect width="92" height="32" rx="6" fill="#2A60F9" fill-opacity="0.1"/>
<path d="M13.0568 20V11.2727H18.3239V12.2102H14.1136V15.1591H18.0511V16.0966H14.1136V19.0625H18.392V20H13.0568ZM22.5639 20.1364C22.0185 20.1364 21.5369 19.9986 21.1193 19.723C20.7017 19.4446 20.375 19.0526 20.1392 18.5469C19.9034 18.0384 19.7855 17.4375 19.7855 16.7443C19.7855 16.0568 19.9034 15.4602 20.1392 14.9545C20.375 14.4489 20.7031 14.0582 21.1236 13.7827C21.544 13.5071 22.0298 13.3693 22.581 13.3693C23.0071 13.3693 23.3438 13.4403 23.5909 13.5824C23.8409 13.7216 24.0313 13.8807 24.1619 14.0597C24.2955 14.2358 24.3991 14.3807 24.473 14.4943H24.5582V11.2727H25.5639V20H24.5923V18.9943H24.473C24.3991 19.1136 24.294 19.2642 24.1577 19.446C24.0213 19.625 23.8267 19.7855 23.5739 19.9276C23.321 20.0668 22.9844 20.1364 22.5639 20.1364ZM22.7003 19.233C23.1037 19.233 23.4446 19.1278 23.723 18.9176C24.0014 18.7045 24.2131 18.4105 24.358 18.0355C24.5028 17.6577 24.5753 17.2216 24.5753 16.7273C24.5753 16.2386 24.5043 15.8111 24.3622 15.4446C24.2202 15.0753 24.0099 14.7884 23.7315 14.5838C23.4531 14.3764 23.1094 14.2727 22.7003 14.2727C22.2741 14.2727 21.919 14.3821 21.6349 14.6009C21.3537 14.8168 21.142 15.1108 21 15.483C20.8608 15.8523 20.7912 16.267 20.7912 16.7273C20.7912 17.1932 20.8622 17.6165 21.0043 17.9972C21.1491 18.375 21.3622 18.6761 21.6435 18.9006C21.9276 19.1222 22.2798 19.233 22.7003 19.233ZM27.5455 20V13.4545H28.5511V20H27.5455ZM28.0568 12.3636C27.8608 12.3636 27.6918 12.2969 27.5497 12.1634C27.4105 12.0298 27.3409 11.8693 27.3409 11.6818C27.3409 11.4943 27.4105 11.3338 27.5497 11.2003C27.6918 11.0668 27.8608 11 28.0568 11C28.2528 11 28.4205 11.0668 28.5597 11.2003C28.7017 11.3338 28.7727 11.4943 28.7727 11.6818C28.7727 11.8693 28.7017 12.0298 28.5597 12.1634C28.4205 12.2969 28.2528 12.3636 28.0568 12.3636ZM33.2397 13.4545V14.3068H29.8477V13.4545H33.2397ZM30.8363 11.8864H31.842V18.125C31.842 18.4091 31.8832 18.6222 31.9656 18.7642C32.0508 18.9034 32.1587 18.9972 32.2894 19.0455C32.4229 19.0909 32.5636 19.1136 32.7113 19.1136C32.8221 19.1136 32.913 19.108 32.984 19.0966C33.055 19.0824 33.1119 19.071 33.1545 19.0625L33.359 19.9659C33.2908 19.9915 33.1957 20.017 33.0735 20.0426C32.9513 20.071 32.7965 20.0852 32.609 20.0852C32.3249 20.0852 32.0465 20.0241 31.7738 19.902C31.5039 19.7798 31.2795 19.5938 31.1005 19.3438C30.9244 19.0938 30.8363 18.7784 30.8363 18.3977V11.8864ZM37.4265 20.1364C36.7958 20.1364 36.2518 19.9972 35.7944 19.7188C35.3398 19.4375 34.989 19.0455 34.7418 18.5426C34.4975 18.0369 34.3754 17.4489 34.3754 16.7784C34.3754 16.108 34.4975 15.517 34.7418 15.0057C34.989 14.4915 35.3327 14.0909 35.7731 13.804C36.2163 13.5142 36.7333 13.3693 37.3242 13.3693C37.6651 13.3693 38.0018 13.4261 38.3342 13.5398C38.6665 13.6534 38.9691 13.8381 39.2418 14.0938C39.5146 14.3466 39.7319 14.6818 39.8938 15.0994C40.0558 15.517 40.1367 16.0312 40.1367 16.642V17.0682H35.0913V16.1989H39.114C39.114 15.8295 39.0401 15.5 38.8924 15.2102C38.7475 14.9205 38.5401 14.6918 38.2702 14.5241C38.0032 14.3565 37.6879 14.2727 37.3242 14.2727C36.9237 14.2727 36.5771 14.3722 36.2844 14.571C35.9947 14.767 35.7717 15.0227 35.6154 15.3381C35.4592 15.6534 35.381 15.9915 35.381 16.3523V16.9318C35.381 17.4261 35.4663 17.8452 35.6367 18.1889C35.81 18.5298 36.0501 18.7898 36.3569 18.9688C36.6637 19.1449 37.0202 19.233 37.4265 19.233C37.6907 19.233 37.9293 19.196 38.1424 19.1222C38.3583 19.0455 38.5444 18.9318 38.7006 18.7812C38.8569 18.6278 38.9776 18.4375 39.0629 18.2102L40.0344 18.483C39.9322 18.8125 39.7603 19.1023 39.5188 19.3523C39.2773 19.5994 38.979 19.7926 38.6239 19.9318C38.2688 20.0682 37.8697 20.1364 37.4265 20.1364ZM45.0415 22.4545V13.4545H46.0131V14.4943H46.1325C46.2063 14.3807 46.3086 14.2358 46.4393 14.0597C46.5728 13.8807 46.7631 13.7216 47.0103 13.5824C47.2603 13.4403 47.5984 13.3693 48.0245 13.3693C48.5756 13.3693 49.0614 13.5071 49.4819 13.7827C49.9023 14.0582 50.2305 14.4489 50.4663 14.9545C50.7021 15.4602 50.82 16.0568 50.82 16.7443C50.82 17.4375 50.7021 18.0384 50.4663 18.5469C50.2305 19.0526 49.9038 19.4446 49.4862 19.723C49.0685 19.9986 48.587 20.1364 48.0415 20.1364C47.6211 20.1364 47.2844 20.0668 47.0316 19.9276C46.7788 19.7855 46.5842 19.625 46.4478 19.446C46.3114 19.2642 46.2063 19.1136 46.1325 18.9943H46.0472V22.4545H45.0415ZM46.0302 16.7273C46.0302 17.2216 46.1026 17.6577 46.2475 18.0355C46.3924 18.4105 46.604 18.7045 46.8825 18.9176C47.1609 19.1278 47.5018 19.233 47.9052 19.233C48.3256 19.233 48.6765 19.1222 48.9577 18.9006C49.2418 18.6761 49.4549 18.375 49.5969 17.9972C49.7418 17.6165 49.8143 17.1932 49.8143 16.7273C49.8143 16.267 49.7433 15.8523 49.6012 15.483C49.462 15.1108 49.2504 14.8168 48.9663 14.6009C48.685 14.3821 48.3313 14.2727 47.9052 14.2727C47.4961 14.2727 47.1523 14.3764 46.8739 14.5838C46.5955 14.7884 46.3853 15.0753 46.2433 15.4446C46.1012 15.8111 46.0302 16.2386 46.0302 16.7273ZM52.354 20V13.4545H53.3256V14.4432H53.3938C53.5131 14.1193 53.729 13.8565 54.0415 13.6548C54.354 13.4531 54.7063 13.3523 55.0984 13.3523C55.1722 13.3523 55.2646 13.3537 55.3754 13.3565C55.4862 13.3594 55.57 13.3636 55.6268 13.3693V14.392C55.5927 14.3835 55.5146 14.3707 55.3924 14.3537C55.2731 14.3338 55.1467 14.3239 55.0131 14.3239C54.695 14.3239 54.4109 14.3906 54.1609 14.5241C53.9137 14.6548 53.7177 14.8366 53.5728 15.0696C53.4308 15.2997 53.3597 15.5625 53.3597 15.858V20H52.354ZM59.2788 20.1364C58.6879 20.1364 58.1694 19.9957 57.7234 19.7145C57.2802 19.4332 56.9336 19.0398 56.6836 18.5341C56.4364 18.0284 56.3129 17.4375 56.3129 16.7614C56.3129 16.0795 56.4364 15.4844 56.6836 14.9759C56.9336 14.4673 57.2802 14.0724 57.7234 13.7912C58.1694 13.5099 58.6879 13.3693 59.2788 13.3693C59.8697 13.3693 60.3867 13.5099 60.8299 13.7912C61.2759 14.0724 61.6225 14.4673 61.8697 14.9759C62.1197 15.4844 62.2447 16.0795 62.2447 16.7614C62.2447 17.4375 62.1197 18.0284 61.8697 18.5341C61.6225 19.0398 61.2759 19.4332 60.8299 19.7145C60.3867 19.9957 59.8697 20.1364 59.2788 20.1364ZM59.2788 19.233C59.7276 19.233 60.0969 19.1179 60.3867 18.8878C60.6765 18.6577 60.891 18.3551 61.0302 17.9801C61.1694 17.6051 61.239 17.1989 61.239 16.7614C61.239 16.3239 61.1694 15.9162 61.0302 15.5384C60.891 15.1605 60.6765 14.8551 60.3867 14.6222C60.0969 14.3892 59.7276 14.2727 59.2788 14.2727C58.8299 14.2727 58.4606 14.3892 58.1708 14.6222C57.881 14.8551 57.6665 15.1605 57.5273 15.5384C57.3881 15.9162 57.3185 16.3239 57.3185 16.7614C57.3185 17.1989 57.3881 17.6051 57.5273 17.9801C57.6665 18.3551 57.881 18.6577 58.1708 18.8878C58.4606 19.1179 58.8299 19.233 59.2788 19.233ZM66.6946 13.4545V14.3068H63.1662V13.4545H66.6946ZM64.223 20V12.5511C64.223 12.1761 64.3111 11.8636 64.4872 11.6136C64.6634 11.3636 64.892 11.1761 65.1733 11.0511C65.4545 10.9261 65.7514 10.8636 66.0639 10.8636C66.3111 10.8636 66.5128 10.8835 66.669 10.9233C66.8253 10.9631 66.9418 11 67.0185 11.0341L66.7287 11.9034C66.6776 11.8864 66.6065 11.8651 66.5156 11.8395C66.4276 11.8139 66.3111 11.8011 66.1662 11.8011C65.8338 11.8011 65.5938 11.8849 65.446 12.0526C65.3011 12.2202 65.2287 12.4659 65.2287 12.7898V20H64.223ZM68.104 20V13.4545H69.1097V20H68.104ZM68.6154 12.3636C68.4194 12.3636 68.2504 12.2969 68.1083 12.1634C67.9691 12.0298 67.8995 11.8693 67.8995 11.6818C67.8995 11.4943 67.9691 11.3338 68.1083 11.2003C68.2504 11.0668 68.4194 11 68.6154 11C68.8114 11 68.979 11.0668 69.1183 11.2003C69.2603 11.3338 69.3313 11.4943 69.3313 11.6818C69.3313 11.8693 69.2603 12.0298 69.1183 12.1634C68.979 12.2969 68.8114 12.3636 68.6154 12.3636ZM71.9574 11.2727V20H70.9517V11.2727H71.9574ZM76.5437 20.1364C75.913 20.1364 75.369 19.9972 74.9116 19.7188C74.457 19.4375 74.1062 19.0455 73.859 18.5426C73.6147 18.0369 73.4925 17.4489 73.4925 16.7784C73.4925 16.108 73.6147 15.517 73.859 15.0057C74.1062 14.4915 74.4499 14.0909 74.8903 13.804C75.3335 13.5142 75.8505 13.3693 76.4414 13.3693C76.7823 13.3693 77.119 13.4261 77.4513 13.5398C77.7837 13.6534 78.0863 13.8381 78.359 14.0938C78.6317 14.3466 78.8491 14.6818 79.011 15.0994C79.1729 15.517 79.2539 16.0312 79.2539 16.642V17.0682H74.2085V16.1989H78.2312C78.2312 15.8295 78.1573 15.5 78.0096 15.2102C77.8647 14.9205 77.6573 14.6918 77.3874 14.5241C77.1204 14.3565 76.805 14.2727 76.4414 14.2727C76.0408 14.2727 75.6942 14.3722 75.4016 14.571C75.1119 14.767 74.8888 15.0227 74.7326 15.3381C74.5763 15.6534 74.4982 15.9915 74.4982 16.3523V16.9318C74.4982 17.4261 74.5835 17.8452 74.7539 18.1889C74.9272 18.5298 75.1673 18.7898 75.4741 18.9688C75.7809 19.1449 76.1374 19.233 76.5437 19.233C76.8079 19.233 77.0465 19.196 77.2596 19.1222C77.4755 19.0455 77.6616 18.9318 77.8178 18.7812C77.9741 18.6278 78.0948 18.4375 78.18 18.2102L79.1516 18.483C79.0494 18.8125 78.8775 19.1023 78.636 19.3523C78.3945 19.5994 78.0962 19.7926 77.7411 19.9318C77.386 20.0682 76.9869 20.1364 76.5437 20.1364Z" fill="#2A60F9"/>
</svg>
