<svg width="28" height="28" viewBox="0 0 28 28" fill="none" xmlns="http://www.w3.org/2000/svg">
<path fill-rule="evenodd" clip-rule="evenodd" d="M19.7628 3.5C21.3273 3.5 22.8323 4.11833 23.9395 5.22783C25.0478 6.335 25.6673 7.82833 25.6673 9.39167V18.6083C25.6673 21.8633 23.019 24.5 19.7628 24.5H8.23732C4.98115 24.5 2.33398 21.8633 2.33398 18.6083V9.39167C2.33398 6.13667 4.96948 3.5 8.23732 3.5H19.7628ZM21.619 11.13L21.7123 11.0367C21.9912 10.6983 21.9912 10.2083 21.6995 9.87C21.5373 9.69617 21.3145 9.59 21.0823 9.56667C20.8373 9.55383 20.604 9.63667 20.4278 9.8L15.1673 14C14.4907 14.5612 13.5212 14.5612 12.834 14L7.58398 9.8C7.22115 9.53167 6.71948 9.56667 6.41732 9.88167C6.10232 10.1967 6.06732 10.6983 6.33448 11.0483L6.48732 11.2L11.7957 15.3417C12.449 15.855 13.2412 16.135 14.0707 16.135C14.8978 16.135 15.704 15.855 16.3562 15.3417L21.619 11.13Z" fill="#9E9E9E"/>
</svg>
