<svg width="276" height="74" viewBox="0 0 276 74" fill="none" xmlns="http://www.w3.org/2000/svg">
<rect width="276" height="74" rx="25" fill="#7B63CF"/>
<rect x="10" y="10" width="54" height="54" rx="20" fill="#9D81FF"/>
<path d="M46.3805 26.9531C46.5208 26.9591 46.6143 27.0421 46.6903 27.1727C46.9066 27.5821 47.1346 27.9916 47.3509 28.401C47.4093 28.5137 47.4853 28.5909 47.5964 28.6443C47.9822 28.852 48.3622 29.0656 48.7422 29.2792C48.8825 29.3564 48.9994 29.4513 48.9994 29.6293C49.0052 29.8133 48.8825 29.9142 48.7363 29.9913C48.3563 30.199 47.9764 30.4185 47.5906 30.6262C47.4736 30.6915 47.3918 30.7746 47.3275 30.8932C47.1229 31.279 46.9125 31.6587 46.7137 32.0444C46.6377 32.1928 46.5383 32.3174 46.363 32.3174C46.1759 32.3174 46.0824 32.1928 46.0005 32.0385C45.7959 31.6469 45.5855 31.2612 45.3809 30.8754C45.3283 30.7686 45.2523 30.6915 45.1471 30.6381C44.7495 30.4185 44.3579 30.199 43.9604 29.9854C43.8201 29.9082 43.7207 29.8133 43.7207 29.6412C43.7207 29.4691 43.8201 29.3742 43.9604 29.297C44.3579 29.0834 44.7495 28.8579 45.1471 28.6443C45.2523 28.585 45.3224 28.5137 45.3809 28.4069C45.5972 28.0034 45.8193 27.5999 46.0356 27.1905C46.0999 27.0421 46.2051 26.9531 46.3805 26.9531Z" fill="#CBBCFF"/>
<path d="M27.7299 30.3221C27.7299 30.3993 27.689 30.4527 27.6247 30.4883C27.4143 30.601 27.2097 30.7197 26.9992 30.8324C26.9408 30.8621 26.9057 30.9037 26.8765 30.963C26.7712 31.1647 26.6602 31.3665 26.555 31.5623C26.514 31.6395 26.4673 31.7047 26.3737 31.7047C26.2802 31.7047 26.2334 31.6454 26.1925 31.5683C26.0873 31.3665 25.9762 31.1647 25.871 30.9689C25.8418 30.9096 25.795 30.8681 25.7366 30.8384C25.5378 30.7316 25.3391 30.6188 25.1461 30.512C25.0585 30.4645 25 30.4171 25 30.3162C25 30.2213 25.0585 30.1738 25.1345 30.1382C25.3332 30.0314 25.532 29.9186 25.7366 29.8059C25.7892 29.7762 25.8301 29.7347 25.8652 29.6753C25.9704 29.4736 26.0815 29.2718 26.1925 29.0701C26.2334 28.9929 26.2802 28.9336 26.3679 28.9336C26.4614 28.9336 26.514 28.9929 26.5491 29.0701C26.6543 29.2718 26.7654 29.4736 26.8765 29.6753C26.9057 29.7287 26.9408 29.7703 26.9992 29.7999C27.2097 29.9127 27.4143 30.0314 27.6247 30.1441C27.689 30.1916 27.7299 30.245 27.7299 30.3221Z" fill="#CBBCFF"/>
<path d="M35.3981 23.798C35.4039 23.9048 35.3279 23.9641 35.2344 24.0116C34.9889 24.1481 34.7375 24.2905 34.492 24.421C34.3926 24.4744 34.3283 24.5397 34.2757 24.6406C34.1471 24.8958 34.0068 25.145 33.8782 25.4001C33.8256 25.4951 33.7613 25.5604 33.6443 25.5604C33.5274 25.5604 33.469 25.4832 33.4164 25.3942C33.2878 25.145 33.1475 24.8958 33.0189 24.6406C32.9662 24.5397 32.8961 24.4744 32.8026 24.421C32.5512 24.2846 32.3057 24.1481 32.0543 24.0116C31.9608 23.9582 31.8965 23.8989 31.8965 23.7802C31.8965 23.6615 31.9666 23.6022 32.0602 23.5488C32.3115 23.4123 32.5629 23.2699 32.8143 23.1334C32.9019 23.0859 32.9604 23.0206 33.0072 22.9316C33.1416 22.6765 33.2819 22.4213 33.4164 22.1661C33.4748 22.0712 33.5391 22 33.6502 22C33.7613 22 33.8256 22.0712 33.8782 22.1661C34.0185 22.4272 34.1588 22.6883 34.2991 22.9494C34.34 23.0266 34.3984 23.08 34.4744 23.1274C34.7375 23.2699 34.9947 23.4182 35.2578 23.5606C35.3454 23.6081 35.4039 23.6734 35.3981 23.798Z" fill="#CBBCFF"/>
<path d="M35.9725 43.7212H36.3862C38.6624 43.7212 40.5935 42.2171 41.2732 40.1316C41.3717 39.828 41.1459 39.515 40.8331 39.515H39.5586C39.1529 39.515 38.8251 39.1811 38.8251 38.7689C38.8251 38.3555 39.1529 38.0203 39.5586 38.0203H40.7941C41.2032 38.0203 41.5345 37.6829 41.5345 37.266C41.5345 36.8491 41.2032 36.5116 40.7941 36.5116H39.5586C39.1529 36.5116 38.8251 36.1765 38.8251 35.7643C38.8251 35.3509 39.1529 35.0158 39.5586 35.0158H40.7941C41.2032 35.0158 41.5345 34.6783 41.5345 34.2614C41.5345 33.8446 41.2032 33.5071 40.7941 33.5071H39.5586C39.1529 33.5071 38.8251 33.172 38.8251 32.7586C38.8251 32.3464 39.1529 32.0112 39.5586 32.0112H40.8984C41.2055 32.0112 41.4256 31.7123 41.3431 31.4099C40.7345 29.204 38.746 27.5879 36.3862 27.5879H35.9725C33.129 27.5879 30.8242 29.935 30.8242 32.8333V38.4758C30.8242 41.3729 33.129 43.7212 35.9725 43.7212Z" fill="white"/>
<path d="M45.0898 37.1406C44.4571 37.1406 43.9437 37.6626 43.9437 38.3084C43.9437 42.6698 40.4607 46.2185 36.18 46.2185C31.8982 46.2185 28.4152 42.6698 28.4152 38.3084C28.4152 37.6626 27.9018 37.1406 27.2691 37.1406C26.6365 37.1406 26.123 37.6626 26.123 38.3084C26.123 43.5631 30.0266 47.9012 35.0339 48.4839V50.8334C35.0339 51.478 35.5462 52.0011 36.18 52.0011C36.8127 52.0011 37.3261 51.478 37.3261 50.8334V48.4839C42.3323 47.9012 46.2359 43.5631 46.2359 38.3084C46.2359 37.6626 45.7224 37.1406 45.0898 37.1406Z" fill="#CBBCFF"/>
<path d="M80.2642 32V17.4545H89.8949V19.9901H83.3395V23.456H89.2557V25.9915H83.3395V32H80.2642ZM98.2188 27.3551V21.0909H101.244V32H98.3395V30.0185H98.2259C97.9796 30.6577 97.5701 31.1714 96.9972 31.5597C96.429 31.9479 95.7353 32.142 94.9162 32.142C94.187 32.142 93.5455 31.9763 92.9915 31.6449C92.4375 31.3134 92.0043 30.8423 91.6918 30.2315C91.384 29.6207 91.2277 28.8892 91.223 28.0369V21.0909H94.2486V27.4972C94.2533 28.1411 94.4261 28.6501 94.767 29.0241C95.108 29.3982 95.5649 29.5852 96.1378 29.5852C96.5024 29.5852 96.8433 29.5024 97.1605 29.3366C97.4777 29.1662 97.7334 28.9152 97.9276 28.5838C98.1264 28.2524 98.2235 27.8428 98.2188 27.3551ZM106.69 17.4545V32H103.664V17.4545H106.69ZM112.139 17.4545V32H109.114V17.4545H112.139ZM127.139 21.6378C127.082 21.0649 126.839 20.6198 126.408 20.3026C125.977 19.9853 125.392 19.8267 124.653 19.8267C124.152 19.8267 123.728 19.8977 123.382 20.0398C123.036 20.1771 122.771 20.3688 122.587 20.6151C122.407 20.8613 122.317 21.1406 122.317 21.4531C122.307 21.7135 122.362 21.9408 122.48 22.1349C122.603 22.3291 122.771 22.4972 122.984 22.6392C123.197 22.7765 123.444 22.8973 123.723 23.0014C124.002 23.1009 124.301 23.1861 124.618 23.2571L125.925 23.5696C126.559 23.7116 127.142 23.901 127.672 24.1378C128.202 24.3745 128.661 24.6657 129.05 25.0114C129.438 25.357 129.739 25.7642 129.952 26.233C130.17 26.7017 130.281 27.2391 130.286 27.8452C130.281 28.7353 130.054 29.5071 129.604 30.1605C129.159 30.8092 128.515 31.3134 127.672 31.6733C126.834 32.0284 125.823 32.206 124.639 32.206C123.465 32.206 122.442 32.026 121.571 31.6662C120.705 31.3063 120.027 30.7737 119.54 30.0682C119.057 29.358 118.804 28.4796 118.78 27.4332H121.756C121.789 27.9209 121.929 28.3281 122.175 28.6548C122.426 28.9768 122.759 29.2206 123.176 29.3864C123.598 29.5473 124.073 29.6278 124.604 29.6278C125.125 29.6278 125.577 29.5521 125.96 29.4006C126.348 29.2491 126.649 29.0384 126.862 28.7685C127.075 28.4986 127.182 28.1884 127.182 27.8381C127.182 27.5114 127.085 27.2367 126.891 27.0142C126.701 26.7917 126.422 26.6023 126.053 26.446C125.688 26.2898 125.241 26.1477 124.71 26.0199L123.126 25.6222C121.9 25.3239 120.932 24.8575 120.222 24.223C119.511 23.5885 119.159 22.7339 119.163 21.6591C119.159 20.7784 119.393 20.009 119.866 19.3509C120.345 18.6927 121 18.179 121.834 17.8097C122.667 17.4403 123.614 17.2557 124.675 17.2557C125.754 17.2557 126.696 17.4403 127.501 17.8097C128.311 18.179 128.941 18.6927 129.391 19.3509C129.84 20.009 130.072 20.7713 130.087 21.6378H127.139ZM132.297 36.0909V21.0909H135.28V22.9233H135.415C135.548 22.6297 135.739 22.3314 135.99 22.0284C136.246 21.7206 136.578 21.465 136.985 21.2614C137.397 21.053 137.908 20.9489 138.519 20.9489C139.314 20.9489 140.048 21.1572 140.721 21.5739C141.393 21.9858 141.93 22.6084 142.333 23.4418C142.735 24.2704 142.936 25.3097 142.936 26.5597C142.936 27.7765 142.74 28.804 142.347 29.642C141.959 30.4754 141.428 31.1075 140.756 31.5384C140.088 31.9645 139.34 32.1776 138.512 32.1776C137.925 32.1776 137.425 32.0805 137.013 31.8864C136.606 31.6922 136.272 31.4484 136.012 31.1548C135.751 30.8565 135.552 30.5559 135.415 30.2528H135.323V36.0909H132.297ZM135.259 26.5455C135.259 27.1941 135.349 27.7599 135.529 28.2429C135.709 28.7259 135.969 29.1023 136.31 29.3722C136.651 29.6373 137.065 29.7699 137.553 29.7699C138.045 29.7699 138.462 29.6349 138.803 29.3651C139.144 29.0904 139.402 28.7116 139.577 28.2287C139.757 27.741 139.847 27.1799 139.847 26.5455C139.847 25.9157 139.759 25.3617 139.584 24.8835C139.409 24.4053 139.151 24.0312 138.81 23.7614C138.469 23.4915 138.05 23.3565 137.553 23.3565C137.06 23.3565 136.644 23.4867 136.303 23.7472C135.967 24.0076 135.709 24.3769 135.529 24.8551C135.349 25.3333 135.259 25.8968 135.259 26.5455ZM149.925 32.2131C148.803 32.2131 147.837 31.9858 147.027 31.5312C146.222 31.072 145.602 30.4233 145.167 29.5852C144.731 28.7424 144.513 27.7457 144.513 26.5952C144.513 25.473 144.731 24.4882 145.167 23.6406C145.602 22.7931 146.215 22.1326 147.006 21.6591C147.801 21.1856 148.734 20.9489 149.804 20.9489C150.524 20.9489 151.194 21.0649 151.814 21.2969C152.439 21.5241 152.984 21.8674 153.448 22.3267C153.917 22.786 154.281 23.3636 154.542 24.0597C154.802 24.7509 154.932 25.5606 154.932 26.4886V27.3196H145.721V25.4446H152.084C152.084 25.009 151.989 24.6231 151.8 24.2869C151.611 23.9508 151.348 23.688 151.012 23.4986C150.68 23.3045 150.294 23.2074 149.854 23.2074C149.395 23.2074 148.988 23.3139 148.632 23.527C148.282 23.7353 148.007 24.017 147.809 24.3722C147.61 24.7225 147.508 25.1132 147.503 25.544V27.3267C147.503 27.8665 147.603 28.3329 147.801 28.7259C148.005 29.1188 148.292 29.4219 148.661 29.6349C149.03 29.848 149.468 29.9545 149.975 29.9545C150.311 29.9545 150.619 29.9072 150.898 29.8125C151.177 29.7178 151.417 29.5758 151.615 29.3864C151.814 29.197 151.966 28.965 152.07 28.6903L154.868 28.875C154.726 29.5473 154.435 30.1345 153.995 30.6364C153.559 31.1335 152.996 31.5218 152.304 31.8011C151.618 32.0758 150.825 32.2131 149.925 32.2131ZM160.017 32.206C159.321 32.206 158.701 32.0852 158.157 31.8438C157.612 31.5975 157.181 31.2353 156.864 30.7571C156.551 30.2741 156.395 29.6728 156.395 28.9531C156.395 28.3471 156.507 27.8381 156.729 27.4261C156.952 27.0142 157.255 26.6828 157.638 26.4318C158.022 26.1809 158.457 25.9915 158.945 25.8636C159.437 25.7358 159.953 25.6458 160.493 25.5938C161.128 25.5275 161.639 25.4659 162.027 25.4091C162.416 25.3475 162.697 25.2576 162.873 25.1392C163.048 25.0208 163.135 24.8456 163.135 24.6136V24.571C163.135 24.1212 162.993 23.7732 162.709 23.527C162.43 23.2808 162.032 23.1577 161.516 23.1577C160.971 23.1577 160.538 23.2784 160.216 23.5199C159.894 23.7566 159.681 24.0549 159.577 24.4148L156.779 24.1875C156.921 23.5246 157.2 22.9517 157.617 22.4688C158.033 21.9811 158.571 21.607 159.229 21.3466C159.892 21.0814 160.659 20.9489 161.53 20.9489C162.136 20.9489 162.716 21.0199 163.27 21.1619C163.829 21.304 164.324 21.5241 164.755 21.8224C165.19 22.1207 165.533 22.5043 165.784 22.973C166.035 23.437 166.161 23.9934 166.161 24.642V32H163.292V30.4872H163.206C163.031 30.8281 162.797 31.1288 162.503 31.3892C162.21 31.6449 161.857 31.8461 161.445 31.9929C161.033 32.1349 160.557 32.206 160.017 32.206ZM160.884 30.1179C161.329 30.1179 161.722 30.0303 162.063 29.8551C162.404 29.6752 162.671 29.4337 162.865 29.1307C163.06 28.8277 163.157 28.4844 163.157 28.1009V26.9432C163.062 27.0047 162.932 27.0616 162.766 27.1136C162.605 27.161 162.423 27.206 162.219 27.2486C162.016 27.2865 161.812 27.322 161.608 27.3551C161.405 27.3835 161.22 27.4096 161.054 27.4332C160.699 27.4853 160.389 27.5682 160.124 27.6818C159.859 27.7955 159.653 27.9493 159.506 28.1435C159.359 28.3329 159.286 28.5696 159.286 28.8537C159.286 29.2656 159.435 29.5805 159.733 29.7983C160.036 30.0114 160.42 30.1179 160.884 30.1179ZM171.25 28.8608L171.257 25.2315H171.697L175.191 21.0909H178.664L173.97 26.5739H173.252L171.25 28.8608ZM168.508 32V17.4545H171.534V32H168.508ZM175.326 32L172.116 27.2486L174.133 25.1108L178.87 32H175.326ZM180.149 32V21.0909H183.174V32H180.149ZM181.669 19.6847C181.219 19.6847 180.833 19.5355 180.511 19.2372C180.194 18.9342 180.035 18.572 180.035 18.1506C180.035 17.7339 180.194 17.3764 180.511 17.0781C180.833 16.7751 181.219 16.6236 181.669 16.6236C182.118 16.6236 182.502 16.7751 182.819 17.0781C183.141 17.3764 183.302 17.7339 183.302 18.1506C183.302 18.572 183.141 18.9342 182.819 19.2372C182.502 19.5355 182.118 19.6847 181.669 19.6847ZM188.624 25.6932V32H185.598V21.0909H188.482V23.0156H188.609C188.851 22.3812 189.256 21.8793 189.824 21.5099C190.392 21.1359 191.081 20.9489 191.891 20.9489C192.648 20.9489 193.309 21.1146 193.872 21.446C194.436 21.7775 194.874 22.2509 195.186 22.8665C195.499 23.4773 195.655 24.2064 195.655 25.054V32H192.629V25.5938C192.634 24.9261 192.464 24.4053 192.118 24.0312C191.772 23.6525 191.296 23.4631 190.69 23.4631C190.283 23.4631 189.923 23.5507 189.611 23.7259C189.303 23.901 189.062 24.1567 188.886 24.4929C188.716 24.8243 188.628 25.2244 188.624 25.6932ZM202.954 36.3182C201.974 36.3182 201.134 36.1832 200.433 35.9134C199.737 35.6482 199.183 35.286 198.771 34.8267C198.359 34.3674 198.092 33.8513 197.968 33.2784L200.767 32.902C200.852 33.1198 200.987 33.3234 201.172 33.5128C201.356 33.7022 201.6 33.8537 201.903 33.9673C202.211 34.0857 202.585 34.1449 203.025 34.1449C203.683 34.1449 204.225 33.9839 204.652 33.6619C205.083 33.3447 205.298 32.812 205.298 32.0639V30.0682H205.17C205.038 30.3712 204.839 30.6577 204.574 30.9276C204.308 31.1974 203.967 31.4176 203.551 31.5881C203.134 31.7585 202.637 31.8438 202.059 31.8438C201.24 31.8438 200.494 31.6544 199.822 31.2756C199.154 30.892 198.622 30.3073 198.224 29.5213C197.831 28.7306 197.635 27.7315 197.635 26.5241C197.635 25.2884 197.836 24.2562 198.238 23.4276C198.641 22.599 199.176 21.9787 199.843 21.5668C200.516 21.1548 201.252 20.9489 202.052 20.9489C202.663 20.9489 203.174 21.053 203.586 21.2614C203.998 21.465 204.33 21.7206 204.581 22.0284C204.836 22.3314 205.033 22.6297 205.17 22.9233H205.284V21.0909H208.288V32.1065C208.288 33.0346 208.061 33.8111 207.606 34.4361C207.152 35.0611 206.522 35.5298 205.717 35.8423C204.917 36.1596 203.996 36.3182 202.954 36.3182ZM203.018 29.571C203.506 29.571 203.918 29.4503 204.254 29.2088C204.595 28.9626 204.855 28.6122 205.035 28.1577C205.22 27.6984 205.312 27.1491 205.312 26.5099C205.312 25.8707 205.222 25.3168 205.042 24.848C204.862 24.3745 204.602 24.0076 204.261 23.7472C203.92 23.4867 203.506 23.3565 203.018 23.3565C202.521 23.3565 202.102 23.4915 201.761 23.7614C201.42 24.0265 201.162 24.3958 200.987 24.8693C200.812 25.3428 200.724 25.8897 200.724 26.5099C200.724 27.1397 200.812 27.6842 200.987 28.1435C201.167 28.598 201.425 28.9508 201.761 29.2017C202.102 29.4479 202.521 29.571 203.018 29.571ZM79.7102 43.9901V41.4545H91.6562V43.9901H87.2031V56H84.1634V43.9901H79.7102ZM96.9563 56.2131C95.8342 56.2131 94.8683 55.9858 94.0586 55.5312C93.2537 55.072 92.6334 54.4233 92.1978 53.5852C91.7622 52.7424 91.5444 51.7457 91.5444 50.5952C91.5444 49.473 91.7622 48.4882 92.1978 47.6406C92.6334 46.7931 93.2466 46.1326 94.0373 45.6591C94.8327 45.1856 95.7655 44.9489 96.8356 44.9489C97.5553 44.9489 98.2253 45.0649 98.8455 45.2969C99.4705 45.5241 100.015 45.8674 100.479 46.3267C100.948 46.786 101.312 47.3636 101.573 48.0597C101.833 48.7509 101.963 49.5606 101.963 50.4886V51.3196H92.7518V49.4446H99.1154C99.1154 49.009 99.0207 48.6231 98.8313 48.2869C98.6419 47.9508 98.3791 47.688 98.043 47.4986C97.7115 47.3045 97.3256 47.2074 96.8853 47.2074C96.426 47.2074 96.0188 47.3139 95.6637 47.527C95.3133 47.7353 95.0387 48.017 94.8398 48.3722C94.641 48.7225 94.5392 49.1132 94.5344 49.544V51.3267C94.5344 51.8665 94.6339 52.3329 94.8327 52.7259C95.0363 53.1188 95.3228 53.4219 95.6921 53.6349C96.0614 53.848 96.4994 53.9545 97.006 53.9545C97.3422 53.9545 97.65 53.9072 97.9293 53.8125C98.2087 53.7178 98.4478 53.5758 98.6467 53.3864C98.8455 53.197 98.997 52.965 99.1012 52.6903L101.9 52.875C101.757 53.5473 101.466 54.1345 101.026 54.6364C100.59 55.1335 100.027 55.5218 99.3356 55.8011C98.649 56.0758 97.8559 56.2131 96.9563 56.2131ZM113.015 48.2017L110.245 48.3722C110.197 48.1354 110.096 47.9223 109.939 47.733C109.783 47.5388 109.577 47.3849 109.321 47.2713C109.07 47.1529 108.77 47.0938 108.419 47.0938C107.951 47.0938 107.555 47.1932 107.233 47.392C106.911 47.5862 106.75 47.8466 106.75 48.1733C106.75 48.4337 106.855 48.6539 107.063 48.8338C107.271 49.0137 107.629 49.1581 108.135 49.267L110.11 49.6648C111.17 49.8826 111.961 50.233 112.482 50.7159C113.003 51.1989 113.263 51.8333 113.263 52.6193C113.263 53.3343 113.052 53.9616 112.631 54.5014C112.214 55.0412 111.641 55.4626 110.912 55.7656C110.188 56.0639 109.352 56.2131 108.405 56.2131C106.961 56.2131 105.81 55.9124 104.953 55.3111C104.101 54.705 103.602 53.8812 103.455 52.8395L106.431 52.6832C106.521 53.1236 106.739 53.4598 107.084 53.6918C107.43 53.919 107.873 54.0327 108.412 54.0327C108.943 54.0327 109.369 53.9309 109.691 53.7273C110.017 53.5189 110.183 53.2514 110.188 52.9247C110.183 52.6501 110.067 52.4252 109.84 52.25C109.613 52.0701 109.262 51.9328 108.789 51.8381L106.9 51.4616C105.834 51.2486 105.041 50.8793 104.52 50.3537C104.004 49.8281 103.746 49.1581 103.746 48.3438C103.746 47.643 103.935 47.0393 104.314 46.5327C104.698 46.026 105.235 45.6354 105.926 45.3608C106.623 45.0862 107.437 44.9489 108.37 44.9489C109.748 44.9489 110.832 45.2401 111.623 45.8224C112.418 46.4048 112.882 47.1979 113.015 48.2017ZM120.971 45.0909V47.3636H114.401V45.0909H120.971ZM115.893 42.4773H118.918V52.6477C118.918 52.9271 118.961 53.1449 119.046 53.3011C119.131 53.4527 119.25 53.5592 119.401 53.6207C119.558 53.6823 119.737 53.7131 119.941 53.7131C120.083 53.7131 120.225 53.7012 120.367 53.6776C120.509 53.6491 120.618 53.6278 120.694 53.6136L121.17 55.8651C121.018 55.9124 120.805 55.9669 120.531 56.0284C120.256 56.0947 119.922 56.1349 119.529 56.1491C118.8 56.1776 118.161 56.0805 117.612 55.858C117.067 55.6354 116.643 55.2898 116.34 54.821C116.037 54.3523 115.888 53.7604 115.893 53.0455V42.4773Z" fill="white"/>
<rect x="226" y="10" width="40" height="54" rx="15" fill="#9D81FF"/>
<path d="M243 30L249 36.9994L243 44" stroke="white" stroke-linecap="round" stroke-linejoin="round"/>
</svg>
