<svg width="24" height="24" viewBox="0 0 24 24" fill="none" xmlns="http://www.w3.org/2000/svg">
<g clip-path="url(#clip0_2509_1725)">
<path d="M23.8409 12.2242C23.8409 11.2409 23.7625 10.5234 23.5928 9.7793H12.5625V14.2173H19.0371C18.9066 15.3202 18.2017 16.9811 16.6352 18.0972L16.6133 18.2458L20.1008 20.996L20.3425 21.0205C22.5615 18.9344 23.8409 15.8649 23.8409 12.2242Z" fill="#4285F4"/>
<path d="M12.5616 23.9178C15.7336 23.9178 18.3965 22.8548 20.3416 21.0211L16.6343 18.0978C15.6422 18.8021 14.3107 19.2937 12.5616 19.2937C9.45483 19.2937 6.81801 17.2076 5.87806 14.3242L5.74028 14.3361L2.11383 17.193L2.06641 17.3272C3.99833 21.2337 7.96665 23.9178 12.5616 23.9178Z" fill="#34A853"/>
<path d="M5.87922 14.3248C5.63121 13.5807 5.48767 12.7834 5.48767 11.9596C5.48767 11.1357 5.63121 10.3385 5.86617 9.59439L5.8596 9.43592L2.18771 6.5332L2.06757 6.59137C1.27134 8.21247 0.814453 10.0329 0.814453 11.9596C0.814453 13.8863 1.27134 15.7066 2.06757 17.3277L5.87922 14.3248Z" fill="#FBBC05"/>
<path d="M12.5616 4.62403C14.7676 4.62403 16.2557 5.59401 17.1042 6.40461L20.4198 3.10928C18.3835 1.1826 15.7336 0 12.5616 0C7.96665 0 3.99833 2.68406 2.06641 6.59056L5.865 9.59359C6.81801 6.7102 9.45482 4.62403 12.5616 4.62403Z" fill="#EB4335"/>
</g>
<defs>
<clipPath id="clip0_2509_1725">
<rect width="23.04" height="24" fill="white" transform="translate(0.8125)"/>
</clipPath>
</defs>
</svg>
