<svg width="380" height="131" viewBox="0 0 380 131" fill="none" xmlns="http://www.w3.org/2000/svg">
<g clip-path="url(#clip0_2402_32000)">
<rect y="0.585938" width="380" height="130" rx="10" fill="url(#paint0_linear_2402_32000)"/>
<g opacity="0.6">
<path opacity="0.5" d="M415.503 158.442C415.503 188.48 314.883 212.833 190.756 212.833C66.6296 212.833 -34 188.486 -34 158.442C-34 147.078 -19.6024 136.529 5.03238 127.802C7.94265 126.773 9.02887 125.367 11.8674 124.12C14.4497 122.981 19.1841 122.226 21.1413 120.251C25.4247 115.945 28.8064 110.277 36.3792 108.706C47.3029 106.436 67.1112 112.876 79.7155 111.141C90.1679 109.702 102.987 101.577 114.393 100.554C128.411 99.2956 132.008 106.058 148.055 105.03C157.668 104.411 159.922 102.07 171.051 101.977C180.878 101.895 182.794 103.689 190.746 104.05C209.192 104.882 213.957 95.5859 230.301 95.5859C245.611 95.5859 257.119 106.332 271.332 107.65C285.576 108.975 303.468 104.373 316.144 106.337C329.465 108.4 337.469 117.067 348.679 119.742C352.543 120.667 356.273 121.625 359.859 122.615C363.538 123.627 369.287 123.682 372.648 124.76C379.114 126.839 382.752 130.029 387.947 132.327C390.14 133.295 396.883 134.083 399.711 135.713C405.03 138.783 404.435 141.229 407.909 144.38C412.859 148.867 415.503 153.583 415.503 158.442Z" fill="#9D81FF"/>
<path opacity="0.68" d="M415.503 158.407C415.503 188.464 314.883 212.833 190.756 212.833C66.6296 212.833 -34 188.47 -34 158.407C-34 153.988 -31.8275 149.69 -27.7183 145.579C-24.7671 142.622 -22.9533 139.014 -18.096 136.266C-12.3267 133.003 -3.14505 130.643 5.03238 127.747C7.94265 126.718 10.9964 125.71 14.1833 124.73C23.201 121.96 28.9498 113.216 39.9863 110.917C50.91 108.645 67.1112 112.811 79.7053 111.076C90.1576 109.636 103.797 103.909 115.213 102.885C126.638 101.856 135.841 105.529 148.055 104.96C154.491 104.659 161.746 103.52 168.356 103.356C175.959 103.17 182.938 103.98 190.746 103.98C203.023 103.98 219.039 99.8848 230.814 99.8848C246.123 99.8848 257.119 106.263 271.332 107.583C285.576 108.908 303.017 106.619 315.693 108.584C329.014 110.649 337.479 117.005 348.679 119.682C352.543 120.607 358.24 120.602 361.816 121.593C366.469 122.88 368.908 125.179 373.048 126.57C378.479 128.393 383.838 128.957 388.316 130.933C390.509 131.902 392.22 134.235 394.167 135.237C396.125 136.239 397.949 137.262 399.65 138.297C409.877 144.522 415.503 151.306 415.503 158.407Z" fill="#9D81FF"/>
<path opacity="0.3" d="M-34 158.425C-34 188.453 66.6216 212.799 190.751 212.799C314.881 212.799 415.503 188.453 415.503 158.425C415.503 153.562 412.869 148.853 407.919 144.368C405.07 141.786 402.949 138.406 398.635 135.988C394.669 133.768 388.613 132.504 383.509 130.448C380.128 129.086 379.103 127.74 375.26 126.46C373.528 125.886 369.153 125.345 367.328 124.781C358.311 122.013 354.539 117.145 343.503 114.854C332.579 112.584 314.399 112.874 301.795 111.14C291.342 109.701 277.703 103.98 266.287 102.957C254.861 101.929 245.658 105.599 233.443 105.03C227.007 104.729 219.752 103.592 213.142 103.428C205.539 103.242 198.56 104.051 190.751 104.051C178.475 104.051 164.804 102 153.04 102C134.512 101.995 135.168 105.67 110.164 107.65C86.2868 109.543 85.2416 106.244 69.45 109.001C62.83 110.155 65.8633 110.237 32.8146 119.738C20.5175 123.272 14.1229 124.776 11.3253 125.673C4.75659 127.773 -1.40225 127.877 -6.66954 130.202C-10.1435 131.733 -13.1051 135.431 -15.9744 137.05C-21.2109 140.009 -25.392 143.099 -28.4048 146.299C-32.0632 150.199 -34 154.257 -34 158.425Z" fill="#9D81FF"/>
</g>
<circle cx="55.7156" cy="53.3016" r="22.7156" fill="white" fill-opacity="0.1"/>
<path d="M55.5076 57.1099H55.9214C58.1975 57.1099 60.1287 55.6521 60.8083 53.6307C60.9069 53.3364 60.6811 53.0331 60.3682 53.0331H59.0938C58.688 53.0331 58.3603 52.7094 58.3603 52.3099C58.3603 51.9092 58.688 51.5844 59.0938 51.5844H60.3292C60.7384 51.5844 61.0696 51.2573 61.0696 50.8532C61.0696 50.4491 60.7384 50.1221 60.3292 50.1221H59.0938C58.688 50.1221 58.3603 49.7972 58.3603 49.3977C58.3603 48.997 58.688 48.6722 59.0938 48.6722H60.3292C60.7384 48.6722 61.0696 48.3451 61.0696 47.941C61.0696 47.537 60.7384 47.2099 60.3292 47.2099H59.0938C58.688 47.2099 58.3603 46.885 58.3603 46.4844C58.3603 46.0848 58.688 45.76 59.0938 45.76H60.4335C60.7407 45.76 60.9607 45.4703 60.8782 45.1771C60.2697 43.0391 58.2812 41.4727 55.9214 41.4727H55.5076C52.6642 41.4727 50.3594 43.7476 50.3594 46.5568V52.0258C50.3594 54.8338 52.6642 57.1099 55.5076 57.1099Z" fill="white"/>
<path opacity="0.4" d="M64.6249 50.7305C63.9923 50.7305 63.4788 51.2364 63.4788 51.8623C63.4788 56.0897 59.9958 59.5293 55.7152 59.5293C51.4334 59.5293 47.9504 56.0897 47.9504 51.8623C47.9504 51.2364 47.4369 50.7305 46.8043 50.7305C46.1717 50.7305 45.6582 51.2364 45.6582 51.8623C45.6582 56.9555 49.5618 61.1602 54.5691 61.725V64.0022C54.5691 64.627 55.0814 65.1341 55.7152 65.1341C56.3478 65.1341 56.8613 64.627 56.8613 64.0022V61.725C61.8674 61.1602 65.771 56.9555 65.771 51.8623C65.771 51.2364 65.2576 50.7305 64.6249 50.7305Z" fill="white"/>
<path d="M31.179 94.5859H30.2557L32.9261 87.3132H33.8352L36.5057 94.5859H35.5824L33.4091 88.4638H33.3523L31.179 94.5859ZM31.5199 91.745H35.2415V92.5263H31.5199V91.745ZM38.5192 87.3132V94.5859H37.6385V87.3132H38.5192ZM43.0975 94.5859V87.3132H47.4867V88.0945H43.9782V90.5518H47.2594V91.3331H43.9782V93.8047H47.5435V94.5859H43.0975ZM49.5854 89.1314L50.8922 91.3615L52.199 89.1314H53.165L51.4036 91.8587L53.165 94.5859H52.199L50.8922 92.4695L49.5854 94.5859H48.6195L50.3525 91.8587L48.6195 89.1314H49.5854ZM55.9659 94.7138C55.6203 94.7138 55.3066 94.6487 55.0249 94.5185C54.7431 94.3859 54.5194 94.1953 54.3537 93.9467C54.188 93.6958 54.1051 93.3928 54.1051 93.0376C54.1051 92.7251 54.1667 92.4718 54.2898 92.2777C54.4129 92.0812 54.5774 91.9273 54.7834 91.8161C54.9893 91.7048 55.2166 91.6219 55.4652 91.5675C55.7161 91.5107 55.9683 91.4657 56.2216 91.4325C56.553 91.3899 56.8217 91.358 57.0277 91.3366C57.236 91.313 57.3875 91.2739 57.4822 91.2195C57.5793 91.165 57.6278 91.0703 57.6278 90.9354V90.907C57.6278 90.5566 57.532 90.2843 57.3402 90.0902C57.1508 89.8961 56.8632 89.799 56.4773 89.799C56.0772 89.799 55.7635 89.8866 55.5362 90.0618C55.3089 90.237 55.1491 90.424 55.0568 90.6229L54.2614 90.3388C54.4034 90.0073 54.5928 89.7493 54.8295 89.5646C55.0687 89.3776 55.3291 89.2474 55.6108 89.174C55.8949 89.0982 56.1742 89.0604 56.4489 89.0604C56.6241 89.0604 56.8253 89.0817 57.0526 89.1243C57.2822 89.1645 57.5036 89.2486 57.7166 89.3764C57.9321 89.5043 58.1108 89.6972 58.2528 89.9553C58.3949 90.2133 58.4659 90.5589 58.4659 90.9922V94.5859H57.6278V93.8473H57.5852C57.5284 93.9657 57.4337 94.0923 57.3011 94.2273C57.1686 94.3622 56.9922 94.477 56.772 94.5717C56.5518 94.6664 56.2831 94.7138 55.9659 94.7138ZM56.0938 93.9609C56.4252 93.9609 56.7045 93.8958 56.9318 93.7656C57.1615 93.6354 57.3343 93.4673 57.4503 93.2614C57.5687 93.0554 57.6278 92.8388 57.6278 92.6115V91.8445C57.5923 91.8871 57.5142 91.9261 57.3935 91.9616C57.2751 91.9948 57.1378 92.0244 56.9815 92.0504C56.8277 92.0741 56.6773 92.0954 56.5305 92.1143C56.3861 92.1309 56.2689 92.1451 56.179 92.157C55.9612 92.1854 55.7576 92.2315 55.5682 92.2955C55.3812 92.357 55.2296 92.4505 55.1136 92.576C55 92.6991 54.9432 92.8672 54.9432 93.0803C54.9432 93.3714 55.0509 93.5916 55.2663 93.7408C55.4841 93.8875 55.7599 93.9609 56.0938 93.9609ZM59.9956 94.5859V89.1314H60.8052V89.9837H60.8762C60.9899 89.6925 61.1734 89.4664 61.4267 89.3054C61.68 89.142 61.9842 89.0604 62.3393 89.0604C62.6992 89.0604 62.9986 89.142 63.2377 89.3054C63.4792 89.4664 63.6674 89.6925 63.8024 89.9837H63.8592C63.9989 89.7019 64.2084 89.4782 64.4877 89.3125C64.7671 89.1444 65.1021 89.0604 65.4927 89.0604C65.9804 89.0604 66.3793 89.2131 66.6895 89.5185C66.9996 89.8215 67.1547 90.2938 67.1547 90.9354V94.5859H66.3166V90.9354C66.3166 90.5329 66.2065 90.2453 65.9863 90.0724C65.7662 89.8996 65.5069 89.8132 65.2086 89.8132C64.8251 89.8132 64.528 89.9292 64.3173 90.1612C64.1066 90.3909 64.0012 90.6821 64.0012 91.0348V94.5859H63.149V90.8501C63.149 90.54 63.0484 90.2902 62.8471 90.1009C62.6459 89.9091 62.3867 89.8132 62.0694 89.8132C61.8516 89.8132 61.648 89.8712 61.4586 89.9872C61.2716 90.1032 61.1201 90.2642 61.0041 90.4702C60.8904 90.6738 60.8336 90.9093 60.8336 91.1768V94.5859H59.9956ZM68.687 94.5859V89.1314H69.525V94.5859H68.687ZM69.1131 88.2223C68.9498 88.2223 68.8089 88.1667 68.6905 88.0554C68.5745 87.9441 68.5165 87.8104 68.5165 87.6541C68.5165 87.4979 68.5745 87.3641 68.6905 87.2528C68.8089 87.1416 68.9498 87.0859 69.1131 87.0859C69.2765 87.0859 69.4161 87.1416 69.5321 87.2528C69.6505 87.3641 69.7097 87.4979 69.7097 87.6541C69.7097 87.8104 69.6505 87.9441 69.5321 88.0554C69.4161 88.1667 69.2765 88.2223 69.1131 88.2223ZM71.8981 91.3047V94.5859H71.06V89.1314H71.8697V89.9837H71.9407C72.0685 89.7067 72.2627 89.4841 72.5231 89.3161C72.7835 89.1456 73.1197 89.0604 73.5316 89.0604C73.9009 89.0604 74.2241 89.1361 74.5011 89.2876C74.7781 89.4368 74.9935 89.6641 75.1474 89.9695C75.3013 90.2725 75.3782 90.656 75.3782 91.12V94.5859H74.5401V91.1768C74.5401 90.7483 74.4289 90.4145 74.2063 90.1754C73.9838 89.9339 73.6784 89.8132 73.2901 89.8132C73.0226 89.8132 72.7835 89.8712 72.5728 89.9872C72.3645 90.1032 72.1999 90.2725 72.0792 90.495C71.9585 90.7176 71.8981 90.9875 71.8981 91.3047ZM79.1966 94.6996C78.671 94.6996 78.2176 94.5836 77.8365 94.3516C77.4577 94.1172 77.1653 93.7905 76.9593 93.3714C76.7557 92.95 76.6539 92.46 76.6539 91.9013C76.6539 91.3426 76.7557 90.8501 76.9593 90.424C77.1653 89.9955 77.4518 89.6617 77.8187 89.4226C78.188 89.1811 78.6189 89.0604 79.1113 89.0604C79.3954 89.0604 79.676 89.1077 79.9529 89.2024C80.2299 89.2971 80.4821 89.451 80.7093 89.6641C80.9366 89.8748 81.1177 90.1541 81.2527 90.5021C81.3876 90.8501 81.4551 91.2786 81.4551 91.7876V92.1428H77.2505V91.4183H80.6028C80.6028 91.1106 80.5413 90.8359 80.4181 90.5945C80.2974 90.353 80.1246 90.1624 79.8997 90.0227C79.6771 89.883 79.4144 89.8132 79.1113 89.8132C78.7775 89.8132 78.4887 89.8961 78.2449 90.0618C78.0034 90.2251 77.8175 90.4382 77.6873 90.701C77.5571 90.9638 77.492 91.2455 77.492 91.5462V92.0291C77.492 92.4411 77.563 92.7902 77.7051 93.0767C77.8495 93.3608 78.0495 93.5774 78.3052 93.7266C78.5609 93.8733 78.858 93.9467 79.1966 93.9467C79.4167 93.9467 79.6156 93.916 79.7931 93.8544C79.9731 93.7905 80.1281 93.6958 80.2583 93.5703C80.3886 93.4425 80.4892 93.2839 80.5602 93.0945L81.3699 93.3217C81.2846 93.5964 81.1414 93.8378 80.9402 94.0462C80.7389 94.2521 80.4904 94.4131 80.1944 94.5291C79.8985 94.6428 79.5659 94.6996 79.1966 94.6996Z" fill="#EBEEF2"/>
<path d="M116.508 47.1875H113.086C113.023 46.7448 112.896 46.3516 112.703 46.0078C112.51 45.6589 112.263 45.362 111.961 45.1172C111.659 44.8724 111.31 44.6849 110.914 44.5547C110.523 44.4245 110.099 44.3594 109.641 44.3594C108.813 44.3594 108.091 44.5651 107.477 44.9766C106.862 45.3828 106.385 45.9766 106.047 46.7578C105.708 47.5339 105.539 48.4766 105.539 49.5859C105.539 50.7266 105.708 51.6849 106.047 52.4609C106.391 53.237 106.87 53.8229 107.484 54.2187C108.099 54.6146 108.81 54.8125 109.617 54.8125C110.07 54.8125 110.49 54.7526 110.875 54.6328C111.266 54.513 111.612 54.3385 111.914 54.1094C112.216 53.875 112.466 53.5911 112.664 53.2578C112.867 52.9245 113.008 52.5443 113.086 52.1172L116.508 52.1328C116.419 52.8672 116.198 53.5755 115.844 54.2578C115.495 54.9349 115.023 55.5417 114.43 56.0781C113.841 56.6094 113.138 57.0312 112.32 57.3437C111.508 57.651 110.589 57.8047 109.563 57.8047C108.135 57.8047 106.859 57.4818 105.734 56.8359C104.615 56.1901 103.729 55.2552 103.078 54.0313C102.432 52.8073 102.109 51.3255 102.109 49.5859C102.109 47.8411 102.438 46.3568 103.094 45.1328C103.75 43.9089 104.641 42.9766 105.766 42.3359C106.891 41.6901 108.156 41.3672 109.563 41.3672C110.49 41.3672 111.349 41.4974 112.141 41.7578C112.938 42.0182 113.643 42.3984 114.258 42.8984C114.872 43.3932 115.372 44 115.758 44.7187C116.148 45.4375 116.398 46.2604 116.508 47.1875ZM124.293 57.8203C123.079 57.8203 122.03 57.5625 121.145 57.0469C120.264 56.526 119.585 55.8021 119.105 54.875C118.626 53.9427 118.387 52.862 118.387 51.6328C118.387 50.3932 118.626 49.3099 119.105 48.3828C119.585 47.4505 120.264 46.7266 121.145 46.2109C122.03 45.6901 123.079 45.4297 124.293 45.4297C125.507 45.4297 126.553 45.6901 127.434 46.2109C128.319 46.7266 129.001 47.4505 129.48 48.3828C129.96 49.3099 130.199 50.3932 130.199 51.6328C130.199 52.862 129.96 53.9427 129.48 54.875C129.001 55.8021 128.319 56.526 127.434 57.0469C126.553 57.5625 125.507 57.8203 124.293 57.8203ZM124.309 55.2422C124.861 55.2422 125.322 55.0859 125.691 54.7734C126.061 54.4557 126.34 54.0234 126.527 53.4766C126.72 52.9297 126.816 52.3073 126.816 51.6094C126.816 50.9115 126.72 50.2891 126.527 49.7422C126.34 49.1953 126.061 48.763 125.691 48.4453C125.322 48.1276 124.861 47.9687 124.309 47.9687C123.751 47.9687 123.283 48.1276 122.902 48.4453C122.527 48.763 122.243 49.1953 122.051 49.7422C121.863 50.2891 121.77 50.9115 121.77 51.6094C121.77 52.3073 121.863 52.9297 122.051 53.4766C122.243 54.0234 122.527 54.4557 122.902 54.7734C123.283 55.0859 123.751 55.2422 124.309 55.2422ZM132.363 57.5859V45.5859H135.535V47.7031H135.676C135.926 47 136.342 46.4453 136.926 46.0391C137.509 45.6328 138.207 45.4297 139.02 45.4297C139.842 45.4297 140.543 45.6354 141.121 46.0469C141.699 46.4531 142.085 47.0052 142.277 47.7031H142.402C142.647 47.0156 143.09 46.4661 143.73 46.0547C144.376 45.638 145.139 45.4297 146.02 45.4297C147.139 45.4297 148.048 45.7865 148.746 46.5C149.449 47.2083 149.801 48.2135 149.801 49.5156V57.5859H146.48V50.1719C146.48 49.5052 146.303 49.0052 145.949 48.6719C145.595 48.3385 145.152 48.1719 144.621 48.1719C144.017 48.1719 143.546 48.3646 143.207 48.75C142.868 49.1302 142.699 49.6328 142.699 50.2578V57.5859H139.473V50.1016C139.473 49.513 139.303 49.0443 138.965 48.6953C138.632 48.3464 138.191 48.1719 137.645 48.1719C137.275 48.1719 136.941 48.2656 136.645 48.4531C136.353 48.6354 136.121 48.8932 135.949 49.2266C135.777 49.5547 135.691 49.9401 135.691 50.3828V57.5859H132.363ZM157.898 57.8203C156.664 57.8203 155.602 57.5703 154.711 57.0703C153.826 56.5651 153.143 55.8516 152.664 54.9297C152.185 54.0026 151.945 52.9062 151.945 51.6406C151.945 50.4062 152.185 49.3229 152.664 48.3906C153.143 47.4583 153.818 46.7318 154.688 46.2109C155.563 45.6901 156.589 45.4297 157.766 45.4297C158.557 45.4297 159.294 45.5573 159.977 45.8125C160.664 46.0625 161.263 46.4401 161.773 46.9453C162.289 47.4505 162.69 48.0859 162.977 48.8516C163.263 49.612 163.406 50.5026 163.406 51.5234V52.4375H153.273V50.375H160.273C160.273 49.8958 160.169 49.4714 159.961 49.1016C159.753 48.7318 159.464 48.4427 159.094 48.2344C158.729 48.0208 158.305 47.9141 157.82 47.9141C157.315 47.9141 156.867 48.0312 156.477 48.2656C156.091 48.4948 155.789 48.8047 155.57 49.1953C155.352 49.5807 155.24 50.0104 155.234 50.4844V52.4453C155.234 53.0391 155.344 53.5521 155.563 53.9844C155.786 54.4167 156.102 54.75 156.508 54.9844C156.914 55.2187 157.396 55.3359 157.953 55.3359C158.323 55.3359 158.661 55.2839 158.969 55.1797C159.276 55.0755 159.539 54.9193 159.758 54.7109C159.977 54.5026 160.143 54.2474 160.258 53.9453L163.336 54.1484C163.18 54.888 162.859 55.5339 162.375 56.0859C161.896 56.6328 161.276 57.0599 160.516 57.3672C159.76 57.6693 158.888 57.8203 157.898 57.8203ZM177.053 45.5859V48.0859H169.826V45.5859H177.053ZM171.467 42.7109H174.795V53.8984C174.795 54.2057 174.842 54.4453 174.936 54.6172C175.029 54.7839 175.16 54.901 175.326 54.9687C175.498 55.0365 175.696 55.0703 175.92 55.0703C176.076 55.0703 176.232 55.0573 176.389 55.0312C176.545 55 176.665 54.9766 176.748 54.9609L177.271 57.4375C177.105 57.4896 176.87 57.5495 176.568 57.6172C176.266 57.6901 175.899 57.7344 175.467 57.75C174.665 57.7813 173.962 57.6745 173.357 57.4297C172.758 57.1849 172.292 56.8047 171.959 56.2891C171.626 55.7734 171.462 55.1224 171.467 54.3359V42.7109ZM182.643 57.8125C181.877 57.8125 181.195 57.6797 180.596 57.4141C179.997 57.1432 179.523 56.7448 179.174 56.2187C178.83 55.6875 178.658 55.026 178.658 54.2344C178.658 53.5677 178.781 53.0078 179.025 52.5547C179.27 52.1016 179.604 51.737 180.025 51.4609C180.447 51.1849 180.926 50.9766 181.463 50.8359C182.005 50.6953 182.572 50.5964 183.166 50.5391C183.864 50.4661 184.426 50.3984 184.854 50.3359C185.281 50.2682 185.59 50.1693 185.783 50.0391C185.976 49.9089 186.072 49.7161 186.072 49.4609V49.4141C186.072 48.9193 185.916 48.5365 185.604 48.2656C185.296 47.9948 184.859 47.8594 184.291 47.8594C183.692 47.8594 183.215 47.9922 182.861 48.2578C182.507 48.5182 182.273 48.8464 182.158 49.2422L179.08 48.9922C179.236 48.263 179.544 47.6328 180.002 47.1016C180.46 46.5651 181.051 46.1536 181.775 45.8672C182.505 45.5755 183.348 45.4297 184.307 45.4297C184.973 45.4297 185.611 45.5078 186.221 45.6641C186.835 45.8203 187.38 46.0625 187.854 46.3906C188.333 46.7187 188.71 47.1406 188.986 47.6562C189.262 48.1667 189.4 48.7786 189.4 49.4922V57.5859H186.244V55.9219H186.15C185.958 56.2969 185.7 56.6276 185.377 56.9141C185.054 57.1953 184.666 57.4167 184.213 57.5781C183.76 57.7344 183.236 57.8125 182.643 57.8125ZM183.596 55.5156C184.085 55.5156 184.518 55.4193 184.893 55.2266C185.268 55.0286 185.562 54.763 185.775 54.4297C185.989 54.0964 186.096 53.7187 186.096 53.2969V52.0234C185.992 52.0911 185.848 52.1536 185.666 52.2109C185.489 52.263 185.288 52.3125 185.064 52.3594C184.84 52.401 184.617 52.4401 184.393 52.4766C184.169 52.5078 183.965 52.5365 183.783 52.5625C183.393 52.6198 183.051 52.7109 182.76 52.8359C182.468 52.9609 182.242 53.1302 182.08 53.3438C181.919 53.5521 181.838 53.8125 181.838 54.125C181.838 54.5781 182.002 54.9245 182.33 55.1641C182.663 55.3984 183.085 55.5156 183.596 55.5156ZM194.998 54.1328L195.006 50.1406H195.49L199.334 45.5859H203.154L197.99 51.6172H197.201L194.998 54.1328ZM191.982 57.5859V41.5859H195.311V57.5859H191.982ZM199.482 57.5859L195.951 52.3594L198.17 50.0078L203.381 57.5859H199.482ZM209.762 57.8203C208.527 57.8203 207.465 57.5703 206.574 57.0703C205.689 56.5651 205.007 55.8516 204.527 54.9297C204.048 54.0026 203.809 52.9062 203.809 51.6406C203.809 50.4062 204.048 49.3229 204.527 48.3906C205.007 47.4583 205.681 46.7318 206.551 46.2109C207.426 45.6901 208.452 45.4297 209.629 45.4297C210.421 45.4297 211.158 45.5573 211.84 45.8125C212.527 46.0625 213.126 46.4401 213.637 46.9453C214.152 47.4505 214.553 48.0859 214.84 48.8516C215.126 49.612 215.27 50.5026 215.27 51.5234V52.4375H205.137V50.375H212.137C212.137 49.8958 212.033 49.4714 211.824 49.1016C211.616 48.7318 211.327 48.4427 210.957 48.2344C210.592 48.0208 210.168 47.9141 209.684 47.9141C209.178 47.9141 208.73 48.0312 208.34 48.2656C207.954 48.4948 207.652 48.8047 207.434 49.1953C207.215 49.5807 207.103 50.0104 207.098 50.4844V52.4453C207.098 53.0391 207.207 53.5521 207.426 53.9844C207.65 54.4167 207.965 54.75 208.371 54.9844C208.777 55.2187 209.259 55.3359 209.816 55.3359C210.186 55.3359 210.525 55.2839 210.832 55.1797C211.139 55.0755 211.402 54.9193 211.621 54.7109C211.84 54.5026 212.007 54.2474 212.121 53.9453L215.199 54.1484C215.043 54.888 214.723 55.5339 214.238 56.0859C213.759 56.6328 213.139 57.0599 212.379 57.3672C211.624 57.6693 210.751 57.8203 209.762 57.8203ZM224.588 62.0859C224.166 62.0859 223.77 62.0521 223.4 61.9844C223.036 61.9219 222.734 61.8411 222.494 61.7422L223.244 59.2578C223.635 59.3776 223.986 59.4427 224.299 59.4531C224.617 59.4635 224.89 59.3906 225.119 59.2344C225.354 59.0781 225.544 58.8125 225.689 58.4375L225.885 57.9297L221.58 45.5859H225.08L227.564 54.3984H227.689L230.197 45.5859H233.721L229.057 58.8828C228.833 59.5286 228.528 60.0911 228.143 60.5703C227.762 61.0547 227.281 61.4271 226.697 61.6875C226.114 61.9531 225.411 62.0859 224.588 62.0859ZM240.459 57.8203C239.245 57.8203 238.196 57.5625 237.311 57.0469C236.43 56.526 235.751 55.8021 235.271 54.875C234.792 53.9427 234.553 52.862 234.553 51.6328C234.553 50.3932 234.792 49.3099 235.271 48.3828C235.751 47.4505 236.43 46.7266 237.311 46.2109C238.196 45.6901 239.245 45.4297 240.459 45.4297C241.673 45.4297 242.719 45.6901 243.6 46.2109C244.485 46.7266 245.167 47.4505 245.646 48.3828C246.126 49.3099 246.365 50.3932 246.365 51.6328C246.365 52.862 246.126 53.9427 245.646 54.875C245.167 55.8021 244.485 56.526 243.6 57.0469C242.719 57.5625 241.673 57.8203 240.459 57.8203ZM240.475 55.2422C241.027 55.2422 241.488 55.0859 241.857 54.7734C242.227 54.4557 242.506 54.0234 242.693 53.4766C242.886 52.9297 242.982 52.3073 242.982 51.6094C242.982 50.9115 242.886 50.2891 242.693 49.7422C242.506 49.1953 242.227 48.763 241.857 48.4453C241.488 48.1276 241.027 47.9687 240.475 47.9687C239.917 47.9687 239.449 48.1276 239.068 48.4453C238.693 48.763 238.41 49.1953 238.217 49.7422C238.029 50.2891 237.936 50.9115 237.936 51.6094C237.936 52.3073 238.029 52.9297 238.217 53.4766C238.41 54.0234 238.693 54.4557 239.068 54.7734C239.449 55.0859 239.917 55.2422 240.475 55.2422ZM256.225 52.4766V45.5859H259.553V57.5859H256.357V55.4062H256.232C255.962 56.1094 255.511 56.6745 254.881 57.1016C254.256 57.5286 253.493 57.7422 252.592 57.7422C251.79 57.7422 251.084 57.5599 250.475 57.1953C249.865 56.8307 249.389 56.3125 249.045 55.6406C248.706 54.9688 248.535 54.1641 248.529 53.2266V45.5859H251.857V52.6328C251.863 53.3411 252.053 53.901 252.428 54.3125C252.803 54.724 253.305 54.9297 253.936 54.9297C254.337 54.9297 254.712 54.8385 255.061 54.6562C255.41 54.4687 255.691 54.1927 255.904 53.8281C256.123 53.4635 256.23 53.013 256.225 52.4766ZM262.215 57.5859V45.5859H265.441V47.6797H265.566C265.785 46.9349 266.152 46.3724 266.668 45.9922C267.184 45.6068 267.777 45.4141 268.449 45.4141C268.616 45.4141 268.796 45.4245 268.988 45.4453C269.181 45.4661 269.35 45.4948 269.496 45.5312V48.4844C269.34 48.4375 269.124 48.3958 268.848 48.3594C268.572 48.3229 268.319 48.3047 268.09 48.3047C267.6 48.3047 267.163 48.4115 266.777 48.625C266.397 48.8333 266.095 49.125 265.871 49.5C265.652 49.875 265.543 50.3073 265.543 50.7969V57.5859H262.215ZM282.762 45.5859V48.0859H275.355V45.5859H282.762ZM277.051 57.5859V44.7187C277.051 43.849 277.22 43.1276 277.559 42.5547C277.902 41.9818 278.371 41.5521 278.965 41.2656C279.559 40.9792 280.233 40.8359 280.988 40.8359C281.499 40.8359 281.965 40.875 282.387 40.9531C282.814 41.0312 283.132 41.1016 283.34 41.1641L282.746 43.6641C282.616 43.6224 282.454 43.5833 282.262 43.5469C282.074 43.5104 281.882 43.4922 281.684 43.4922C281.194 43.4922 280.853 43.6068 280.66 43.8359C280.467 44.0599 280.371 44.375 280.371 44.7812V57.5859H277.051ZM284.795 57.5859V45.5859H288.123V57.5859H284.795ZM286.467 44.0391C285.972 44.0391 285.548 43.875 285.193 43.5469C284.844 43.2135 284.67 42.8151 284.67 42.3516C284.67 41.8932 284.844 41.5 285.193 41.1719C285.548 40.8385 285.972 40.6719 286.467 40.6719C286.962 40.6719 287.383 40.8385 287.732 41.1719C288.087 41.5 288.264 41.8932 288.264 42.3516C288.264 42.8151 288.087 43.2135 287.732 43.5469C287.383 43.875 286.962 44.0391 286.467 44.0391ZM290.789 57.5859V45.5859H294.016V47.6797H294.141C294.359 46.9349 294.727 46.3724 295.242 45.9922C295.758 45.6068 296.352 45.4141 297.023 45.4141C297.19 45.4141 297.37 45.4245 297.563 45.4453C297.755 45.4661 297.924 45.4948 298.07 45.5312V48.4844C297.914 48.4375 297.698 48.3958 297.422 48.3594C297.146 48.3229 296.893 48.3047 296.664 48.3047C296.174 48.3047 295.737 48.4115 295.352 48.625C294.971 48.8333 294.669 49.125 294.445 49.5C294.227 49.875 294.117 50.3073 294.117 50.7969V57.5859H290.789ZM309.775 49.0078L306.729 49.1953C306.676 48.9349 306.564 48.7005 306.393 48.4922C306.221 48.2786 305.994 48.1094 305.713 47.9844C305.437 47.8542 305.106 47.7891 304.721 47.7891C304.205 47.7891 303.77 47.8984 303.416 48.1172C303.062 48.3307 302.885 48.6172 302.885 48.9766C302.885 49.263 302.999 49.5052 303.229 49.7031C303.458 49.901 303.851 50.0599 304.408 50.1797L306.58 50.6172C307.747 50.8568 308.617 51.2422 309.189 51.7734C309.762 52.3047 310.049 53.0026 310.049 53.8672C310.049 54.6536 309.817 55.3437 309.354 55.9375C308.895 56.5312 308.265 56.9948 307.463 57.3281C306.666 57.6563 305.747 57.8203 304.705 57.8203C303.117 57.8203 301.851 57.4896 300.908 56.8281C299.971 56.1615 299.421 55.2552 299.26 54.1094L302.533 53.9375C302.632 54.4219 302.872 54.7917 303.252 55.0469C303.632 55.2969 304.119 55.4219 304.713 55.4219C305.296 55.4219 305.765 55.3099 306.119 55.0859C306.479 54.8568 306.661 54.5625 306.666 54.2031C306.661 53.901 306.533 53.6536 306.283 53.4609C306.033 53.263 305.648 53.112 305.127 53.0078L303.049 52.5937C301.877 52.3594 301.005 51.9531 300.432 51.375C299.864 50.7969 299.58 50.0599 299.58 49.1641C299.58 48.3932 299.788 47.7292 300.205 47.1719C300.627 46.6146 301.218 46.1849 301.979 45.8828C302.744 45.5807 303.64 45.4297 304.666 45.4297C306.182 45.4297 307.374 45.75 308.244 46.3906C309.119 47.0312 309.63 47.9036 309.775 49.0078ZM318.527 45.5859V48.0859H311.301V45.5859H318.527ZM312.941 42.7109H316.27V53.8984C316.27 54.2057 316.316 54.4453 316.41 54.6172C316.504 54.7839 316.634 54.901 316.801 54.9687C316.973 55.0365 317.171 55.0703 317.395 55.0703C317.551 55.0703 317.707 55.0573 317.863 55.0312C318.02 55 318.139 54.9766 318.223 54.9609L318.746 57.4375C318.579 57.4896 318.345 57.5495 318.043 57.6172C317.741 57.6901 317.374 57.7344 316.941 57.75C316.139 57.7813 315.436 57.6745 314.832 57.4297C314.233 57.1849 313.767 56.8047 313.434 56.2891C313.1 55.7734 312.936 55.1224 312.941 54.3359V42.7109ZM108.781 72.5859V75.0859H101.375V72.5859H108.781ZM103.07 84.5859V71.7187C103.07 70.849 103.24 70.1276 103.578 69.5547C103.922 68.9818 104.391 68.5521 104.984 68.2656C105.578 67.9792 106.253 67.8359 107.008 67.8359C107.518 67.8359 107.984 67.875 108.406 67.9531C108.833 68.0312 109.151 68.1016 109.359 68.1641L108.766 70.6641C108.635 70.6224 108.474 70.5833 108.281 70.5469C108.094 70.5104 107.901 70.4922 107.703 70.4922C107.214 70.4922 106.872 70.6068 106.68 70.8359C106.487 71.0599 106.391 71.375 106.391 71.7812V84.5859H103.07ZM110.814 84.5859V72.5859H114.041V74.6797H114.166C114.385 73.9349 114.752 73.3724 115.268 72.9922C115.783 72.6068 116.377 72.4141 117.049 72.4141C117.215 72.4141 117.395 72.4245 117.588 72.4453C117.781 72.4661 117.95 72.4948 118.096 72.5312V75.4844C117.939 75.4375 117.723 75.3958 117.447 75.3594C117.171 75.3229 116.919 75.3047 116.689 75.3047C116.2 75.3047 115.762 75.4115 115.377 75.625C114.997 75.8333 114.695 76.125 114.471 76.5C114.252 76.875 114.143 77.3073 114.143 77.7969V84.5859H110.814ZM124.727 84.8203C123.492 84.8203 122.43 84.5703 121.539 84.0703C120.654 83.5651 119.971 82.8516 119.492 81.9297C119.013 81.0026 118.773 79.9062 118.773 78.6406C118.773 77.4062 119.013 76.3229 119.492 75.3906C119.971 74.4583 120.646 73.7318 121.516 73.2109C122.391 72.6901 123.417 72.4297 124.594 72.4297C125.385 72.4297 126.122 72.5573 126.805 72.8125C127.492 73.0625 128.091 73.4401 128.602 73.9453C129.117 74.4505 129.518 75.0859 129.805 75.8516C130.091 76.612 130.234 77.5026 130.234 78.5234V79.4375H120.102V77.375H127.102C127.102 76.8958 126.997 76.4714 126.789 76.1016C126.581 75.7318 126.292 75.4427 125.922 75.2344C125.557 75.0208 125.133 74.9141 124.648 74.9141C124.143 74.9141 123.695 75.0312 123.305 75.2656C122.919 75.4948 122.617 75.8047 122.398 76.1953C122.18 76.5807 122.068 77.0104 122.063 77.4844V79.4453C122.063 80.0391 122.172 80.5521 122.391 80.9844C122.615 81.4167 122.93 81.75 123.336 81.9844C123.742 82.2187 124.224 82.3359 124.781 82.3359C125.151 82.3359 125.49 82.2839 125.797 82.1797C126.104 82.0755 126.367 81.9193 126.586 81.7109C126.805 81.5026 126.971 81.2474 127.086 80.9453L130.164 81.1484C130.008 81.888 129.688 82.5339 129.203 83.0859C128.724 83.6328 128.104 84.0599 127.344 84.3672C126.589 84.6693 125.716 84.8203 124.727 84.8203ZM137.875 84.8203C136.641 84.8203 135.578 84.5703 134.688 84.0703C133.802 83.5651 133.12 82.8516 132.641 81.9297C132.161 81.0026 131.922 79.9062 131.922 78.6406C131.922 77.4062 132.161 76.3229 132.641 75.3906C133.12 74.4583 133.794 73.7318 134.664 73.2109C135.539 72.6901 136.565 72.4297 137.742 72.4297C138.534 72.4297 139.271 72.5573 139.953 72.8125C140.641 73.0625 141.24 73.4401 141.75 73.9453C142.266 74.4505 142.667 75.0859 142.953 75.8516C143.24 76.612 143.383 77.5026 143.383 78.5234V79.4375H133.25V77.375H140.25C140.25 76.8958 140.146 76.4714 139.938 76.1016C139.729 75.7318 139.44 75.4427 139.07 75.2344C138.706 75.0208 138.281 74.9141 137.797 74.9141C137.292 74.9141 136.844 75.0312 136.453 75.2656C136.068 75.4948 135.766 75.8047 135.547 76.1953C135.328 76.5807 135.216 77.0104 135.211 77.4844V79.4453C135.211 80.0391 135.32 80.5521 135.539 80.9844C135.763 81.4167 136.078 81.75 136.484 81.9844C136.891 82.2187 137.372 82.3359 137.93 82.3359C138.299 82.3359 138.638 82.2839 138.945 82.1797C139.253 82.0755 139.516 81.9193 139.734 81.7109C139.953 81.5026 140.12 81.2474 140.234 80.9453L143.313 81.1484C143.156 81.888 142.836 82.5339 142.352 83.0859C141.872 83.6328 141.253 84.0599 140.492 84.3672C139.737 84.6693 138.865 84.8203 137.875 84.8203ZM156.115 84.8203C154.881 84.8203 153.818 84.5703 152.928 84.0703C152.042 83.5651 151.36 82.8516 150.881 81.9297C150.402 81.0026 150.162 79.9062 150.162 78.6406C150.162 77.4062 150.402 76.3229 150.881 75.3906C151.36 74.4583 152.035 73.7318 152.904 73.2109C153.779 72.6901 154.805 72.4297 155.982 72.4297C156.774 72.4297 157.511 72.5573 158.193 72.8125C158.881 73.0625 159.48 73.4401 159.99 73.9453C160.506 74.4505 160.907 75.0859 161.193 75.8516C161.48 76.612 161.623 77.5026 161.623 78.5234V79.4375H151.49V77.375H158.49C158.49 76.8958 158.386 76.4714 158.178 76.1016C157.969 75.7318 157.68 75.4427 157.311 75.2344C156.946 75.0208 156.521 74.9141 156.037 74.9141C155.532 74.9141 155.084 75.0312 154.693 75.2656C154.308 75.4948 154.006 75.8047 153.787 76.1953C153.568 76.5807 153.456 77.0104 153.451 77.4844V79.4453C153.451 80.0391 153.561 80.5521 153.779 80.9844C154.003 81.4167 154.318 81.75 154.725 81.9844C155.131 82.2187 155.613 82.3359 156.17 82.3359C156.54 82.3359 156.878 82.2839 157.186 82.1797C157.493 82.0755 157.756 81.9193 157.975 81.7109C158.193 81.5026 158.36 81.2474 158.475 80.9453L161.553 81.1484C161.396 81.888 161.076 82.5339 160.592 83.0859C160.113 83.6328 159.493 84.0599 158.732 84.3672C157.977 84.6693 157.105 84.8203 156.115 84.8203ZM166.361 72.5859L168.564 76.7812L170.822 72.5859H174.236L170.76 78.5859L174.33 84.5859H170.932L168.564 80.4375L166.236 84.5859H162.799L166.361 78.5859L162.924 72.5859H166.361ZM179.57 84.8125C178.805 84.8125 178.122 84.6797 177.523 84.4141C176.924 84.1432 176.451 83.7448 176.102 83.2187C175.758 82.6875 175.586 82.026 175.586 81.2344C175.586 80.5677 175.708 80.0078 175.953 79.5547C176.198 79.1016 176.531 78.737 176.953 78.4609C177.375 78.1849 177.854 77.9766 178.391 77.8359C178.932 77.6953 179.5 77.5964 180.094 77.5391C180.792 77.4661 181.354 77.3984 181.781 77.3359C182.208 77.2682 182.518 77.1693 182.711 77.0391C182.904 76.9089 183 76.7161 183 76.4609V76.4141C183 75.9193 182.844 75.5365 182.531 75.2656C182.224 74.9948 181.786 74.8594 181.219 74.8594C180.62 74.8594 180.143 74.9922 179.789 75.2578C179.435 75.5182 179.201 75.8464 179.086 76.2422L176.008 75.9922C176.164 75.263 176.471 74.6328 176.93 74.1016C177.388 73.5651 177.979 73.1536 178.703 72.8672C179.432 72.5755 180.276 72.4297 181.234 72.4297C181.901 72.4297 182.539 72.5078 183.148 72.6641C183.763 72.8203 184.307 73.0625 184.781 73.3906C185.26 73.7187 185.638 74.1406 185.914 74.6562C186.19 75.1667 186.328 75.7786 186.328 76.4922V84.5859H183.172V82.9219H183.078C182.885 83.2969 182.628 83.6276 182.305 83.9141C181.982 84.1953 181.594 84.4167 181.141 84.5781C180.688 84.7344 180.164 84.8125 179.57 84.8125ZM180.523 82.5156C181.013 82.5156 181.445 82.4193 181.82 82.2266C182.195 82.0286 182.49 81.763 182.703 81.4297C182.917 81.0964 183.023 80.7187 183.023 80.2969V79.0234C182.919 79.0911 182.776 79.1536 182.594 79.2109C182.417 79.263 182.216 79.3125 181.992 79.3594C181.768 79.401 181.544 79.4401 181.32 79.4766C181.096 79.5078 180.893 79.5365 180.711 79.5625C180.32 79.6198 179.979 79.7109 179.688 79.8359C179.396 79.9609 179.169 80.1302 179.008 80.3438C178.846 80.5521 178.766 80.8125 178.766 81.125C178.766 81.5781 178.93 81.9245 179.258 82.1641C179.591 82.3984 180.013 82.5156 180.523 82.5156ZM188.91 84.5859V72.5859H192.082V74.7031H192.223C192.473 74 192.889 73.4453 193.473 73.0391C194.056 72.6328 194.754 72.4297 195.566 72.4297C196.389 72.4297 197.09 72.6354 197.668 73.0469C198.246 73.4531 198.632 74.0052 198.824 74.7031H198.949C199.194 74.0156 199.637 73.4661 200.277 73.0547C200.923 72.638 201.686 72.4297 202.566 72.4297C203.686 72.4297 204.595 72.7865 205.293 73.5C205.996 74.2083 206.348 75.2135 206.348 76.5156V84.5859H203.027V77.1719C203.027 76.5052 202.85 76.0052 202.496 75.6719C202.142 75.3385 201.699 75.1719 201.168 75.1719C200.564 75.1719 200.092 75.3646 199.754 75.75C199.415 76.1302 199.246 76.6328 199.246 77.2578V84.5859H196.02V77.1016C196.02 76.513 195.85 76.0443 195.512 75.6953C195.178 75.3464 194.738 75.1719 194.191 75.1719C193.822 75.1719 193.488 75.2656 193.191 75.4531C192.9 75.6354 192.668 75.8932 192.496 76.2266C192.324 76.5547 192.238 76.9401 192.238 77.3828V84.5859H188.91ZM216.436 84.5859L213.17 72.5859H216.537L218.396 80.6484H218.506L220.443 72.5859H223.748L225.717 80.6016H225.818L227.646 72.5859H231.006L227.748 84.5859H224.225L222.162 77.0391H222.014L219.951 84.5859H216.436ZM232.781 84.5859V72.5859H236.109V84.5859H232.781ZM234.453 71.0391C233.958 71.0391 233.534 70.875 233.18 70.5469C232.831 70.2135 232.656 69.8151 232.656 69.3516C232.656 68.8932 232.831 68.5 233.18 68.1719C233.534 67.8385 233.958 67.6719 234.453 67.6719C234.948 67.6719 235.37 67.8385 235.719 68.1719C236.073 68.5 236.25 68.8932 236.25 69.3516C236.25 69.8151 236.073 70.2135 235.719 70.5469C235.37 70.875 234.948 71.0391 234.453 71.0391ZM245.158 72.5859V75.0859H237.932V72.5859H245.158ZM239.572 69.7109H242.9V80.8984C242.9 81.2057 242.947 81.4453 243.041 81.6172C243.135 81.7839 243.265 81.901 243.432 81.9687C243.604 82.0365 243.801 82.0703 244.025 82.0703C244.182 82.0703 244.338 82.0573 244.494 82.0312C244.65 82 244.77 81.9766 244.854 81.9609L245.377 84.4375C245.21 84.4896 244.976 84.5495 244.674 84.6172C244.372 84.6901 244.005 84.7344 243.572 84.75C242.77 84.7813 242.067 84.6745 241.463 84.4297C240.864 84.1849 240.398 83.8047 240.064 83.2891C239.731 82.7734 239.567 82.1224 239.572 81.3359V69.7109ZM250.912 77.6484V84.5859H247.584V68.5859H250.818V74.7031H250.959C251.23 73.9948 251.667 73.4401 252.271 73.0391C252.876 72.6328 253.633 72.4297 254.545 72.4297C255.378 72.4297 256.105 72.612 256.725 72.9766C257.35 73.3359 257.834 73.8542 258.178 74.5312C258.527 75.2031 258.699 76.0078 258.693 76.9453V84.5859H255.365V77.5391C255.37 76.7995 255.183 76.224 254.803 75.8125C254.428 75.401 253.902 75.1953 253.225 75.1953C252.771 75.1953 252.37 75.2917 252.021 75.4844C251.678 75.6771 251.407 75.9583 251.209 76.3281C251.016 76.6927 250.917 77.1328 250.912 77.6484ZM274.1 79.4766V72.5859H277.428V84.5859H274.232V82.4062H274.107C273.837 83.1094 273.386 83.6745 272.756 84.1016C272.131 84.5286 271.368 84.7422 270.467 84.7422C269.665 84.7422 268.959 84.5599 268.35 84.1953C267.74 83.8307 267.264 83.3125 266.92 82.6406C266.581 81.9688 266.41 81.1641 266.404 80.2266V72.5859H269.732V79.6328C269.738 80.3411 269.928 80.901 270.303 81.3125C270.678 81.724 271.18 81.9297 271.811 81.9297C272.212 81.9297 272.587 81.8385 272.936 81.6562C273.285 81.4687 273.566 81.1927 273.779 80.8281C273.998 80.4635 274.105 80.013 274.1 79.4766ZM290.074 76.0078L287.027 76.1953C286.975 75.9349 286.863 75.7005 286.691 75.4922C286.52 75.2786 286.293 75.1094 286.012 74.9844C285.736 74.8542 285.405 74.7891 285.02 74.7891C284.504 74.7891 284.069 74.8984 283.715 75.1172C283.361 75.3307 283.184 75.6172 283.184 75.9766C283.184 76.263 283.298 76.5052 283.527 76.7031C283.757 76.901 284.15 77.0599 284.707 77.1797L286.879 77.6172C288.046 77.8568 288.915 78.2422 289.488 78.7734C290.061 79.3047 290.348 80.0026 290.348 80.8672C290.348 81.6536 290.116 82.3437 289.652 82.9375C289.194 83.5312 288.564 83.9948 287.762 84.3281C286.965 84.6563 286.046 84.8203 285.004 84.8203C283.415 84.8203 282.15 84.4896 281.207 83.8281C280.27 83.1615 279.72 82.2552 279.559 81.1094L282.832 80.9375C282.931 81.4219 283.171 81.7917 283.551 82.0469C283.931 82.2969 284.418 82.4219 285.012 82.4219C285.595 82.4219 286.064 82.3099 286.418 82.0859C286.777 81.8568 286.96 81.5625 286.965 81.2031C286.96 80.901 286.832 80.6536 286.582 80.4609C286.332 80.263 285.947 80.112 285.426 80.0078L283.348 79.5937C282.176 79.3594 281.303 78.9531 280.73 78.375C280.163 77.7969 279.879 77.0599 279.879 76.1641C279.879 75.3932 280.087 74.7292 280.504 74.1719C280.926 73.6146 281.517 73.1849 282.277 72.8828C283.043 72.5807 283.939 72.4297 284.965 72.4297C286.48 72.4297 287.673 72.75 288.543 73.3906C289.418 74.0312 289.928 74.9036 290.074 76.0078ZM296.42 68.5859L296.115 79.7891H293.256L292.943 68.5859H296.42ZM294.686 84.7891C294.17 84.7891 293.727 84.6068 293.357 84.2422C292.988 83.8724 292.805 83.4297 292.811 82.9141C292.805 82.4036 292.988 81.9661 293.357 81.6016C293.727 81.237 294.17 81.0547 294.686 81.0547C295.18 81.0547 295.615 81.237 295.99 81.6016C296.365 81.9661 296.555 82.4036 296.561 82.9141C296.555 83.2578 296.464 83.5729 296.287 83.8594C296.115 84.1406 295.889 84.3672 295.607 84.5391C295.326 84.7057 295.019 84.7891 294.686 84.7891Z" fill="white"/>
</g>
<defs>
<linearGradient id="paint0_linear_2402_32000" x1="190" y1="0.585937" x2="190" y2="130.586" gradientUnits="userSpaceOnUse">
<stop stop-color="#9D81FF"/>
<stop offset="1" stop-color="#59459E"/>
</linearGradient>
<clipPath id="clip0_2402_32000">
<rect y="0.585938" width="380" height="130" rx="10" fill="white"/>
</clipPath>
</defs>
</svg>
