<svg id="eKtAwFrYH511" xmlns="http://www.w3.org/2000/svg" xmlns:xlink="http://www.w3.org/1999/xlink" viewBox="0 0 193 236" shape-rendering="geometricPrecision" text-rendering="geometricPrecision"><path d="M186.779,86.7101c-1.933,24.9969-4.274,55.2499-27.237,70.2369-15.4,10.056-32.57,8.348-50.663,6.548-6.945-.693-42.0038-4.755-73.6885-32.599C20.0097,117.555,5.58829,104.875,5.01676,86.387C4.4922,69.1527,16.3221,57.0272,34.9869,37.9079C47.9442,24.636,68.2062,3.87028,98.3408,0.461903c8.4242-.954039,15.1882-.276979,24.3802.646287C140.955,2.93933,158.813,4.732,170.722,13.8108c20.489,15.6031,17.936,48.6098,16.057,72.8993Z" opacity="0.2" fill="#9d81ff"/><path d="M159.265,128.349c-15.314,15.019-31.356,20.189-62.7981,30.314-26.3609,8.494-39.5374,12.733-49.5901,8.825-20.0975-7.825-25.5232-33.953-36.2257-85.5251-7.68825-37.0305-4.32952-46.0785-.70461-51.7951C18.8483,16.1188,35.1487,12.8182,60.8519,7.60174c17.8428-3.61612,45.7621-9.2788,72.3891,4.23936c7.445,3.7776,12.636,7.9631,19.706,13.6566c14.006,11.2869,27.723,22.3429,32.601,36.0072c10.702,29.9676-23.425,64.0361-26.283,66.8441Z" opacity="0.4" fill="#9d81ff"/><path d="M134.596,37.3306c15.838,15.1226,24.639,33.2152,24.45,48.535-.012,15.5234-9.02,28.2784-24.762,37.2934-15.743,8.979-34.4433,13.307-50.133,14.542-15.8844,1.062-28.7585-.974-37.3706-8.794-8.5886-7.802-12.2011-20.598-12.7501-36.6315-.3542-15.8535,2.3434-34.938,10.8789-51.244C53.4033,24.7313,66.9148,15.1078,83.3482,14.58c16.2564-.7193,35.4348,7.6454,51.2478,22.7506Z" fill="#9d81ff"/></svg>
