<svg width="193" height="236" viewBox="0 0 193 236" fill="none" xmlns="http://www.w3.org/2000/svg">
<path opacity="0.2" d="M186.779 86.7101C184.846 111.707 182.505 141.96 159.542 156.947C144.142 167.003 126.972 165.295 108.879 163.495C101.934 162.802 66.8752 158.74 35.1905 130.896C20.0097 117.555 5.58829 104.875 5.01676 86.387C4.4922 69.1527 16.3221 57.0272 34.9869 37.9079C47.9442 24.636 68.2062 3.87028 98.3408 0.461903C106.765 -0.492136 113.529 0.184924 122.721 1.10819C140.955 2.93933 158.813 4.732 170.722 13.8108C191.211 29.4139 188.658 62.4206 186.779 86.7101Z" fill="#9D81FF"/>
<path opacity="0.4" d="M159.265 128.349C143.951 143.368 127.909 148.538 96.4669 158.663C70.106 167.157 56.9295 171.396 46.8768 167.488C26.7793 159.663 21.3536 133.535 10.6511 81.9629C2.96285 44.9324 6.32158 35.8844 9.94649 30.1678C18.8483 16.1188 35.1487 12.8182 60.8519 7.60174C78.6947 3.98562 106.614 -1.67706 133.241 11.8411C140.686 15.6187 145.877 19.8042 152.947 25.4977C166.953 36.7846 180.67 47.8406 185.548 61.5049C196.25 91.4725 162.123 125.541 159.265 128.349Z" fill="#9D81FF"/>
<path d="M134.596 37.3306C150.434 52.4532 159.235 70.5458 159.046 85.8656C159.034 101.389 150.026 114.144 134.284 123.159C118.541 132.138 99.8407 136.466 84.151 137.701C68.2666 138.763 55.3925 136.727 46.7804 128.907C38.1918 121.105 34.5793 108.309 34.0303 92.2755C33.6761 76.422 36.3737 57.3375 44.9092 41.0315C53.4033 24.7313 66.9148 15.1078 83.3482 14.58C99.6046 13.8607 118.783 22.2254 134.596 37.3306Z" fill="#9D81FF"/>
<path d="M13.455 225.863C9.80468 225.863 6.72124 225.062 4.20475 223.458C2.81345 222.572 1.64197 221.5 0.69612 220.241C-0.559235 218.569 -0.0646066 216.196 1.76057 215.147L2.02958 214.993C3.53369 214.129 5.48036 214.448 6.55927 215.792C8.1733 217.805 10.5423 218.811 13.6662 218.811C15.6505 218.811 17.1401 218.464 18.1322 217.765C19.1244 217.068 19.6219 216.128 19.6219 214.945C19.6219 213.657 19.0376 212.665 17.8661 211.969C16.6976 211.238 14.6063 210.454 11.5951 209.618C8.33528 208.643 5.76671 207.512 3.88657 206.224C1.54652 204.519 0.37795 202.012 0.37795 198.703C0.37795 195.36 1.56388 192.731 3.93864 190.815C6.3134 188.831 9.20014 187.836 12.6017 187.836C15.5781 187.836 18.219 188.549 20.5215 189.976C21.6669 190.687 22.6851 191.543 23.5789 192.546C25.0483 194.198 24.6057 196.764 22.6735 197.862C21.2243 198.686 19.3384 198.47 18.2335 197.23C16.8075 195.63 14.9331 194.831 12.6046 194.831C11.115 194.831 9.92905 195.17 9.04394 195.849C8.15883 196.528 7.71628 197.41 7.71628 198.487C7.71628 199.635 8.19354 200.576 9.15096 201.307C10.2125 202.037 12.0927 202.805 14.7856 203.606L17.3368 204.442C17.7967 204.581 18.5951 204.877 19.7289 205.329C20.7934 205.713 21.5715 206.079 22.069 206.426C23.8045 207.469 24.9731 208.549 25.5776 209.664C26.4974 211.128 26.9602 212.85 26.9602 214.834C26.9602 218.214 25.702 220.894 23.1855 222.879C20.6661 224.871 17.4236 225.863 13.455 225.863Z" fill="#9D81FF"/>
<path d="M46.8901 198.281C50.4682 198.281 53.5169 199.623 56.0334 202.303C58.5846 204.984 59.8602 208.241 59.8602 212.07C59.8602 215.97 58.5846 219.245 56.0334 221.891C53.5516 224.538 50.5058 225.862 46.8901 225.862C43.5666 225.862 40.92 224.847 38.9531 222.818C38.7072 222.565 38.2791 222.73 38.2791 223.079V232.494C38.2791 234.197 36.8762 235.575 35.1436 235.575H34.5593C32.8267 235.575 31.4238 234.197 31.4238 232.494V202.093C31.4238 200.39 32.8267 199.012 34.5593 199.012H35.1436C36.8762 199.012 38.2791 200.39 38.2791 202.093C40.301 199.552 43.1704 198.281 46.8901 198.281ZM40.353 217.4C41.7357 218.759 43.4885 219.438 45.6145 219.438C47.7405 219.438 49.4934 218.759 50.876 217.4C52.2934 216.007 53.002 214.233 53.002 212.073C53.002 209.916 52.2934 208.156 50.876 206.797C49.4934 205.405 47.7405 204.708 45.6145 204.708C43.4885 204.708 41.7328 205.405 40.353 206.797C38.9704 208.156 38.2791 209.916 38.2791 212.073C38.2791 214.231 38.9704 216.007 40.353 217.4Z" fill="#9D81FF"/>
<path d="M87.9762 214.839H71.0867C70.7917 214.839 70.569 215.123 70.6644 215.399C71.6768 218.298 74.1181 219.751 77.9883 219.751C79.8164 219.751 81.3349 219.327 82.544 218.48C83.5622 217.767 84.8985 217.681 85.9832 218.295C87.9733 219.424 88.1237 222.212 86.2464 223.511C83.9816 225.078 81.1932 225.862 77.8842 225.862C73.4904 225.862 69.9644 224.558 67.3062 221.945C64.648 219.333 63.3203 216.041 63.3203 212.073C63.3203 208.173 64.6306 204.899 67.2542 202.252C69.8401 199.606 73.207 198.281 77.3548 198.281C81.2887 198.281 84.4965 199.606 86.9754 202.252C89.5266 204.899 90.8022 208.173 90.8022 212.073C90.7964 213.602 89.5323 214.839 87.9762 214.839ZM71.8648 209.617H82.4775C83.2469 209.617 83.7676 208.838 83.4638 208.145C83.0242 207.139 82.3965 206.323 81.5779 205.7C80.3891 204.796 78.9804 204.342 77.3519 204.342C75.5094 204.342 73.985 204.805 72.7789 205.726C71.9574 206.357 71.3239 207.158 70.8814 208.139C70.5661 208.83 71.0925 209.617 71.8648 209.617Z" fill="#9D81FF"/>
<path d="M115.567 202.093C115.567 200.39 116.97 199.012 118.703 199.012H119.287C121.02 199.012 122.423 200.39 122.423 202.093V222.048C122.423 223.75 121.02 225.129 119.287 225.129H118.703C116.97 225.129 115.567 223.75 115.567 222.048C113.511 224.589 110.624 225.862 106.904 225.862C103.361 225.862 100.312 224.538 97.7611 221.891C95.2446 219.211 93.9863 215.936 93.9863 212.07C93.9863 208.239 95.2446 204.984 97.7611 202.303C100.312 199.623 103.361 198.281 106.904 198.281C110.624 198.281 113.514 199.552 115.567 202.093ZM102.916 217.4C104.298 218.759 106.051 219.438 108.177 219.438C110.303 219.438 112.059 218.759 113.439 217.4C114.856 216.007 115.565 214.233 115.565 212.073C115.565 209.916 114.856 208.156 113.439 206.797C112.056 205.405 110.303 204.708 108.177 204.708C106.051 204.708 104.295 205.405 102.916 206.797C101.533 208.156 100.842 209.916 100.842 212.073C100.845 214.231 101.536 216.007 102.916 217.4Z" fill="#9D81FF"/>
<path d="M142.543 212.392L149.034 220.189C150.68 222.165 149.248 225.13 146.65 225.13C145.716 225.13 144.834 224.712 144.25 223.998L136.31 214.266C136.041 213.936 135.5 214.124 135.5 214.544V221.761C135.5 223.623 133.964 225.13 132.072 225.13C130.178 225.13 128.645 223.62 128.645 221.761V191.935C128.645 190.073 130.18 188.566 132.072 188.566C133.967 188.566 135.5 190.076 135.5 191.935V209.209C135.5 209.635 136.046 209.82 136.313 209.485L143.717 200.175C144.302 199.442 145.196 199.013 146.141 199.013H146.353C148.944 199.013 150.376 201.972 148.739 203.947L142.537 211.437C142.312 211.716 142.312 212.117 142.543 212.392Z" fill="#9D81FF"/>
<path d="M159.978 225.132C158.084 225.132 156.551 223.623 156.551 221.764V190.368C156.551 188.507 158.087 187 159.978 187C161.873 187 163.406 188.509 163.406 190.368V221.761C163.406 223.623 161.87 225.132 159.978 225.132Z" fill="#9D81FF"/>
<path d="M181.467 215.493L186.294 201.129C186.72 199.867 187.92 199.012 189.274 199.012H189.858C192.036 199.012 193.552 201.138 192.808 203.15L184.666 225.129C183.283 228.889 181.449 231.615 179.164 233.304C177.761 234.339 176.15 235.026 174.328 235.362C172.407 235.714 170.634 234.242 170.634 232.32V232.05C170.634 230.609 171.664 229.421 173.078 229.049C173.804 228.858 174.444 228.563 174.993 228.162C175.864 227.528 176.59 226.587 177.171 225.339C177.463 224.711 177.463 223.98 177.189 223.344L168.549 203.301C167.672 201.269 169.191 199.015 171.438 199.015H172.046C173.342 199.015 174.504 199.799 174.973 200.987L180.692 215.515C180.83 215.865 181.345 215.854 181.467 215.493Z" fill="#9D81FF"/>
</svg>
