<svg width="79" height="21" viewBox="0 0 79 21" fill="none" xmlns="http://www.w3.org/2000/svg">
<path d="M5.5075 16.3839C4.01331 16.3839 2.75118 16.0558 1.72111 15.3996C1.15162 15.0366 0.672103 14.5979 0.28494 14.0825C-0.228909 13.3983 -0.0264452 12.4268 0.720649 11.9975L0.830759 11.9346C1.44643 11.5809 2.24325 11.7112 2.68488 12.2616C3.34554 13.0853 4.31523 13.4972 5.59393 13.4972C6.40615 13.4972 7.0159 13.3553 7.422 13.0691C7.82811 12.784 8.03176 12.3989 8.03176 11.9148C8.03176 11.3878 7.79259 10.9817 7.31308 10.6966C6.83475 10.3976 5.97873 10.0765 4.7462 9.73441C3.41185 9.33532 2.36047 8.87224 1.59088 8.34517C0.633032 7.64705 0.154705 6.62083 0.154705 5.26649C0.154705 3.89819 0.640138 2.82194 1.61219 2.03773C2.58424 1.22559 3.76586 0.818359 5.15822 0.818359C6.37654 0.818359 7.45752 1.1104 8.39997 1.69449C8.86883 1.98537 9.2856 2.33559 9.65145 2.74631C10.2529 3.42232 10.0718 4.47297 9.28086 4.92209C8.68768 5.25951 7.91573 5.17108 7.46344 4.66379C6.87974 4.00873 6.11252 3.68178 5.15941 3.68178C4.54966 3.68178 4.06422 3.82024 3.70192 4.09832C3.33962 4.3764 3.15847 4.73709 3.15847 5.17807C3.15847 5.64813 3.35383 6.03325 3.74573 6.33228C4.18025 6.6313 4.94984 6.94545 6.05213 7.27356L7.09641 7.61564C7.28466 7.67265 7.61144 7.79366 8.07556 7.97866C8.51127 8.13573 8.82976 8.28583 9.03341 8.42778C9.7438 8.85479 10.2221 9.29692 10.4696 9.75302C10.8461 10.3522 11.0355 11.0573 11.0355 11.8695C11.0355 13.2529 10.5205 14.3501 9.49042 15.1622C8.45917 15.9779 7.13193 16.3839 5.5075 16.3839Z" fill="#59459E"/>
<path d="M19.1921 5.09375C20.6567 5.09375 21.9046 5.64293 22.9347 6.74013C23.9789 7.83733 24.5011 9.17072 24.5011 10.738C24.5011 12.3343 23.9789 13.6747 22.9347 14.7579C21.9188 15.8412 20.6721 16.3834 19.1921 16.3834C17.8317 16.3834 16.7484 15.968 15.9432 15.1372C15.8426 15.0337 15.6674 15.1012 15.6674 15.2443V19.0979C15.6674 19.7948 15.0931 20.3591 14.3839 20.3591H14.1448C13.4356 20.3591 12.8613 19.7948 12.8613 19.0979V6.65403C12.8613 5.95708 13.4356 5.39277 14.1448 5.39277H14.3839C15.0931 5.39277 15.6674 5.95708 15.6674 6.65403C16.495 5.61384 17.6695 5.09375 19.1921 5.09375ZM16.5163 12.9196C17.0822 13.4757 17.7997 13.7538 18.67 13.7538C19.5402 13.7538 20.2577 13.4757 20.8236 12.9196C21.4038 12.3495 21.6939 11.6234 21.6939 10.7391C21.6939 9.85603 21.4038 9.13582 20.8236 8.57965C20.2577 8.00953 19.5402 7.72447 18.67 7.72447C17.7997 7.72447 17.0811 8.00953 16.5163 8.57965C15.9503 9.13582 15.6674 9.85603 15.6674 10.7391C15.6674 11.6223 15.9503 12.3495 16.5163 12.9196Z" fill="#59459E"/>
<path d="M36.0103 11.8713H29.097C28.9762 11.8713 28.885 11.9876 28.9241 12.1005C29.3385 13.2873 30.3378 13.8818 31.922 13.8818C32.6702 13.8818 33.2918 13.7084 33.7867 13.3617C34.2035 13.0697 34.7505 13.0348 35.1945 13.2861C36.0091 13.748 36.0706 14.8894 35.3022 15.4211C34.3752 16.0622 33.2338 16.3834 31.8793 16.3834C30.0809 16.3834 28.6376 15.8493 27.5495 14.78C26.4614 13.7108 25.918 12.3634 25.918 10.7391C25.918 9.1428 26.4543 7.80242 27.5282 6.71919C28.5867 5.63595 29.9648 5.09375 31.6627 5.09375C33.2729 5.09375 34.5859 5.63595 35.6006 6.71919C36.6449 7.80242 37.167 9.1428 37.167 10.7391C37.1646 11.3651 36.6472 11.8713 36.0103 11.8713ZM29.4155 9.73386H33.7595C34.0744 9.73386 34.2876 9.41506 34.1632 9.13116C33.9833 8.71928 33.7263 8.38535 33.3913 8.13054C32.9047 7.76054 32.3281 7.57437 31.6615 7.57437C30.9073 7.57437 30.2833 7.76403 29.7896 8.14101C29.4533 8.39931 29.1941 8.72742 29.0129 9.12884C28.8839 9.41157 29.0993 9.73386 29.4155 9.73386Z" fill="#59459E"/>
<path d="M47.3044 6.65403C47.3044 5.95708 47.8786 5.39277 48.5879 5.39277H48.827C49.5362 5.39277 50.1105 5.95708 50.1105 6.65403V14.8219C50.1105 15.5189 49.5362 16.0832 48.827 16.0832H48.5879C47.8786 16.0832 47.3044 15.5189 47.3044 14.8219C46.4626 15.8621 45.281 16.3834 43.7584 16.3834C42.308 16.3834 41.0601 15.8412 40.0158 14.7579C38.9857 13.6607 38.4707 12.3204 38.4707 10.738C38.4707 9.16956 38.9857 7.83733 40.0158 6.74013C41.0601 5.64293 42.308 5.09375 43.7584 5.09375C45.281 5.09375 46.4638 5.61384 47.3044 6.65403ZM42.1257 12.9196C42.6916 13.4757 43.4091 13.7538 44.2793 13.7538C45.1496 13.7538 45.8682 13.4757 46.433 12.9196C47.0132 12.3495 47.3032 11.6234 47.3032 10.7391C47.3032 9.85604 47.0132 9.13582 46.433 8.57965C45.8671 8.00953 45.1496 7.72447 44.2793 7.72447C43.4091 7.72447 42.6904 8.00953 42.1257 8.57965C41.5597 9.13582 41.2767 9.85604 41.2767 10.7391C41.2779 11.6223 41.5609 12.3495 42.1257 12.9196Z" fill="#59459E"/>
<path d="M58.3473 10.8698L61.0041 14.0613C61.6778 14.87 61.0917 16.0835 60.0285 16.0835C59.6461 16.0835 59.285 15.9125 59.0458 15.6205L55.7958 11.6366C55.6857 11.5016 55.4642 11.5784 55.4642 11.7506V14.7048C55.4642 15.4669 54.8355 16.0835 54.0612 16.0835C53.2857 16.0835 52.6582 15.4657 52.6582 14.7048V2.49596C52.6582 1.73385 53.2869 1.11719 54.0612 1.11719C54.8367 1.11719 55.4642 1.73502 55.4642 2.49596V9.56666C55.4642 9.74119 55.688 9.81682 55.7969 9.67952L58.8279 5.869C59.0671 5.56881 59.433 5.39312 59.8201 5.39312H59.9066C60.9674 5.39312 61.5535 6.60434 60.8833 7.41299L58.3449 10.4789C58.2525 10.5929 58.2525 10.7569 58.3473 10.8698Z" fill="#59459E"/>
<path d="M65.4831 16.0852C64.7076 16.0852 64.0801 15.4673 64.0801 14.7064V1.85533C64.0801 1.09323 64.7088 0.476562 65.4831 0.476562C66.2586 0.476562 66.8861 1.09439 66.8861 1.85533V14.7052C66.8861 15.4673 66.2574 16.0852 65.4831 16.0852Z" fill="#59459E"/>
<path d="M74.2794 12.1406L76.2555 6.26135C76.4296 5.74475 76.9209 5.39453 77.475 5.39453H77.7142C78.6057 5.39453 79.2261 6.26484 78.9219 7.08862L75.5889 16.0849C75.023 17.6243 74.2723 18.7401 73.337 19.4312C72.7628 19.8547 72.1033 20.1363 71.3574 20.2736C70.5712 20.4179 69.8454 19.8152 69.8454 19.0287V18.9181C69.8454 18.3282 70.2669 17.8419 70.8459 17.6894C71.1431 17.6115 71.4047 17.4905 71.6297 17.3264C71.9861 17.067 72.2832 16.6818 72.5212 16.171C72.6408 15.9139 72.6408 15.6149 72.5283 15.3543L68.9918 7.15028C68.633 6.31837 69.2546 5.3957 70.1746 5.3957H70.4232C70.9536 5.3957 71.4296 5.71683 71.6214 6.20318L73.9621 12.1499C74.019 12.293 74.2297 12.2884 74.2794 12.1406Z" fill="#59459E"/>
</svg>
