<svg width="46" height="40" viewBox="0 0 46 40" fill="none" xmlns="http://www.w3.org/2000/svg">
<path opacity="0.4" d="M39.0084 30.3865C35.3828 33.9421 31.5848 35.1662 24.1409 37.5634C17.8999 39.5743 14.7803 40.578 12.4003 39.6527C7.64219 37.8001 6.35766 31.6142 3.82382 19.4045C2.00361 10.6374 2.79879 8.49527 3.657 7.14187C5.76451 3.81574 9.62366 3.0343 15.709 1.7993C19.9333 0.94318 26.5431 -0.397471 32.8471 2.80297C34.6099 3.69734 35.8388 4.68826 37.5126 6.0362C40.8286 8.70839 44.0761 11.3259 45.2309 14.561C47.7647 21.6559 39.685 29.7216 39.0084 30.3865Z" fill="#9D81FF"/>
<path opacity="0.2" d="M43.0366 20.5288C42.5788 26.447 42.0245 33.6092 36.588 37.1576C32.942 39.5383 28.8771 39.134 24.5935 38.7077C22.9494 38.5438 14.6491 37.582 7.14765 30.9899C3.55357 27.8313 0.139278 24.8294 0.0039673 20.4523C-0.120222 16.372 2.68053 13.5013 7.09946 8.97477C10.1671 5.83262 14.9642 0.916297 22.0986 0.109356C24.0931 -0.116514 25.6945 0.043781 27.8706 0.262365C32.1876 0.695891 36.4156 1.12031 39.2349 3.26972C44.0857 6.9638 43.4815 14.7782 43.0366 20.5288Z" fill="#9D81FF"/>
<path d="M33.0488 10.1308C36.7983 13.7111 38.882 17.9945 38.8372 21.6215C38.8344 25.2966 36.7019 28.3166 32.9747 30.4508C29.2476 32.5767 24.8203 33.6012 21.1058 33.8937C17.3451 34.1451 14.2971 33.663 12.2582 31.8117C10.2248 29.9646 9.36956 26.935 9.2396 23.1391C9.15575 19.3857 9.7944 14.8674 11.8152 11.007C13.8262 7.14787 17.0251 4.8695 20.9157 4.74452C24.7644 4.57423 29.3049 6.55459 33.0488 10.1308Z" fill="#9D81FF"/>
</svg>
