<svg width="128" height="128" viewBox="0 0 128 128" fill="none" xmlns="http://www.w3.org/2000/svg">
<circle opacity="0.05" cx="63.9991" cy="63.4366" r="51.4366" fill="#CBBCFF"/>
<circle cx="64.0005" cy="63.4366" r="41.8041" fill="url(#paint0_radial_2402_23962)" stroke="url(#paint1_linear_2402_23962)" stroke-width="0.560891"/>
<circle opacity="0.05" cx="64.0003" cy="63.5394" r="63.5394" fill="#CBBCFF"/>
<path d="M63.2095 66.2688H63.7049C66.4318 66.2688 68.7428 64.5233 69.5566 62.1029C69.6746 61.7506 69.4057 61.3874 69.0296 61.3874H67.5036C67.0191 61.3874 66.6253 60.9998 66.6253 60.5214C66.6253 60.0417 67.0191 59.6527 67.5036 59.6527H68.983C69.4729 59.6527 69.8709 59.2611 69.8709 58.7786C69.8709 58.2935 69.4729 57.9018 68.983 57.9018H67.5036C67.0191 57.9018 66.6253 57.5129 66.6253 57.0345C66.6253 56.5547 67.0191 56.1658 67.5036 56.1658H68.983C69.4729 56.1658 69.8709 55.7742 69.8709 55.2904C69.8709 54.8065 69.4729 54.4149 68.983 54.4149H67.5036C67.0191 54.4149 66.6253 54.0273 66.6253 53.5476V53.5462C66.6253 53.0678 67.0191 52.6802 67.5036 52.6802H69.1079C69.4756 52.6802 69.7405 52.332 69.6403 51.981C68.9116 49.421 66.5306 47.5454 63.7049 47.5454H63.2095C59.8047 47.5454 57.0449 50.2707 57.0449 53.6329V60.1826C57.0449 63.5435 59.8047 66.2688 63.2095 66.2688Z" fill="white"/>
<path d="M74.3477 57.5908C73.5902 57.5908 72.9754 58.1966 72.9754 58.946C72.9754 64.0077 68.8048 68.1261 63.6791 68.1261C58.552 68.1261 54.3814 64.0077 54.3814 58.946C54.3814 58.1966 53.7666 57.5908 53.0091 57.5908C52.2515 57.5908 51.6367 58.1966 51.6367 58.946C51.6367 65.043 56.3109 70.0776 62.3067 70.7538V73.4818C62.3067 74.2299 62.9202 74.837 63.6791 74.837C64.4366 74.837 65.0514 74.2299 65.0514 73.4818V70.7538C71.0458 70.0776 75.7201 65.043 75.7201 58.946C75.7201 58.1966 75.1052 57.5908 74.3477 57.5908Z" fill="white"/>
<defs>
<radialGradient id="paint0_radial_2402_23962" cx="0" cy="0" r="1" gradientUnits="userSpaceOnUse" gradientTransform="translate(64.0005 63.4366) rotate(90) scale(42.0845)">
<stop stop-color="#CBBCFF" stop-opacity="0"/>
<stop offset="1" stop-color="#D9D9D9" stop-opacity="0.26"/>
</radialGradient>
<linearGradient id="paint1_linear_2402_23962" x1="64.0005" y1="21.3521" x2="64.0005" y2="105.521" gradientUnits="userSpaceOnUse">
<stop stop-color="#CBBCFF"/>
<stop offset="1" stop-color="#9D81FF"/>
</linearGradient>
</defs>
</svg>
