<svg width="276" height="74" viewBox="0 0 276 74" fill="none" xmlns="http://www.w3.org/2000/svg">
<rect width="276" height="74" rx="25" fill="#7B63CF"/>
<rect x="10" y="10" width="54" height="54" rx="20" fill="#9D81FF"/>
<path d="M46.3805 26.9531C46.5208 26.9591 46.6143 27.0421 46.6903 27.1727C46.9066 27.5821 47.1346 27.9916 47.3509 28.401C47.4093 28.5137 47.4853 28.5909 47.5964 28.6443C47.9822 28.852 48.3622 29.0656 48.7422 29.2792C48.8825 29.3564 48.9994 29.4513 48.9994 29.6293C49.0052 29.8133 48.8825 29.9142 48.7363 29.9913C48.3563 30.199 47.9764 30.4185 47.5906 30.6262C47.4736 30.6915 47.3918 30.7746 47.3275 30.8932C47.1229 31.279 46.9125 31.6587 46.7137 32.0444C46.6377 32.1928 46.5383 32.3174 46.363 32.3174C46.1759 32.3174 46.0824 32.1928 46.0005 32.0385C45.7959 31.6469 45.5855 31.2612 45.3809 30.8754C45.3283 30.7686 45.2523 30.6915 45.1471 30.6381C44.7495 30.4185 44.3579 30.199 43.9604 29.9854C43.8201 29.9082 43.7207 29.8133 43.7207 29.6412C43.7207 29.4691 43.8201 29.3742 43.9604 29.297C44.3579 29.0834 44.7495 28.8579 45.1471 28.6443C45.2523 28.585 45.3224 28.5137 45.3809 28.4069C45.5972 28.0034 45.8193 27.5999 46.0356 27.1905C46.0999 27.0421 46.2051 26.9531 46.3805 26.9531Z" fill="#CBBCFF"/>
<path d="M27.7299 30.3221C27.7299 30.3993 27.689 30.4527 27.6247 30.4883C27.4143 30.601 27.2097 30.7197 26.9992 30.8324C26.9408 30.8621 26.9057 30.9037 26.8765 30.963C26.7712 31.1647 26.6602 31.3665 26.555 31.5623C26.514 31.6395 26.4673 31.7047 26.3737 31.7047C26.2802 31.7047 26.2334 31.6454 26.1925 31.5683C26.0873 31.3665 25.9762 31.1647 25.871 30.9689C25.8418 30.9096 25.795 30.8681 25.7366 30.8384C25.5378 30.7316 25.3391 30.6188 25.1461 30.512C25.0585 30.4645 25 30.4171 25 30.3162C25 30.2213 25.0585 30.1738 25.1345 30.1382C25.3332 30.0314 25.532 29.9186 25.7366 29.8059C25.7892 29.7762 25.8301 29.7347 25.8652 29.6753C25.9704 29.4736 26.0815 29.2718 26.1925 29.0701C26.2334 28.9929 26.2802 28.9336 26.3679 28.9336C26.4614 28.9336 26.514 28.9929 26.5491 29.0701C26.6543 29.2718 26.7654 29.4736 26.8765 29.6753C26.9057 29.7287 26.9408 29.7703 26.9992 29.7999C27.2097 29.9127 27.4143 30.0314 27.6247 30.1441C27.689 30.1916 27.7299 30.245 27.7299 30.3221Z" fill="#CBBCFF"/>
<path d="M35.3981 23.798C35.4039 23.9048 35.3279 23.9641 35.2344 24.0116C34.9889 24.1481 34.7375 24.2905 34.492 24.421C34.3926 24.4744 34.3283 24.5397 34.2757 24.6406C34.1471 24.8958 34.0068 25.145 33.8782 25.4001C33.8256 25.4951 33.7613 25.5604 33.6443 25.5604C33.5274 25.5604 33.469 25.4832 33.4164 25.3942C33.2878 25.145 33.1475 24.8958 33.0189 24.6406C32.9662 24.5397 32.8961 24.4744 32.8026 24.421C32.5512 24.2846 32.3057 24.1481 32.0543 24.0116C31.9608 23.9582 31.8965 23.8989 31.8965 23.7802C31.8965 23.6615 31.9666 23.6022 32.0602 23.5488C32.3115 23.4123 32.5629 23.2699 32.8143 23.1334C32.9019 23.0859 32.9604 23.0206 33.0072 22.9316C33.1416 22.6765 33.2819 22.4213 33.4164 22.1661C33.4748 22.0712 33.5391 22 33.6502 22C33.7613 22 33.8256 22.0712 33.8782 22.1661C34.0185 22.4272 34.1588 22.6883 34.2991 22.9494C34.34 23.0266 34.3984 23.08 34.4744 23.1274C34.7375 23.2699 34.9947 23.4182 35.2578 23.5606C35.3454 23.6081 35.4039 23.6734 35.3981 23.798Z" fill="#CBBCFF"/>
<path d="M35.9725 43.7212H36.3862C38.6624 43.7212 40.5935 42.2171 41.2732 40.1316C41.3717 39.828 41.1459 39.515 40.8331 39.515H39.5586C39.1529 39.515 38.8251 39.1811 38.8251 38.7689C38.8251 38.3555 39.1529 38.0203 39.5586 38.0203H40.7941C41.2032 38.0203 41.5345 37.6829 41.5345 37.266C41.5345 36.8491 41.2032 36.5116 40.7941 36.5116H39.5586C39.1529 36.5116 38.8251 36.1765 38.8251 35.7643C38.8251 35.3509 39.1529 35.0158 39.5586 35.0158H40.7941C41.2032 35.0158 41.5345 34.6783 41.5345 34.2614C41.5345 33.8446 41.2032 33.5071 40.7941 33.5071H39.5586C39.1529 33.5071 38.8251 33.172 38.8251 32.7586C38.8251 32.3464 39.1529 32.0112 39.5586 32.0112H40.8984C41.2055 32.0112 41.4256 31.7123 41.3431 31.4099C40.7345 29.204 38.746 27.5879 36.3862 27.5879H35.9725C33.129 27.5879 30.8242 29.935 30.8242 32.8333V38.4758C30.8242 41.3729 33.129 43.7212 35.9725 43.7212Z" fill="white"/>
<path d="M45.0898 37.1406C44.4571 37.1406 43.9437 37.6626 43.9437 38.3084C43.9437 42.6698 40.4607 46.2185 36.18 46.2185C31.8982 46.2185 28.4152 42.6698 28.4152 38.3084C28.4152 37.6626 27.9018 37.1406 27.2691 37.1406C26.6365 37.1406 26.123 37.6626 26.123 38.3084C26.123 43.5631 30.0266 47.9012 35.0339 48.4839V50.8334C35.0339 51.478 35.5462 52.0011 36.18 52.0011C36.8127 52.0011 37.3261 51.478 37.3261 50.8334V48.4839C42.3323 47.9012 46.2359 43.5631 46.2359 38.3084C46.2359 37.6626 45.7224 37.1406 45.0898 37.1406Z" fill="#CBBCFF"/>
<path d="M80.201 18.1818H83.804L87.6094 27.4659H87.7713L91.5767 18.1818H95.1797V32H92.3459V23.006H92.2312L88.6552 31.9325H86.7255L83.1495 22.9723H83.0348V32H80.201V18.1818ZM97.5328 32V21.6364H100.407V32H97.5328ZM98.9767 20.3004C98.5493 20.3004 98.1827 20.1587 97.8769 19.8754C97.5755 19.5875 97.4248 19.2434 97.4248 18.843C97.4248 18.4472 97.5755 18.1076 97.8769 17.8242C98.1827 17.5363 98.5493 17.3924 98.9767 17.3924C99.404 17.3924 99.7683 17.5363 100.07 17.8242C100.376 18.1076 100.528 18.4472 100.528 18.843C100.528 19.2434 100.376 19.5875 100.07 19.8754C99.7683 20.1587 99.404 20.3004 98.9767 20.3004ZM105.584 26.0085V32H102.71V21.6364H105.449V23.4648H105.57C105.8 22.8621 106.184 22.3853 106.724 22.0344C107.264 21.6791 107.918 21.5014 108.688 21.5014C109.407 21.5014 110.035 21.6589 110.57 21.9737C111.105 22.2886 111.521 22.7384 111.818 23.3232C112.115 23.9034 112.263 24.5961 112.263 25.4013V32H109.389V25.9141C109.394 25.2798 109.232 24.785 108.903 24.4297C108.575 24.0698 108.123 23.8899 107.547 23.8899C107.16 23.8899 106.819 23.9731 106.522 24.1396C106.229 24.306 106 24.5489 105.833 24.8683C105.672 25.1831 105.588 25.5632 105.584 26.0085ZM114.529 32V21.6364H117.403V32H114.529ZM115.973 20.3004C115.545 20.3004 115.179 20.1587 114.873 19.8754C114.572 19.5875 114.421 19.2434 114.421 18.843C114.421 18.4472 114.572 18.1076 114.873 17.8242C115.179 17.5363 115.545 17.3924 115.973 17.3924C116.4 17.3924 116.764 17.5363 117.066 17.8242C117.372 18.1076 117.525 18.4472 117.525 18.843C117.525 19.2434 117.372 19.5875 117.066 19.8754C116.764 20.1587 116.4 20.3004 115.973 20.3004ZM131.653 22.1559C131.599 21.6116 131.368 21.1888 130.958 20.8874C130.549 20.5861 129.993 20.4354 129.292 20.4354C128.815 20.4354 128.412 20.5028 128.084 20.6378C127.756 20.7682 127.504 20.9504 127.328 21.1843C127.157 21.4182 127.072 21.6836 127.072 21.9805C127.063 22.2279 127.115 22.4438 127.227 22.6282C127.344 22.8126 127.504 22.9723 127.706 23.1072C127.908 23.2377 128.142 23.3524 128.408 23.4513C128.673 23.5458 128.957 23.6268 129.258 23.6942L130.499 23.9911C131.102 24.1261 131.655 24.306 132.159 24.5309C132.663 24.7558 133.099 25.0324 133.468 25.3608C133.837 25.6892 134.123 26.076 134.325 26.5213C134.532 26.9666 134.638 27.4772 134.642 28.0529C134.638 28.8986 134.422 29.6317 133.994 30.2525C133.572 30.8687 132.96 31.3478 132.159 31.6896C131.363 32.027 130.403 32.1957 129.278 32.1957C128.163 32.1957 127.191 32.0247 126.363 31.6829C125.54 31.341 124.897 30.835 124.434 30.1648C123.975 29.4901 123.734 28.6557 123.712 27.6616H126.539C126.57 28.1249 126.703 28.5117 126.937 28.8221C127.175 29.128 127.492 29.3596 127.888 29.517C128.289 29.67 128.741 29.7464 129.244 29.7464C129.739 29.7464 130.169 29.6745 130.533 29.5305C130.902 29.3866 131.188 29.1864 131.39 28.93C131.592 28.6737 131.694 28.379 131.694 28.0462C131.694 27.7358 131.601 27.4749 131.417 27.2635C131.237 27.0521 130.972 26.8722 130.621 26.7237C130.274 26.5753 129.849 26.4403 129.346 26.3189L127.841 25.9411C126.676 25.6577 125.756 25.2146 125.081 24.6119C124.407 24.0091 124.072 23.1972 124.076 22.1761C124.072 21.3395 124.294 20.6085 124.744 19.9833C125.198 19.3581 125.821 18.87 126.613 18.5192C127.405 18.1683 128.304 17.9929 129.312 17.9929C130.337 17.9929 131.233 18.1683 131.997 18.5192C132.766 18.87 133.365 19.3581 133.792 19.9833C134.219 20.6085 134.44 21.3327 134.453 22.1559H131.653ZM136.553 35.8864V21.6364H139.387V23.3771H139.515C139.641 23.0982 139.823 22.8149 140.062 22.527C140.305 22.2346 140.62 21.9917 141.006 21.7983C141.398 21.6004 141.884 21.5014 142.464 21.5014C143.219 21.5014 143.917 21.6993 144.555 22.0952C145.194 22.4865 145.705 23.078 146.087 23.8697C146.469 24.6568 146.661 25.6442 146.661 26.8317C146.661 27.9877 146.474 28.9638 146.1 29.7599C145.732 30.5516 145.228 31.1521 144.589 31.5614C143.955 31.9663 143.244 32.1687 142.457 32.1687C141.899 32.1687 141.425 32.0765 141.033 31.892C140.647 31.7076 140.329 31.476 140.082 31.1971C139.835 30.9137 139.646 30.6281 139.515 30.3402H139.428V35.8864H136.553ZM139.367 26.8182C139.367 27.4344 139.452 27.9719 139.623 28.4308C139.794 28.8896 140.042 29.2472 140.365 29.5036C140.689 29.7554 141.083 29.8814 141.546 29.8814C142.014 29.8814 142.41 29.7532 142.734 29.4968C143.058 29.2359 143.303 28.8761 143.469 28.4173C143.64 27.954 143.725 27.4209 143.725 26.8182C143.725 26.2199 143.642 25.6937 143.476 25.2393C143.309 24.785 143.064 24.4297 142.74 24.1733C142.417 23.9169 142.018 23.7887 141.546 23.7887C141.078 23.7887 140.683 23.9124 140.359 24.1598C140.039 24.4072 139.794 24.758 139.623 25.2124C139.452 25.6667 139.367 26.2019 139.367 26.8182ZM153.3 32.2024C152.234 32.2024 151.316 31.9865 150.547 31.5547C149.782 31.1184 149.193 30.5021 148.779 29.706C148.365 28.9053 148.158 27.9585 148.158 26.8654C148.158 25.7994 148.365 24.8638 148.779 24.0586C149.193 23.2534 149.775 22.6259 150.527 22.1761C151.282 21.7263 152.168 21.5014 153.185 21.5014C153.869 21.5014 154.505 21.6116 155.094 21.832C155.688 22.0479 156.205 22.3741 156.646 22.8104C157.092 23.2467 157.438 23.7955 157.685 24.4567C157.933 25.1134 158.056 25.8826 158.056 26.7642V27.5536H149.305V25.7724H155.351C155.351 25.3585 155.261 24.992 155.081 24.6726C154.901 24.3532 154.651 24.1036 154.332 23.9237C154.017 23.7392 153.651 23.647 153.232 23.647C152.796 23.647 152.409 23.7482 152.072 23.9506C151.739 24.1486 151.478 24.4162 151.289 24.7536C151.1 25.0864 151.003 25.4575 150.999 25.8668V27.5604C150.999 28.0732 151.093 28.5162 151.282 28.8896C151.476 29.2629 151.748 29.5508 152.099 29.7532C152.45 29.9556 152.866 30.0568 153.347 30.0568C153.666 30.0568 153.959 30.0118 154.224 29.9219C154.489 29.8319 154.717 29.697 154.906 29.517C155.094 29.3371 155.238 29.1167 155.337 28.8558L157.996 29.0312C157.861 29.67 157.584 30.2277 157.166 30.7045C156.752 31.1768 156.217 31.5457 155.56 31.8111C154.908 32.072 154.154 32.2024 153.3 32.2024ZM162.887 32.1957C162.226 32.1957 161.637 32.081 161.12 31.8516C160.602 31.6177 160.193 31.2736 159.892 30.8192C159.595 30.3604 159.446 29.7892 159.446 29.1055C159.446 28.5297 159.552 28.0462 159.763 27.6548C159.975 27.2635 160.263 26.9486 160.627 26.7102C160.991 26.4718 161.405 26.2919 161.869 26.1705C162.336 26.049 162.827 25.9635 163.339 25.9141C163.942 25.8511 164.428 25.7926 164.797 25.7386C165.166 25.6802 165.433 25.5947 165.6 25.4822C165.766 25.3698 165.849 25.2034 165.849 24.983V24.9425C165.849 24.5152 165.714 24.1845 165.445 23.9506C165.179 23.7167 164.801 23.5998 164.311 23.5998C163.794 23.5998 163.382 23.7145 163.076 23.9439C162.77 24.1688 162.568 24.4522 162.469 24.794L159.811 24.5781C159.946 23.9484 160.211 23.4041 160.607 22.9453C161.003 22.482 161.513 22.1267 162.138 21.8793C162.768 21.6274 163.497 21.5014 164.325 21.5014C164.9 21.5014 165.451 21.5689 165.978 21.7038C166.508 21.8388 166.978 22.0479 167.388 22.3313C167.802 22.6147 168.128 22.979 168.366 23.4244C168.605 23.8652 168.724 24.3937 168.724 25.0099V32H165.998V30.5629H165.917C165.75 30.8867 165.528 31.1723 165.249 31.4197C164.97 31.6626 164.635 31.8538 164.244 31.9933C163.852 32.1282 163.4 32.1957 162.887 32.1957ZM163.711 30.212C164.133 30.212 164.507 30.1288 164.831 29.9624C165.154 29.7914 165.409 29.562 165.593 29.2741C165.777 28.9863 165.87 28.6602 165.87 28.2958V27.196C165.78 27.2545 165.656 27.3085 165.499 27.358C165.346 27.4029 165.172 27.4457 164.979 27.4862C164.786 27.5221 164.592 27.5559 164.399 27.5874C164.205 27.6143 164.03 27.6391 163.873 27.6616C163.535 27.7111 163.241 27.7898 162.989 27.8977C162.737 28.0057 162.541 28.1519 162.402 28.3363C162.262 28.5162 162.192 28.7411 162.192 29.011C162.192 29.4023 162.334 29.7015 162.618 29.9084C162.905 30.1108 163.27 30.212 163.711 30.212ZM173.558 29.0178L173.565 25.57H173.983L177.303 21.6364H180.602L176.142 26.8452H175.461L173.558 29.0178ZM170.954 32V18.1818H173.828V32H170.954ZM177.431 32L174.381 27.4862L176.297 25.4553L180.798 32H177.431ZM182.012 32V21.6364H184.887V32H182.012ZM183.456 20.3004C183.029 20.3004 182.662 20.1587 182.356 19.8754C182.055 19.5875 181.904 19.2434 181.904 18.843C181.904 18.4472 182.055 18.1076 182.356 17.8242C182.662 17.5363 183.029 17.3924 183.456 17.3924C183.883 17.3924 184.248 17.5363 184.549 17.8242C184.855 18.1076 185.008 18.4472 185.008 18.843C185.008 19.2434 184.855 19.5875 184.549 19.8754C184.248 20.1587 183.883 20.3004 183.456 20.3004ZM190.063 26.0085V32H187.189V21.6364H189.928V23.4648H190.05C190.279 22.8621 190.664 22.3853 191.204 22.0344C191.743 21.6791 192.398 21.5014 193.167 21.5014C193.887 21.5014 194.514 21.6589 195.049 21.9737C195.585 22.2886 196.001 22.7384 196.298 23.3232C196.595 23.9034 196.743 24.5961 196.743 25.4013V32H193.869V25.9141C193.873 25.2798 193.711 24.785 193.383 24.4297C193.055 24.0698 192.602 23.8899 192.027 23.8899C191.64 23.8899 191.298 23.9731 191.001 24.1396C190.709 24.306 190.479 24.5489 190.313 24.8683C190.151 25.1831 190.068 25.5632 190.063 26.0085ZM203.677 36.1023C202.746 36.1023 201.948 35.9741 201.282 35.7177C200.621 35.4658 200.095 35.1217 199.703 34.6854C199.312 34.2491 199.058 33.7588 198.941 33.2145L201.599 32.8569C201.68 33.0638 201.808 33.2572 201.984 33.4371C202.159 33.6171 202.391 33.761 202.679 33.869C202.971 33.9814 203.327 34.0376 203.745 34.0376C204.37 34.0376 204.885 33.8847 205.29 33.5788C205.699 33.2775 205.904 32.7714 205.904 32.0607V30.1648H205.782C205.657 30.4527 205.468 30.7248 205.216 30.9812C204.964 31.2376 204.64 31.4467 204.244 31.6087C203.848 31.7706 203.376 31.8516 202.827 31.8516C202.049 31.8516 201.341 31.6716 200.702 31.3118C200.068 30.9474 199.562 30.3919 199.184 29.6452C198.81 28.8941 198.624 27.945 198.624 26.7979C198.624 25.6239 198.815 24.6433 199.197 23.8562C199.58 23.069 200.088 22.4798 200.722 22.0884C201.361 21.6971 202.06 21.5014 202.82 21.5014C203.401 21.5014 203.887 21.6004 204.278 21.7983C204.669 21.9917 204.984 22.2346 205.222 22.527C205.465 22.8149 205.652 23.0982 205.782 23.3771H205.89V21.6364H208.744V32.1012C208.744 32.9828 208.529 33.7205 208.097 34.3143C207.665 34.908 207.067 35.3533 206.302 35.6502C205.542 35.9516 204.667 36.1023 203.677 36.1023ZM203.738 29.6925C204.201 29.6925 204.593 29.5778 204.912 29.3484C205.236 29.1145 205.483 28.7816 205.654 28.3498C205.83 27.9135 205.917 27.3917 205.917 26.7844C205.917 26.1772 205.832 25.6509 205.661 25.2056C205.49 24.7558 205.243 24.4072 204.919 24.1598C204.595 23.9124 204.201 23.7887 203.738 23.7887C203.266 23.7887 202.868 23.9169 202.544 24.1733C202.22 24.4252 201.975 24.776 201.808 25.2259C201.642 25.6757 201.559 26.1952 201.559 26.7844C201.559 27.3827 201.642 27.9 201.808 28.3363C201.979 28.7681 202.224 29.1032 202.544 29.3416C202.868 29.5755 203.266 29.6925 203.738 29.6925ZM79.6747 43.5906V41.1818H91.0234V43.5906H86.793V55H83.9052V43.5906H79.6747ZM96.0585 55.2024C94.9925 55.2024 94.0748 54.9865 93.3057 54.5547C92.541 54.1184 91.9517 53.5021 91.5379 52.706C91.1241 51.9053 90.9172 50.9585 90.9172 49.8654C90.9172 48.7994 91.1241 47.8638 91.5379 47.0586C91.9517 46.2534 92.5342 45.6259 93.2854 45.1761C94.0411 44.7263 94.9272 44.5014 95.9438 44.5014C96.6275 44.5014 97.264 44.6116 97.8532 44.832C98.447 45.0479 98.9643 45.3741 99.4051 45.8104C99.8504 46.2467 100.197 46.7955 100.444 47.4567C100.692 48.1134 100.815 48.8826 100.815 49.7642V50.5536H92.0642V48.7724H98.1096C98.1096 48.3585 98.0197 47.992 97.8398 47.6726C97.6598 47.3532 97.4102 47.1036 97.0908 46.9237C96.776 46.7392 96.4094 46.647 95.991 46.647C95.5547 46.647 95.1679 46.7482 94.8305 46.9506C94.4977 47.1486 94.2368 47.4162 94.0479 47.7536C93.8589 48.0864 93.7622 48.4575 93.7577 48.8668V50.5604C93.7577 51.0732 93.8522 51.5162 94.0411 51.8896C94.2345 52.2629 94.5067 52.5508 94.8575 52.7532C95.2084 52.9556 95.6244 53.0568 96.1057 53.0568C96.4251 53.0568 96.7175 53.0118 96.9829 52.9219C97.2483 52.8319 97.4754 52.697 97.6643 52.517C97.8532 52.3371 97.9972 52.1167 98.0961 51.8558L100.755 52.0312C100.62 52.67 100.343 53.2277 99.9246 53.7045C99.5108 54.1768 98.9755 54.5457 98.3188 54.8111C97.6666 55.072 96.9131 55.2024 96.0585 55.2024ZM111.314 47.5916L108.682 47.7536C108.637 47.5286 108.541 47.3262 108.392 47.1463C108.244 46.9619 108.048 46.8157 107.805 46.7077C107.567 46.5953 107.281 46.5391 106.948 46.5391C106.503 46.5391 106.128 46.6335 105.822 46.8224C105.516 47.0069 105.363 47.2543 105.363 47.5646C105.363 47.812 105.462 48.0212 105.66 48.1921C105.858 48.363 106.197 48.5002 106.679 48.6037L108.554 48.9815C109.562 49.1884 110.313 49.5213 110.808 49.9801C111.303 50.4389 111.55 51.0417 111.55 51.7884C111.55 52.4676 111.35 53.0636 110.949 53.5763C110.554 54.0891 110.009 54.4895 109.317 54.7773C108.628 55.0607 107.835 55.2024 106.935 55.2024C105.563 55.2024 104.47 54.9168 103.656 54.3455C102.846 53.7698 102.372 52.9871 102.232 51.9975L105.059 51.8491C105.145 52.2674 105.352 52.5868 105.68 52.8072C106.008 53.0231 106.429 53.131 106.942 53.131C107.445 53.131 107.85 53.0343 108.156 52.8409C108.467 52.643 108.624 52.3888 108.628 52.0785C108.624 51.8176 108.514 51.6039 108.298 51.4375C108.082 51.2666 107.749 51.1361 107.299 51.0462L105.505 50.6886C104.492 50.4862 103.739 50.1353 103.244 49.636C102.754 49.1367 102.509 48.5002 102.509 47.7266C102.509 47.0608 102.689 46.4873 103.049 46.006C103.413 45.5247 103.923 45.1536 104.58 44.8928C105.241 44.6319 106.015 44.5014 106.901 44.5014C108.21 44.5014 109.24 44.7781 109.991 45.3313C110.747 45.8846 111.188 46.638 111.314 47.5916ZM118.872 44.6364V46.7955H112.631V44.6364H118.872ZM114.048 42.1534H116.922V51.8153C116.922 52.0807 116.963 52.2876 117.044 52.4361C117.125 52.58 117.237 52.6812 117.381 52.7397C117.53 52.7982 117.701 52.8274 117.894 52.8274C118.029 52.8274 118.164 52.8162 118.299 52.7937C118.434 52.7667 118.537 52.7464 118.609 52.733L119.061 54.8718C118.917 54.9168 118.715 54.9685 118.454 55.027C118.193 55.09 117.876 55.1282 117.503 55.1417C116.81 55.1687 116.203 55.0765 115.681 54.8651C115.164 54.6536 114.761 54.3253 114.473 53.88C114.185 53.4347 114.044 52.8724 114.048 52.1932V42.1534Z" fill="white"/>
<rect x="226" y="10" width="40" height="54" rx="15" fill="#9D81FF"/>
<path d="M243 30L249 36.9994L243 44" stroke="white" stroke-linecap="round" stroke-linejoin="round"/>
</svg>
