<svg width="100" height="30" viewBox="0 0 100 30" fill="none" xmlns="http://www.w3.org/2000/svg">
<path opacity="0.4" d="M29.2573 22.7908C26.5381 25.4576 23.6896 26.3756 18.1066 28.1735C13.4259 29.6817 11.0862 30.4345 9.30121 29.7405C5.73262 28.3511 4.76922 23.7116 2.86884 14.5543C1.50368 7.97902 2.10007 6.37243 2.74372 5.35738C4.32436 2.86278 7.21872 2.2767 11.7827 1.35045C14.9509 0.708362 19.9083 -0.297127 24.6363 2.1032C25.9584 2.77398 26.8801 3.51717 28.1354 4.52812C30.6224 6.53227 33.058 8.49543 33.9241 10.9217C35.8245 16.2429 29.7647 22.2922 29.2573 22.7908Z" fill="white"/>
<path opacity="0.2" d="M32.2775 15.3966C31.9341 19.8352 31.5184 25.2069 27.441 27.8682C24.7065 29.6538 21.6578 29.3505 18.4451 29.0308C17.212 28.9078 10.9868 28.1865 5.36074 23.2424C2.66517 20.8735 0.104459 18.6221 0.00297548 15.3392C-0.0901668 12.279 2.0104 10.126 5.32459 6.73108C7.62535 4.37447 11.2231 0.687223 16.574 0.0820172C18.0698 -0.0873857 19.2709 0.0328358 20.903 0.196774C24.1407 0.521918 27.3117 0.840232 29.4262 2.45229C33.0643 5.22285 32.6111 11.0836 32.2775 15.3966Z" fill="white"/>
<path d="M24.7881 7.59808C27.6002 10.2833 29.1629 13.4959 29.1294 16.2162C29.1273 18.9725 27.5279 21.2374 24.7325 22.8381C21.9372 24.4325 18.6167 25.2009 15.8308 25.4203C13.0103 25.6088 10.7243 25.2473 9.19511 23.8588C7.67009 22.4734 7.02864 20.2013 6.93116 17.3543C6.86827 14.5393 7.34727 11.1506 8.86286 8.25523C10.3711 5.36091 12.7703 3.65212 15.6882 3.55839C18.5748 3.43067 21.9801 4.91594 24.7881 7.59808Z" fill="white"/>
<path d="M44.4216 19.7875C43.301 19.7875 42.3544 19.5414 41.5819 19.0492C41.1547 18.7769 40.7951 18.4479 40.5047 18.0614C40.1193 17.5483 40.2712 16.8196 40.8315 16.4976L40.9141 16.4505C41.3758 16.1852 41.9735 16.2829 42.3047 16.6957C42.8002 17.3135 43.5274 17.6224 44.4865 17.6224C45.0956 17.6224 45.5529 17.516 45.8575 17.3013C46.1621 17.0875 46.3148 16.7987 46.3148 16.4356C46.3148 16.0403 46.1355 15.7358 45.7758 15.522C45.4171 15.2977 44.7751 15.0569 43.8507 14.8003C42.8499 14.501 42.0614 14.1537 41.4842 13.7584C40.7658 13.2348 40.407 12.4651 40.407 11.4494C40.407 10.4232 40.7711 9.61597 41.5002 9.02781C42.2292 8.41871 43.1154 8.11328 44.1597 8.11328C45.0734 8.11328 45.8842 8.33231 46.591 8.77038C46.9426 8.98854 47.2552 9.2512 47.5296 9.55924C47.9807 10.0662 47.8448 10.8542 47.2517 11.1911C46.8068 11.4441 46.2278 11.3778 45.8886 10.9974C45.4508 10.5061 44.8754 10.2608 44.1606 10.2608C43.7033 10.2608 43.3392 10.3647 43.0675 10.5733C42.7957 10.7818 42.6599 11.0523 42.6599 11.3831C42.6599 11.7356 42.8064 12.0245 43.1003 12.2487C43.4262 12.473 44.0034 12.7086 44.8301 12.9547L45.6133 13.2112C45.7545 13.254 45.9996 13.3448 46.3477 13.4835C46.6745 13.6013 46.9133 13.7139 47.0661 13.8203C47.5989 14.1406 47.9576 14.4722 48.1432 14.8143C48.4256 15.2637 48.5677 15.7925 48.5677 16.4016C48.5677 17.4392 48.1814 18.2621 47.4088 18.8712C46.6354 19.4829 45.64 19.7875 44.4216 19.7875Z" fill="white"/>
<path d="M54.6856 11.3203C55.784 11.3203 56.72 11.7322 57.4925 12.5551C58.2757 13.378 58.6673 14.378 58.6673 15.5535C58.6673 16.7507 58.2757 17.756 57.4925 18.5685C56.7306 19.3809 55.7956 19.7875 54.6856 19.7875C53.6653 19.7875 52.8528 19.476 52.2489 18.8529C52.1735 18.7753 52.042 18.8259 52.042 18.9332V21.8234C52.042 22.3461 51.6114 22.7693 51.0795 22.7693H50.9001C50.3682 22.7693 49.9375 22.3461 49.9375 21.8234V12.4905C49.9375 11.9678 50.3682 11.5446 50.9001 11.5446H51.0795C51.6114 11.5446 52.042 11.9678 52.042 12.4905C52.6627 11.7104 53.5436 11.3203 54.6856 11.3203ZM52.6787 17.1897C53.1032 17.6068 53.6413 17.8154 54.294 17.8154C54.9466 17.8154 55.4848 17.6068 55.9092 17.1897C56.3443 16.7621 56.5619 16.2176 56.5619 15.5544C56.5619 14.892 56.3443 14.3519 55.9092 13.9347C55.4848 13.5071 54.9466 13.2934 54.294 13.2934C53.6413 13.2934 53.1023 13.5071 52.6787 13.9347C52.2543 14.3519 52.042 14.892 52.042 15.5544C52.042 16.2167 52.2543 16.7621 52.6787 17.1897Z" fill="white"/>
<path d="M67.2997 16.4034H62.1147C62.0241 16.4034 61.9558 16.4907 61.9851 16.5753C62.2959 17.4654 63.0453 17.9114 64.2335 17.9114C64.7947 17.9114 65.2609 17.7813 65.632 17.5213C65.9446 17.3023 66.3549 17.2761 66.6879 17.4646C67.2988 17.811 67.345 18.6671 66.7687 19.0659C66.0734 19.5467 65.2174 19.7875 64.2015 19.7875C62.8526 19.7875 61.7702 19.387 60.9541 18.585C60.1381 17.7831 59.7305 16.7726 59.7305 15.5544C59.7305 14.3571 60.1327 13.3518 60.9381 12.5394C61.732 11.727 62.7656 11.3203 64.039 11.3203C65.2467 11.3203 66.2314 11.727 66.9924 12.5394C67.7757 13.3518 68.1673 14.3571 68.1673 15.5544C68.1655 16.0238 67.7774 16.4034 67.2997 16.4034ZM62.3536 14.8004H65.6116C65.8478 14.8004 66.0077 14.5613 65.9144 14.3484C65.7794 14.0395 65.5868 13.789 65.3355 13.5979C64.9705 13.3204 64.538 13.1808 64.0381 13.1808C63.4725 13.1808 63.0045 13.323 62.6342 13.6058C62.382 13.7995 62.1875 14.0456 62.0517 14.3466C61.9549 14.5587 62.1165 14.8004 62.3536 14.8004Z" fill="white"/>
<path d="M75.7698 12.4905C75.7698 11.9678 76.2005 11.5446 76.7324 11.5446H76.9118C77.4437 11.5446 77.8743 11.9678 77.8743 12.4905V18.6165C77.8743 19.1392 77.4437 19.5624 76.9118 19.5624H76.7324C76.2005 19.5624 75.7698 19.1392 75.7698 18.6165C75.1385 19.3966 74.2522 19.7875 73.1103 19.7875C72.0225 19.7875 71.0866 19.3809 70.3034 18.5685C69.5308 17.7456 69.1445 16.7403 69.1445 15.5535C69.1445 14.3772 69.5308 13.378 70.3034 12.5551C71.0866 11.7322 72.0225 11.3203 73.1103 11.3203C74.2522 11.3203 75.1393 11.7104 75.7698 12.4905ZM71.8858 17.1897C72.3102 17.6068 72.8483 17.8154 73.501 17.8154C74.1537 17.8154 74.6927 17.6068 75.1163 17.1897C75.5514 16.7621 75.7689 16.2176 75.7689 15.5544C75.7689 14.892 75.5514 14.3519 75.1163 13.9347C74.6918 13.5071 74.1537 13.2934 73.501 13.2934C72.8483 13.2934 72.3093 13.5071 71.8858 13.9347C71.4613 14.3519 71.2491 14.892 71.2491 15.5544C71.25 16.2167 71.4622 16.7621 71.8858 17.1897Z" fill="white"/>
<path d="M84.05 15.6524L86.0426 18.046C86.5479 18.6525 86.1083 19.5627 85.3109 19.5627C85.0241 19.5627 84.7533 19.4344 84.5739 19.2153L82.1364 16.2274C82.0538 16.1262 81.8877 16.1838 81.8877 16.3129V18.5286C81.8877 19.1002 81.4162 19.5627 80.8355 19.5627C80.2538 19.5627 79.7832 19.0993 79.7832 18.5286V9.37197C79.7832 8.80039 80.2547 8.33789 80.8355 8.33789C81.4171 8.33789 81.8877 8.80126 81.8877 9.37197V14.675C81.8877 14.8059 82.0556 14.8626 82.1373 14.7596L84.4105 11.9017C84.5899 11.6766 84.8643 11.5448 85.1546 11.5448H85.2195C86.0151 11.5448 86.4547 12.4533 85.9521 13.0597L84.0482 15.3591C83.9789 15.4447 83.979 15.5677 84.05 15.6524Z" fill="white"/>
<path d="M89.4038 19.5639C88.8222 19.5639 88.3516 19.1005 88.3516 18.5298V8.8915C88.3516 8.31992 88.8231 7.85742 89.4038 7.85742C89.9855 7.85742 90.4561 8.32079 90.4561 8.8915V18.5289C90.4561 19.1005 89.9846 19.5639 89.4038 19.5639Z" fill="white"/>
<path d="M96.0001 16.6045L97.4822 12.195C97.6127 11.8076 97.9812 11.5449 98.3968 11.5449H98.5762C99.2448 11.5449 99.7101 12.1977 99.4819 12.8155L96.9822 19.5627C96.5578 20.7172 95.9948 21.5541 95.2933 22.0724C94.8626 22.3901 94.368 22.6013 93.8086 22.7042C93.2189 22.8124 92.6746 22.3604 92.6746 21.7705V21.6876C92.6746 21.2452 92.9907 20.8804 93.4249 20.7661C93.6478 20.7076 93.8441 20.6169 94.0128 20.4938C94.2801 20.2992 94.503 20.0104 94.6814 19.6273C94.7711 19.4345 94.7711 19.2102 94.6868 19.0147L92.0344 12.8617C91.7653 12.2378 92.2315 11.5458 92.9215 11.5458H93.1079C93.5058 11.5458 93.8627 11.7866 94.0066 12.1514L95.7621 16.6115C95.8048 16.7188 95.9628 16.7153 96.0001 16.6045Z" fill="white"/>
</svg>
