<svg width="137" height="169" viewBox="0 0 137 169" fill="none" xmlns="http://www.w3.org/2000/svg">
<path d="M135.299 121.971C133.984 127.012 131.053 131.642 126.533 134.957L91.4919 160.71C77.3552 171.093 58.5335 171.093 44.3968 160.71L10.2329 135.56C-2.50666 126.19 -2.50666 106.327 10.2329 96.9574L68.8347 53.8347L109.3 83.6151C106.067 85.6699 68.2046 108.382 77.7661 121.615C87.7386 135.423 112.615 112.546 123.985 112.217C135.327 111.889 135.217 122.08 135.217 122.08C135.217 122.08 135.245 122.08 135.299 121.971Z" fill="url(#paint0_linear_1044_6121)"/>
<path d="M125.847 71.5606L109.546 83.5604C109.519 83.533 109.519 83.533 109.519 83.533L109.3 83.67C109.3 83.67 68.2045 108.437 77.766 121.669C78.2865 122.382 78.8344 122.984 79.4098 123.505L67.2456 114.628L9.5752 72.2181C-3.19173 62.821 -3.19173 42.9583 9.5752 33.5611L44.561 7.8081C58.6978 -2.6027 77.5194 -2.6027 91.6836 7.8081L125.875 32.9584C138.614 42.3281 138.614 62.1909 125.847 71.5606Z" fill="url(#paint1_linear_1044_6121)"/>
<path d="M135.3 121.971C135.245 122.08 135.218 122.135 135.218 122.135C135.218 122.135 135.328 111.943 123.985 112.272C113.218 112.574 90.2598 133.176 79.4381 123.505C78.8627 122.984 78.2874 122.382 77.7943 121.669C68.2328 108.437 109.328 83.6699 109.328 83.6699L109.547 83.533C109.547 83.533 109.547 83.533 109.575 83.5604C110.342 84.1357 121.985 92.7383 122.013 92.7657L126.725 96.2177C132.752 100.656 135.793 107.587 136.122 114.491C136.204 117.012 135.958 119.532 135.3 121.971Z" fill="#59459E"/>
<defs>
<linearGradient id="paint0_linear_1044_6121" x1="36.6533" y1="161.77" x2="103.021" y2="66.0376" gradientUnits="userSpaceOnUse">
<stop offset="0.0572" stop-color="#9D81FF"/>
<stop offset="0.0656" stop-color="#9D81FF"/>
<stop offset="0.4168" stop-color="#9D81FF"/>
<stop offset="0.729" stop-color="#6B55B8"/>
<stop offset="0.8374" stop-color="#59459E"/>
<stop offset="0.9376" stop-color="#59459E"/>
</linearGradient>
<linearGradient id="paint1_linear_1044_6121" x1="95.8194" y1="10.0812" x2="24.3459" y2="118.124" gradientUnits="userSpaceOnUse">
<stop stop-color="#9D81FF"/>
<stop offset="0.5679" stop-color="#9D81FF"/>
<stop offset="0.6747" stop-color="#8F75EC"/>
<stop offset="0.8911" stop-color="#6C56BA"/>
<stop offset="1" stop-color="#59459E"/>
</linearGradient>
</defs>
</svg>
