<svg width="382" height="112" viewBox="0 0 382 112" fill="none" xmlns="http://www.w3.org/2000/svg">
<rect width="382" height="112" rx="10" fill="#9D81FF"/>
<circle cx="43.5" cy="94.5" r="1.5" fill="white"/>
<circle cx="70.5" cy="92.5" r="0.5" fill="white"/>
<circle cx="20" cy="75" r="2" fill="white"/>
<circle cx="58.5" cy="56.5" r="31.5" fill="white"/>
<circle cx="89" cy="87" r="1" fill="white"/>
<circle cx="92" cy="65" r="1" fill="white"/>
<circle cx="16.5" cy="49.5" r="0.5" fill="white"/>
<path d="M65.8892 59.092C65.5439 59.4267 65.3852 59.9107 65.4639 60.3854L66.6492 66.9454C66.7492 67.5014 66.5146 68.064 66.0492 68.3854C65.5932 68.7187 64.9866 68.7587 64.4892 68.492L58.5839 65.412C58.3786 65.3027 58.1506 65.244 57.9172 65.2374H57.5559C57.4306 65.256 57.3079 65.296 57.1959 65.3574L51.2892 68.452C50.9972 68.5987 50.6666 68.6507 50.3426 68.5987C49.5532 68.4494 49.0266 67.6974 49.1559 66.904L50.3426 60.344C50.4212 59.8654 50.2626 59.3787 49.9172 59.0387L45.1026 54.372C44.6999 53.9814 44.5599 53.3947 44.7439 52.8654C44.9226 52.3374 45.3786 51.952 45.9292 51.8654L52.5559 50.904C53.0599 50.852 53.5026 50.5454 53.7292 50.092L56.6492 44.1054C56.7186 43.972 56.8079 43.8494 56.9159 43.7454L57.0359 43.652C57.0986 43.5827 57.1706 43.5254 57.2506 43.4787L57.3959 43.4254L57.6226 43.332H58.1839C58.6852 43.384 59.1266 43.684 59.3572 44.132L62.3159 50.092C62.5292 50.528 62.9439 50.8307 63.4226 50.904L70.0492 51.8654C70.6092 51.9454 71.0772 52.332 71.2626 52.8654C71.4372 53.4 71.2866 53.9867 70.8759 54.372L65.8892 59.092Z" fill="url(#paint0_linear_2402_31462)"/>
<circle cx="95.5" cy="28.5" r="3.5" fill="white"/>
<circle cx="63" cy="18" r="1" fill="white"/>
<circle cx="24.5" cy="20.5" r="4.5" fill="white"/>
<path d="M125.249 26.4545H128.324V35.9006C128.324 36.9612 128.071 37.8892 127.564 38.6847C127.062 39.4801 126.359 40.1004 125.455 40.5455C124.55 40.9858 123.497 41.206 122.294 41.206C121.087 41.206 120.031 40.9858 119.126 40.5455C118.222 40.1004 117.519 39.4801 117.017 38.6847C116.515 37.8892 116.264 36.9612 116.264 35.9006V26.4545H119.339V35.6378C119.339 36.1918 119.46 36.6842 119.702 37.1151C119.948 37.5459 120.294 37.8845 120.739 38.1307C121.184 38.3769 121.702 38.5 122.294 38.5C122.891 38.5 123.409 38.3769 123.849 38.1307C124.295 37.8845 124.638 37.5459 124.879 37.1151C125.125 36.6842 125.249 36.1918 125.249 35.6378V26.4545ZM130.797 45.0909V30.0909H133.78V31.9233H133.915C134.048 31.6297 134.239 31.3314 134.49 31.0284C134.746 30.7206 135.078 30.465 135.485 30.2614C135.897 30.053 136.408 29.9489 137.019 29.9489C137.814 29.9489 138.548 30.1572 139.221 30.5739C139.893 30.9858 140.43 31.6084 140.833 32.4418C141.235 33.2704 141.436 34.3097 141.436 35.5597C141.436 36.7765 141.24 37.804 140.847 38.642C140.459 39.4754 139.928 40.1075 139.256 40.5384C138.588 40.9645 137.84 41.1776 137.012 41.1776C136.425 41.1776 135.925 41.0805 135.513 40.8864C135.106 40.6922 134.772 40.4484 134.512 40.1548C134.251 39.8565 134.052 39.5559 133.915 39.2528H133.823V45.0909H130.797ZM133.759 35.5455C133.759 36.1941 133.849 36.7599 134.029 37.2429C134.209 37.7259 134.469 38.1023 134.81 38.3722C135.151 38.6373 135.565 38.7699 136.053 38.7699C136.545 38.7699 136.962 38.6349 137.303 38.3651C137.644 38.0904 137.902 37.7116 138.077 37.2287C138.257 36.741 138.347 36.1799 138.347 35.5455C138.347 34.9157 138.259 34.3617 138.084 33.8835C137.909 33.4053 137.651 33.0312 137.31 32.7614C136.969 32.4915 136.55 32.3565 136.053 32.3565C135.56 32.3565 135.144 32.4867 134.803 32.7472C134.467 33.0076 134.209 33.3769 134.029 33.8551C133.849 34.3333 133.759 34.8968 133.759 35.5455ZM148.368 45.3182C147.388 45.3182 146.548 45.1832 145.847 44.9134C145.151 44.6482 144.597 44.286 144.185 43.8267C143.773 43.3674 143.506 42.8513 143.382 42.2784L146.181 41.902C146.266 42.1198 146.401 42.3234 146.586 42.5128C146.77 42.7022 147.014 42.8537 147.317 42.9673C147.625 43.0857 147.999 43.1449 148.439 43.1449C149.097 43.1449 149.64 42.9839 150.066 42.6619C150.497 42.3447 150.712 41.812 150.712 41.0639V39.0682H150.584C150.452 39.3712 150.253 39.6577 149.988 39.9276C149.722 40.1974 149.382 40.4176 148.965 40.5881C148.548 40.7585 148.051 40.8438 147.473 40.8438C146.654 40.8438 145.908 40.6544 145.236 40.2756C144.569 39.892 144.036 39.3073 143.638 38.5213C143.245 37.7306 143.049 36.7315 143.049 35.5241C143.049 34.2884 143.25 33.2562 143.652 32.4276C144.055 31.599 144.59 30.9787 145.257 30.5668C145.93 30.1548 146.666 29.9489 147.466 29.9489C148.077 29.9489 148.588 30.053 149 30.2614C149.412 30.465 149.744 30.7206 149.995 31.0284C150.25 31.3314 150.447 31.6297 150.584 31.9233H150.698V30.0909H153.702V41.1065C153.702 42.0346 153.475 42.8111 153.02 43.4361C152.566 44.0611 151.936 44.5298 151.131 44.8423C150.331 45.1596 149.41 45.3182 148.368 45.3182ZM148.432 38.571C148.92 38.571 149.332 38.4503 149.668 38.2088C150.009 37.9626 150.269 37.6122 150.449 37.1577C150.634 36.6984 150.726 36.1491 150.726 35.5099C150.726 34.8707 150.636 34.3168 150.456 33.848C150.276 33.3745 150.016 33.0076 149.675 32.7472C149.334 32.4867 148.92 32.3565 148.432 32.3565C147.935 32.3565 147.516 32.4915 147.175 32.7614C146.834 33.0265 146.576 33.3958 146.401 33.8693C146.226 34.3428 146.138 34.8897 146.138 35.5099C146.138 36.1397 146.226 36.6842 146.401 37.1435C146.581 37.598 146.839 37.9508 147.175 38.2017C147.516 38.4479 147.935 38.571 148.432 38.571ZM156.11 41V30.0909H159.043V31.9943H159.157C159.355 31.3172 159.689 30.8059 160.158 30.4602C160.627 30.1098 161.167 29.9347 161.777 29.9347C161.929 29.9347 162.092 29.9441 162.267 29.9631C162.443 29.982 162.596 30.008 162.729 30.0412V32.7259C162.587 32.6832 162.391 32.6454 162.14 32.6122C161.889 32.5791 161.659 32.5625 161.451 32.5625C161.006 32.5625 160.608 32.6596 160.257 32.8537C159.912 33.0431 159.637 33.3082 159.434 33.6491C159.235 33.9901 159.135 34.383 159.135 34.8281V41H156.11ZM167.092 41.206C166.396 41.206 165.775 41.0852 165.231 40.8438C164.686 40.5975 164.255 40.2353 163.938 39.7571C163.626 39.2741 163.469 38.6728 163.469 37.9531C163.469 37.3471 163.581 36.8381 163.803 36.4261C164.026 36.0142 164.329 35.6828 164.712 35.4318C165.096 35.1809 165.531 34.9915 166.019 34.8636C166.512 34.7358 167.028 34.6458 167.567 34.5938C168.202 34.5275 168.713 34.4659 169.102 34.4091C169.49 34.3475 169.772 34.2576 169.947 34.1392C170.122 34.0208 170.21 33.8456 170.21 33.6136V33.571C170.21 33.1212 170.067 32.7732 169.783 32.527C169.504 32.2808 169.106 32.1577 168.59 32.1577C168.046 32.1577 167.612 32.2784 167.29 32.5199C166.969 32.7566 166.755 33.0549 166.651 33.4148L163.853 33.1875C163.995 32.5246 164.274 31.9517 164.691 31.4688C165.108 30.9811 165.645 30.607 166.303 30.3466C166.966 30.0814 167.733 29.9489 168.604 29.9489C169.21 29.9489 169.79 30.0199 170.344 30.1619C170.903 30.304 171.398 30.5241 171.829 30.8224C172.264 31.1207 172.608 31.5043 172.859 31.973C173.11 32.437 173.235 32.9934 173.235 33.642V41H170.366V39.4872H170.281C170.105 39.8281 169.871 40.1288 169.577 40.3892C169.284 40.6449 168.931 40.8461 168.519 40.9929C168.107 41.1349 167.631 41.206 167.092 41.206ZM167.958 39.1179C168.403 39.1179 168.796 39.0303 169.137 38.8551C169.478 38.6752 169.746 38.4337 169.94 38.1307C170.134 37.8277 170.231 37.4844 170.231 37.1009V35.9432C170.136 36.0047 170.006 36.0616 169.84 36.1136C169.679 36.161 169.497 36.206 169.293 36.2486C169.09 36.2865 168.886 36.322 168.683 36.3551C168.479 36.3835 168.294 36.4096 168.129 36.4332C167.773 36.4853 167.463 36.5682 167.198 36.6818C166.933 36.7955 166.727 36.9493 166.58 37.1435C166.433 37.3329 166.36 37.5696 166.36 37.8537C166.36 38.2656 166.509 38.5805 166.808 38.7983C167.111 39.0114 167.494 39.1179 167.958 39.1179ZM179.602 41.1776C178.774 41.1776 178.023 40.9645 177.351 40.5384C176.683 40.1075 176.153 39.4754 175.76 38.642C175.372 37.804 175.178 36.7765 175.178 35.5597C175.178 34.3097 175.379 33.2704 175.781 32.4418C176.184 31.6084 176.719 30.9858 177.386 30.5739C178.059 30.1572 178.795 29.9489 179.595 29.9489C180.206 29.9489 180.715 30.053 181.122 30.2614C181.534 30.465 181.866 30.7206 182.116 31.0284C182.372 31.3314 182.566 31.6297 182.699 31.9233H182.791V26.4545H185.81V41H182.827V39.2528H182.699C182.557 39.5559 182.356 39.8565 182.095 40.1548C181.839 40.4484 181.506 40.6922 181.094 40.8864C180.687 41.0805 180.189 41.1776 179.602 41.1776ZM180.561 38.7699C181.049 38.7699 181.461 38.6373 181.797 38.3722C182.138 38.1023 182.398 37.7259 182.578 37.2429C182.763 36.7599 182.855 36.1941 182.855 35.5455C182.855 34.8968 182.765 34.3333 182.585 33.8551C182.405 33.3769 182.145 33.0076 181.804 32.7472C181.463 32.4867 181.049 32.3565 180.561 32.3565C180.064 32.3565 179.645 32.4915 179.304 32.7614C178.963 33.0312 178.705 33.4053 178.53 33.8835C178.355 34.3617 178.267 34.9157 178.267 35.5455C178.267 36.1799 178.355 36.741 178.53 37.2287C178.71 37.7116 178.968 38.0904 179.304 38.3651C179.645 38.6349 180.064 38.7699 180.561 38.7699ZM193.269 41.2131C192.147 41.2131 191.181 40.9858 190.371 40.5312C189.566 40.072 188.946 39.4233 188.51 38.5852C188.075 37.7424 187.857 36.7457 187.857 35.5952C187.857 34.473 188.075 33.4882 188.51 32.6406C188.946 31.7931 189.559 31.1326 190.35 30.6591C191.145 30.1856 192.078 29.9489 193.148 29.9489C193.868 29.9489 194.538 30.0649 195.158 30.2969C195.783 30.5241 196.328 30.8674 196.792 31.3267C197.26 31.786 197.625 32.3636 197.885 33.0597C198.146 33.7509 198.276 34.5606 198.276 35.4886V36.3196H189.064V34.4446H195.428C195.428 34.009 195.333 33.6231 195.144 33.2869C194.954 32.9508 194.692 32.688 194.355 32.4986C194.024 32.3045 193.638 32.2074 193.198 32.2074C192.739 32.2074 192.331 32.3139 191.976 32.527C191.626 32.7353 191.351 33.017 191.152 33.3722C190.953 33.7225 190.852 34.1132 190.847 34.544V36.3267C190.847 36.8665 190.946 37.3329 191.145 37.7259C191.349 38.1188 191.635 38.4219 192.005 38.6349C192.374 38.848 192.812 38.9545 193.319 38.9545C193.655 38.9545 193.962 38.9072 194.242 38.8125C194.521 38.7178 194.76 38.5758 194.959 38.3864C195.158 38.197 195.31 37.965 195.414 37.6903L198.212 37.875C198.07 38.5473 197.779 39.1345 197.338 39.6364C196.903 40.1335 196.339 40.5218 195.648 40.8011C194.962 41.0758 194.168 41.2131 193.269 41.2131ZM210.682 30.0909V32.3636H204.112V30.0909H210.682ZM205.604 27.4773H208.629V37.6477C208.629 37.9271 208.672 38.1449 208.757 38.3011C208.842 38.4527 208.961 38.5592 209.112 38.6207C209.268 38.6823 209.448 38.7131 209.652 38.7131C209.794 38.7131 209.936 38.7012 210.078 38.6776C210.22 38.6491 210.329 38.6278 210.405 38.6136L210.881 40.8651C210.729 40.9124 210.516 40.9669 210.241 41.0284C209.967 41.0947 209.633 41.1349 209.24 41.1491C208.511 41.1776 207.872 41.0805 207.322 40.858C206.778 40.6354 206.354 40.2898 206.051 39.821C205.748 39.3523 205.599 38.7604 205.604 38.0455V27.4773ZM217.464 41.2131C216.361 41.2131 215.407 40.9787 214.602 40.5099C213.802 40.0365 213.184 39.3783 212.749 38.5355C212.313 37.688 212.095 36.7055 212.095 35.5881C212.095 34.4612 212.313 33.4763 212.749 32.6335C213.184 31.786 213.802 31.1278 214.602 30.6591C215.407 30.1856 216.361 29.9489 217.464 29.9489C218.568 29.9489 219.519 30.1856 220.32 30.6591C221.125 31.1278 221.745 31.786 222.18 32.6335C222.616 33.4763 222.834 34.4612 222.834 35.5881C222.834 36.7055 222.616 37.688 222.18 38.5355C221.745 39.3783 221.125 40.0365 220.32 40.5099C219.519 40.9787 218.568 41.2131 217.464 41.2131ZM217.479 38.8693C217.981 38.8693 218.4 38.7273 218.736 38.4432C219.072 38.1544 219.325 37.7614 219.496 37.2642C219.671 36.767 219.759 36.2012 219.759 35.5668C219.759 34.9323 219.671 34.3665 219.496 33.8693C219.325 33.3722 219.072 32.9792 218.736 32.6903C218.4 32.4015 217.981 32.2571 217.479 32.2571C216.972 32.2571 216.546 32.4015 216.2 32.6903C215.859 32.9792 215.601 33.3722 215.426 33.8693C215.256 34.3665 215.17 34.9323 215.17 35.5668C215.17 36.2012 215.256 36.767 215.426 37.2642C215.601 37.7614 215.859 38.1544 216.2 38.4432C216.546 38.7273 216.972 38.8693 217.479 38.8693ZM229.487 41V26.4545H235.225C236.329 26.4545 237.269 26.6652 238.045 27.0866C238.822 27.5033 239.413 28.0833 239.821 28.8267C240.233 29.5653 240.439 30.4176 240.439 31.3835C240.439 32.3494 240.23 33.2017 239.814 33.9403C239.397 34.679 238.793 35.2543 238.002 35.6662C237.217 36.0781 236.265 36.2841 235.147 36.2841H231.49V33.8196H234.65C235.242 33.8196 235.73 33.7178 236.113 33.5142C236.502 33.3059 236.79 33.0194 236.98 32.6548C237.174 32.2855 237.271 31.8617 237.271 31.3835C237.271 30.9006 237.174 30.4792 236.98 30.1193C236.79 29.7547 236.502 29.473 236.113 29.2741C235.725 29.0705 235.233 28.9688 234.636 28.9688H232.562V41H229.487ZM242.436 41V26.4545H248.175C249.273 26.4545 250.211 26.651 250.987 27.044C251.768 27.4323 252.363 27.9839 252.77 28.6989C253.182 29.4091 253.388 30.2448 253.388 31.206C253.388 32.1719 253.179 33.0028 252.763 33.6989C252.346 34.3902 251.742 34.9205 250.952 35.2898C250.166 35.6591 249.214 35.8438 248.097 35.8438H244.254V33.3722H247.599C248.187 33.3722 248.674 33.2917 249.062 33.1307C249.451 32.9697 249.74 32.7282 249.929 32.4062C250.123 32.0843 250.22 31.6842 250.22 31.206C250.22 30.723 250.123 30.3158 249.929 29.9844C249.74 29.6529 249.448 29.402 249.055 29.2315C248.667 29.0563 248.177 28.9688 247.585 28.9688H245.511V41H242.436ZM250.291 34.3807L253.906 41H250.511L246.974 34.3807H250.291ZM268.928 33.7273C268.928 35.3134 268.627 36.6629 268.026 37.7756C267.429 38.8883 266.615 39.7382 265.582 40.3253C264.555 40.9077 263.4 41.1989 262.116 41.1989C260.824 41.1989 259.664 40.9053 258.636 40.3182C257.609 39.7311 256.797 38.8812 256.2 37.7685C255.604 36.6558 255.305 35.3087 255.305 33.7273C255.305 32.1411 255.604 30.7917 256.2 29.679C256.797 28.5663 257.609 27.7187 258.636 27.1364C259.664 26.5492 260.824 26.2557 262.116 26.2557C263.4 26.2557 264.555 26.5492 265.582 27.1364C266.615 27.7187 267.429 28.5663 268.026 29.679C268.627 30.7917 268.928 32.1411 268.928 33.7273ZM265.81 33.7273C265.81 32.6998 265.656 31.8333 265.348 31.1278C265.045 30.4223 264.616 29.8873 264.062 29.5227C263.509 29.1581 262.86 28.9759 262.116 28.9759C261.373 28.9759 260.724 29.1581 260.17 29.5227C259.616 29.8873 259.186 30.4223 258.878 31.1278C258.575 31.8333 258.423 32.6998 258.423 33.7273C258.423 34.7547 258.575 35.6212 258.878 36.3267C259.186 37.0322 259.616 37.5672 260.17 37.9318C260.724 38.2964 261.373 38.4787 262.116 38.4787C262.86 38.4787 263.509 38.2964 264.062 37.9318C264.616 37.5672 265.045 37.0322 265.348 36.3267C265.656 35.6212 265.81 34.7547 265.81 33.7273ZM274.764 26.4545L274.487 36.6392H271.887L271.603 26.4545H274.764ZM273.187 41.1847C272.718 41.1847 272.316 41.0189 271.98 40.6875C271.644 40.3513 271.478 39.9489 271.483 39.4801C271.478 39.0161 271.644 38.6184 271.98 38.2869C272.316 37.9555 272.718 37.7898 273.187 37.7898C273.637 37.7898 274.032 37.9555 274.373 38.2869C274.714 38.6184 274.887 39.0161 274.892 39.4801C274.887 39.7926 274.804 40.0791 274.643 40.3395C274.487 40.5952 274.281 40.8011 274.025 40.9574C273.77 41.1089 273.49 41.1847 273.187 41.1847Z" fill="white"/>
<path d="M115.959 70V61.2727H121.43V62.4062H117.276V65.0653H121.145V66.1946H117.276V68.8665H121.482V70H115.959ZM124.561 66.1136V70H123.287V63.4545H124.51V64.5199H124.591C124.742 64.1733 124.977 63.8949 125.298 63.6847C125.622 63.4744 126.03 63.3693 126.521 63.3693C126.967 63.3693 127.358 63.4631 127.693 63.6506C128.028 63.8352 128.288 64.1108 128.473 64.4773C128.658 64.8437 128.75 65.2969 128.75 65.8366V70H127.476V65.9901C127.476 65.5156 127.352 65.1449 127.105 64.8778C126.858 64.608 126.519 64.473 126.087 64.473C125.791 64.473 125.528 64.5369 125.298 64.6648C125.071 64.7926 124.891 64.9801 124.757 65.2273C124.626 65.4716 124.561 65.767 124.561 66.1136ZM130.659 63.4545H131.933V70.4261C131.933 70.8636 131.853 71.233 131.694 71.5341C131.538 71.8352 131.305 72.0639 130.996 72.2202C130.689 72.3764 130.309 72.4545 129.858 72.4545C129.812 72.4545 129.77 72.4545 129.73 72.4545C129.687 72.4545 129.643 72.4531 129.598 72.4503V71.3551C129.638 71.3551 129.673 71.3551 129.704 71.3551C129.733 71.3551 129.765 71.3551 129.802 71.3551C130.103 71.3551 130.321 71.2741 130.454 71.1122C130.591 70.9531 130.659 70.7216 130.659 70.4176V63.4545ZM131.29 62.4446C131.068 62.4446 130.878 62.3707 130.719 62.223C130.562 62.0724 130.484 61.8935 130.484 61.6861C130.484 61.4759 130.562 61.2969 130.719 61.1491C130.878 60.9986 131.068 60.9233 131.29 60.9233C131.511 60.9233 131.7 60.9986 131.856 61.1491C132.015 61.2969 132.095 61.4759 132.095 61.6861C132.095 61.8935 132.015 62.0724 131.856 62.223C131.7 62.3707 131.511 62.4446 131.29 62.4446ZM136.604 70.1321C135.991 70.1321 135.455 69.9915 134.998 69.7102C134.54 69.429 134.185 69.0355 133.932 68.5298C133.68 68.0241 133.553 67.4332 133.553 66.7571C133.553 66.0781 133.68 65.4844 133.932 64.9759C134.185 64.4673 134.54 64.0724 134.998 63.7912C135.455 63.5099 135.991 63.3693 136.604 63.3693C137.218 63.3693 137.753 63.5099 138.211 63.7912C138.668 64.0724 139.023 64.4673 139.276 64.9759C139.529 65.4844 139.655 66.0781 139.655 66.7571C139.655 67.4332 139.529 68.0241 139.276 68.5298C139.023 69.0355 138.668 69.429 138.211 69.7102C137.753 69.9915 137.218 70.1321 136.604 70.1321ZM136.609 69.0625C137.006 69.0625 137.336 68.9574 137.597 68.7472C137.859 68.5369 138.052 68.2571 138.177 67.9077C138.305 67.5582 138.368 67.1733 138.368 66.7528C138.368 66.3352 138.305 65.9517 138.177 65.6023C138.052 65.25 137.859 64.9673 137.597 64.7543C137.336 64.5412 137.006 64.4347 136.609 64.4347C136.208 64.4347 135.876 64.5412 135.611 64.7543C135.35 64.9673 135.155 65.25 135.028 65.6023C134.903 65.9517 134.84 66.3352 134.84 66.7528C134.84 67.1733 134.903 67.5582 135.028 67.9077C135.155 68.2571 135.35 68.5369 135.611 68.7472C135.876 68.9574 136.208 69.0625 136.609 69.0625ZM141.86 72.4545C141.67 72.4545 141.497 72.4389 141.34 72.4077C141.184 72.3793 141.068 72.348 140.991 72.3139L141.298 71.2699C141.531 71.3324 141.738 71.3594 141.92 71.3509C142.102 71.3423 142.262 71.2741 142.402 71.1463C142.544 71.0185 142.669 70.8097 142.777 70.5199L142.934 70.0852L140.539 63.4545H141.903L143.561 68.5341H143.629L145.287 63.4545H146.654L143.957 70.8736C143.832 71.2145 143.673 71.5028 143.48 71.7386C143.287 71.9773 143.056 72.1563 142.789 72.2756C142.522 72.3949 142.213 72.4545 141.86 72.4545ZM153.332 70.1449C152.918 70.1449 152.543 70.0682 152.207 69.9148C151.872 69.7585 151.607 69.5327 151.411 69.2372C151.217 68.9418 151.121 68.5795 151.121 68.1506C151.121 67.7812 151.192 67.4773 151.334 67.2386C151.476 67 151.668 66.8111 151.909 66.6719C152.151 66.5327 152.421 66.4276 152.719 66.3565C153.017 66.2855 153.321 66.2315 153.631 66.1946C154.023 66.1491 154.341 66.1122 154.585 66.0838C154.83 66.0526 155.007 66.0028 155.118 65.9347C155.229 65.8665 155.284 65.7557 155.284 65.6023V65.5724C155.284 65.2003 155.179 64.9119 154.969 64.7074C154.761 64.5028 154.452 64.4006 154.04 64.4006C153.611 64.4006 153.273 64.4957 153.026 64.6861C152.781 64.8736 152.612 65.0824 152.519 65.3125L151.321 65.0398C151.463 64.642 151.671 64.321 151.943 64.0767C152.219 63.8295 152.536 63.6506 152.894 63.5398C153.251 63.4261 153.628 63.3693 154.023 63.3693C154.284 63.3693 154.561 63.4006 154.854 63.4631C155.149 63.5227 155.425 63.6335 155.68 63.7955C155.939 63.9574 156.151 64.1889 156.315 64.4901C156.48 64.7884 156.563 65.1761 156.563 65.6534V70H155.318V69.1051H155.267C155.185 69.2699 155.061 69.4318 154.896 69.5909C154.732 69.75 154.52 69.8821 154.261 69.9872C154.003 70.0923 153.693 70.1449 153.332 70.1449ZM153.609 69.1222C153.962 69.1222 154.263 69.0526 154.513 68.9134C154.766 68.7741 154.957 68.5923 155.088 68.3679C155.222 68.1406 155.288 67.8977 155.288 67.6392V66.7955C155.243 66.8409 155.155 66.8835 155.024 66.9233C154.896 66.9602 154.75 66.9929 154.585 67.0213C154.421 67.0469 154.26 67.071 154.104 67.0938C153.948 67.1136 153.817 67.1307 153.712 67.1449C153.465 67.1761 153.239 67.2287 153.034 67.3026C152.832 67.3764 152.671 67.483 152.548 67.6222C152.429 67.7585 152.369 67.9403 152.369 68.1676C152.369 68.483 152.486 68.7216 152.719 68.8835C152.952 69.0426 153.249 69.1222 153.609 69.1222ZM159.734 61.2727V70H158.46V61.2727H159.734ZM162.922 61.2727V70H161.648V61.2727H162.922ZM168.314 70V61.2727H169.588V64.5156H169.665C169.739 64.3793 169.846 64.2216 169.985 64.0426C170.124 63.8636 170.317 63.7074 170.564 63.5739C170.811 63.4375 171.138 63.3693 171.544 63.3693C172.073 63.3693 172.544 63.5028 172.959 63.7699C173.374 64.0369 173.699 64.4219 173.935 64.9247C174.174 65.4276 174.293 66.0327 174.293 66.7401C174.293 67.4474 174.175 68.054 173.939 68.5597C173.703 69.0625 173.38 69.4503 172.968 69.723C172.556 69.9929 172.086 70.1278 171.557 70.1278C171.159 70.1278 170.834 70.0611 170.581 69.9276C170.331 69.794 170.135 69.6378 169.993 69.4588C169.851 69.2798 169.742 69.1207 169.665 68.9815H169.559V70H168.314ZM169.563 66.7273C169.563 67.1875 169.63 67.5909 169.763 67.9375C169.897 68.2841 170.09 68.5554 170.343 68.7514C170.596 68.9446 170.905 69.0412 171.272 69.0412C171.652 69.0412 171.971 68.9403 172.226 68.7386C172.482 68.5341 172.675 68.2571 172.806 67.9077C172.939 67.5582 173.006 67.1648 173.006 66.7273C173.006 66.2955 172.941 65.9077 172.81 65.5639C172.682 65.2202 172.489 64.9489 172.23 64.75C171.975 64.5511 171.655 64.4517 171.272 64.4517C170.902 64.4517 170.59 64.5469 170.334 64.7372C170.081 64.9276 169.89 65.1932 169.759 65.5341C169.628 65.875 169.563 66.2727 169.563 66.7273ZM178.745 70.1321C178.1 70.1321 177.544 69.9943 177.079 69.7188C176.615 69.4403 176.258 69.0497 176.005 68.5469C175.755 68.0412 175.63 67.4489 175.63 66.7699C175.63 66.0994 175.755 65.5085 176.005 64.9972C176.258 64.4858 176.61 64.0866 177.062 63.7997C177.516 63.5128 178.047 63.3693 178.655 63.3693C179.025 63.3693 179.383 63.4304 179.729 63.5526C180.076 63.6747 180.387 63.8665 180.662 64.1278C180.938 64.3892 181.155 64.7287 181.314 65.1463C181.473 65.5611 181.553 66.0653 181.553 66.6591V67.1108H176.35V66.1562H180.304C180.304 65.821 180.236 65.5241 180.1 65.2656C179.963 65.0043 179.772 64.7983 179.525 64.6477C179.28 64.4972 178.993 64.4219 178.664 64.4219C178.306 64.4219 177.993 64.5099 177.726 64.6861C177.462 64.8594 177.258 65.0866 177.113 65.3679C176.971 65.6463 176.9 65.9489 176.9 66.2756V67.0213C176.9 67.4588 176.976 67.831 177.13 68.1378C177.286 68.4446 177.503 68.679 177.782 68.8409C178.06 69 178.385 69.0795 178.758 69.0795C178.999 69.0795 179.219 69.0455 179.418 68.9773C179.617 68.9062 179.789 68.8011 179.934 68.6619C180.079 68.5227 180.189 68.3509 180.266 68.1463L181.472 68.3636C181.375 68.7187 181.202 69.0298 180.952 69.2969C180.705 69.5611 180.394 69.767 180.019 69.9148C179.647 70.0597 179.222 70.1321 178.745 70.1321ZM184.441 66.1136V70H183.167V63.4545H184.39V64.5199H184.471C184.621 64.1733 184.857 63.8949 185.178 63.6847C185.502 63.4744 185.91 63.3693 186.401 63.3693C186.847 63.3693 187.238 63.4631 187.573 63.6506C187.908 63.8352 188.168 64.1108 188.353 64.4773C188.537 64.8437 188.63 65.2969 188.63 65.8366V70H187.356V65.9901C187.356 65.5156 187.232 65.1449 186.985 64.8778C186.738 64.608 186.398 64.473 185.966 64.473C185.671 64.473 185.408 64.5369 185.178 64.6648C184.951 64.7926 184.77 64.9801 184.637 65.2273C184.506 65.4716 184.441 65.767 184.441 66.1136ZM193.36 70.1321C192.715 70.1321 192.159 69.9943 191.693 69.7188C191.23 69.4403 190.872 69.0497 190.62 68.5469C190.37 68.0412 190.245 67.4489 190.245 66.7699C190.245 66.0994 190.37 65.5085 190.62 64.9972C190.872 64.4858 191.225 64.0866 191.676 63.7997C192.131 63.5128 192.662 63.3693 193.27 63.3693C193.639 63.3693 193.997 63.4304 194.344 63.5526C194.691 63.6747 195.002 63.8665 195.277 64.1278C195.553 64.3892 195.77 64.7287 195.929 65.1463C196.088 65.5611 196.168 66.0653 196.168 66.6591V67.1108H190.965V66.1562H194.919C194.919 65.821 194.851 65.5241 194.715 65.2656C194.578 65.0043 194.387 64.7983 194.139 64.6477C193.895 64.4972 193.608 64.4219 193.279 64.4219C192.921 64.4219 192.608 64.5099 192.341 64.6861C192.077 64.8594 191.872 65.0866 191.727 65.3679C191.585 65.6463 191.514 65.9489 191.514 66.2756V67.0213C191.514 67.4588 191.591 67.831 191.745 68.1378C191.901 68.4446 192.118 68.679 192.397 68.8409C192.675 69 193 69.0795 193.372 69.0795C193.614 69.0795 193.834 69.0455 194.033 68.9773C194.232 68.9062 194.404 68.8011 194.549 68.6619C194.693 68.5227 194.804 68.3509 194.881 68.1463L196.087 68.3636C195.99 68.7187 195.817 69.0298 195.567 69.2969C195.32 69.5611 195.009 69.767 194.634 69.9148C194.262 70.0597 193.837 70.1321 193.36 70.1321ZM200.897 63.4545V64.4773H197.198V63.4545H200.897ZM198.212 70V62.696C198.212 62.2869 198.301 61.9474 198.48 61.6776C198.659 61.4048 198.897 61.2017 199.192 61.0682C199.488 60.9318 199.809 60.8636 200.155 60.8636C200.411 60.8636 200.63 60.8849 200.811 60.9276C200.993 60.9673 201.128 61.0043 201.216 61.0384L200.918 62.0696C200.858 62.0526 200.782 62.0327 200.688 62.0099C200.594 61.9844 200.48 61.9716 200.347 61.9716C200.037 61.9716 199.816 62.0483 199.682 62.2017C199.551 62.3551 199.486 62.5767 199.486 62.8665V70H198.212ZM202.411 70V63.4545H203.685V70H202.411ZM203.055 62.4446C202.833 62.4446 202.643 62.3707 202.484 62.223C202.327 62.0724 202.249 61.8935 202.249 61.6861C202.249 61.4759 202.327 61.2969 202.484 61.1491C202.643 60.9986 202.833 60.9233 203.055 60.9233C203.276 60.9233 203.465 60.9986 203.621 61.1491C203.781 61.2969 203.86 61.4759 203.86 61.6861C203.86 61.8935 203.781 62.0724 203.621 62.223C203.465 62.3707 203.276 62.4446 203.055 62.4446ZM208.655 63.4545V64.4773H205.08V63.4545H208.655ZM206.038 61.8864H207.313V68.0781C207.313 68.3253 207.349 68.5114 207.423 68.6364C207.497 68.7585 207.592 68.8423 207.709 68.8878C207.828 68.9304 207.957 68.9517 208.097 68.9517C208.199 68.9517 208.288 68.9446 208.365 68.9304C208.442 68.9162 208.501 68.9048 208.544 68.8963L208.774 69.9489C208.7 69.9773 208.595 70.0057 208.459 70.0341C208.323 70.0653 208.152 70.0824 207.948 70.0852C207.612 70.0909 207.3 70.0312 207.01 69.9062C206.72 69.7812 206.486 69.5881 206.307 69.3267C206.128 69.0653 206.038 68.7372 206.038 68.3423V61.8864ZM215.064 65.0526L213.909 65.2571C213.861 65.1094 213.784 64.9687 213.679 64.8352C213.576 64.7017 213.437 64.5923 213.261 64.5071C213.085 64.4219 212.865 64.3793 212.601 64.3793C212.24 64.3793 211.939 64.4602 211.697 64.6222C211.456 64.7812 211.335 64.9872 211.335 65.2401C211.335 65.4588 211.416 65.6349 211.578 65.7685C211.74 65.902 212.001 66.0114 212.362 66.0966L213.402 66.3352C214.004 66.4744 214.453 66.6889 214.748 66.9787C215.044 67.2685 215.192 67.6449 215.192 68.108C215.192 68.5 215.078 68.8494 214.851 69.1562C214.626 69.4602 214.312 69.6989 213.909 69.8722C213.508 70.0455 213.044 70.1321 212.515 70.1321C211.782 70.1321 211.184 69.9759 210.721 69.6634C210.258 69.348 209.974 68.9006 209.869 68.321L211.101 68.1335C211.177 68.4545 211.335 68.6974 211.574 68.8622C211.812 69.0241 212.123 69.1051 212.507 69.1051C212.925 69.1051 213.258 69.0185 213.508 68.8452C213.758 68.669 213.883 68.4545 213.883 68.2017C213.883 67.9972 213.807 67.8253 213.653 67.6861C213.503 67.5469 213.271 67.4418 212.959 67.3707L211.851 67.1278C211.24 66.9886 210.788 66.767 210.496 66.4631C210.206 66.1591 210.061 65.7741 210.061 65.3082C210.061 64.9219 210.169 64.5838 210.385 64.294C210.601 64.0043 210.899 63.7784 211.28 63.6165C211.66 63.4517 212.096 63.3693 212.588 63.3693C213.295 63.3693 213.852 63.5227 214.258 63.8295C214.665 64.1335 214.933 64.5412 215.064 65.0526ZM221.587 70L219.661 63.4545H220.978L222.261 68.2614H222.325L223.611 63.4545H224.928L226.207 68.2401H226.271L227.545 63.4545H228.861L226.94 70H225.64L224.31 65.2741H224.212L222.883 70H221.587ZM230.271 70V63.4545H231.545V70H230.271ZM230.914 62.4446C230.692 62.4446 230.502 62.3707 230.343 62.223C230.187 62.0724 230.109 61.8935 230.109 61.6861C230.109 61.4759 230.187 61.2969 230.343 61.1491C230.502 60.9986 230.692 60.9233 230.914 60.9233C231.136 60.9233 231.325 60.9986 231.481 61.1491C231.64 61.2969 231.719 61.4759 231.719 61.6861C231.719 61.8935 231.64 62.0724 231.481 62.223C231.325 62.3707 231.136 62.4446 230.914 62.4446ZM236.514 63.4545V64.4773H232.939V63.4545H236.514ZM233.898 61.8864H235.172V68.0781C235.172 68.3253 235.209 68.5114 235.283 68.6364C235.357 68.7585 235.452 68.8423 235.568 68.8878C235.688 68.9304 235.817 68.9517 235.956 68.9517C236.058 68.9517 236.148 68.9446 236.224 68.9304C236.301 68.9162 236.361 68.9048 236.403 68.8963L236.634 69.9489C236.56 69.9773 236.455 70.0057 236.318 70.0341C236.182 70.0653 236.011 70.0824 235.807 70.0852C235.472 70.0909 235.159 70.0312 234.869 69.9062C234.58 69.7812 234.345 69.5881 234.166 69.3267C233.987 69.0653 233.898 68.7372 233.898 68.3423V61.8864ZM239.538 66.1136V70H238.264V61.2727H239.521V64.5199H239.602C239.756 64.1676 239.99 63.8878 240.306 63.6804C240.621 63.473 241.033 63.3693 241.541 63.3693C241.99 63.3693 242.382 63.4616 242.717 63.6463C243.056 63.831 243.317 64.1065 243.502 64.473C243.689 64.8366 243.783 65.2912 243.783 65.8366V70H242.509V65.9901C242.509 65.5099 242.385 65.1378 242.138 64.8736C241.891 64.6065 241.547 64.473 241.107 64.473C240.806 64.473 240.536 64.5369 240.297 64.6648C240.061 64.7926 239.875 64.9801 239.739 65.2273C239.605 65.4716 239.538 65.767 239.538 66.1136ZM248.44 70.1321C247.827 70.1321 247.291 69.9915 246.834 69.7102C246.376 69.429 246.021 69.0355 245.768 68.5298C245.515 68.0241 245.389 67.4332 245.389 66.7571C245.389 66.0781 245.515 65.4844 245.768 64.9759C246.021 64.4673 246.376 64.0724 246.834 63.7912C247.291 63.5099 247.827 63.3693 248.44 63.3693C249.054 63.3693 249.589 63.5099 250.047 63.7912C250.504 64.0724 250.859 64.4673 251.112 64.9759C251.365 65.4844 251.491 66.0781 251.491 66.7571C251.491 67.4332 251.365 68.0241 251.112 68.5298C250.859 69.0355 250.504 69.429 250.047 69.7102C249.589 69.9915 249.054 70.1321 248.44 70.1321ZM248.444 69.0625C248.842 69.0625 249.172 68.9574 249.433 68.7472C249.694 68.5369 249.888 68.2571 250.013 67.9077C250.14 67.5582 250.204 67.1733 250.204 66.7528C250.204 66.3352 250.14 65.9517 250.013 65.6023C249.888 65.25 249.694 64.9673 249.433 64.7543C249.172 64.5412 248.842 64.4347 248.444 64.4347C248.044 64.4347 247.712 64.5412 247.447 64.7543C247.186 64.9673 246.991 65.25 246.864 65.6023C246.739 65.9517 246.676 66.3352 246.676 66.7528C246.676 67.1733 246.739 67.5582 246.864 67.9077C246.991 68.2571 247.186 68.5369 247.447 68.7472C247.712 68.9574 248.044 69.0625 248.444 69.0625ZM257.26 67.2855V63.4545H258.538V70H257.285V68.8665H257.217C257.067 69.2159 256.825 69.5071 256.493 69.7401C256.163 69.9702 255.753 70.0852 255.261 70.0852C254.841 70.0852 254.469 69.9929 254.145 69.8082C253.824 69.6207 253.571 69.3438 253.386 68.9773C253.204 68.6108 253.114 68.1577 253.114 67.6179V63.4545H254.388V67.4645C254.388 67.9105 254.511 68.2656 254.758 68.5298C255.006 68.794 255.327 68.9261 255.722 68.9261C255.96 68.9261 256.197 68.8665 256.433 68.7472C256.672 68.6278 256.869 68.4474 257.026 68.206C257.185 67.9645 257.263 67.6577 257.26 67.2855ZM263.506 63.4545V64.4773H259.93V63.4545H263.506ZM260.889 61.8864H262.163V68.0781C262.163 68.3253 262.2 68.5114 262.274 68.6364C262.348 68.7585 262.443 68.8423 262.56 68.8878C262.679 68.9304 262.808 68.9517 262.947 68.9517C263.05 68.9517 263.139 68.9446 263.216 68.9304C263.293 68.9162 263.352 68.9048 263.395 68.8963L263.625 69.9489C263.551 69.9773 263.446 70.0057 263.31 70.0341C263.173 70.0653 263.003 70.0824 262.798 70.0852C262.463 70.0909 262.151 70.0312 261.861 69.9062C261.571 69.7812 261.337 69.5881 261.158 69.3267C260.979 69.0653 260.889 68.7372 260.889 68.3423V61.8864ZM115.857 89V82.4545H117.088V83.4943H117.156C117.276 83.142 117.486 82.8651 117.787 82.6634C118.091 82.4588 118.435 82.3565 118.818 82.3565C118.898 82.3565 118.991 82.3594 119.099 82.3651C119.21 82.3707 119.297 82.3778 119.359 82.3864V83.6051C119.308 83.5909 119.217 83.5753 119.087 83.5582C118.956 83.5384 118.825 83.5284 118.695 83.5284C118.393 83.5284 118.125 83.5923 117.889 83.7202C117.656 83.8452 117.472 84.0199 117.335 84.2443C117.199 84.4659 117.131 84.7187 117.131 85.0028V89H115.857ZM123.249 89.1321C122.604 89.1321 122.048 88.9943 121.582 88.7188C121.119 88.4403 120.761 88.0497 120.509 87.5469C120.259 87.0412 120.134 86.4489 120.134 85.7699C120.134 85.0994 120.259 84.5085 120.509 83.9972C120.761 83.4858 121.114 83.0866 121.565 82.7997C122.02 82.5128 122.551 82.3693 123.159 82.3693C123.528 82.3693 123.886 82.4304 124.233 82.5526C124.58 82.6747 124.891 82.8665 125.166 83.1278C125.442 83.3892 125.659 83.7287 125.818 84.1463C125.977 84.5611 126.057 85.0653 126.057 85.6591V86.1108H120.854V85.1562H124.808C124.808 84.821 124.74 84.5241 124.604 84.2656C124.467 84.0043 124.276 83.7983 124.028 83.6477C123.784 83.4972 123.497 83.4219 123.168 83.4219C122.81 83.4219 122.497 83.5099 122.23 83.6861C121.966 83.8594 121.761 84.0866 121.617 84.3679C121.475 84.6463 121.403 84.9489 121.403 85.2756V86.0213C121.403 86.4588 121.48 86.831 121.634 87.1378C121.79 87.4446 122.007 87.679 122.286 87.8409C122.564 88 122.889 88.0795 123.261 88.0795C123.503 88.0795 123.723 88.0455 123.922 87.9773C124.121 87.9062 124.293 87.8011 124.438 87.6619C124.582 87.5227 124.693 87.3509 124.77 87.1463L125.976 87.3636C125.879 87.7187 125.706 88.0298 125.456 88.2969C125.209 88.5611 124.898 88.767 124.523 88.9148C124.151 89.0597 123.726 89.1321 123.249 89.1321ZM132.575 84.0526L131.421 84.2571C131.372 84.1094 131.296 83.9687 131.19 83.8352C131.088 83.7017 130.949 83.5923 130.773 83.5071C130.597 83.4219 130.377 83.3793 130.112 83.3793C129.752 83.3793 129.45 83.4602 129.209 83.6222C128.967 83.7812 128.847 83.9872 128.847 84.2401C128.847 84.4588 128.928 84.6349 129.09 84.7685C129.252 84.902 129.513 85.0114 129.874 85.0966L130.913 85.3352C131.516 85.4744 131.965 85.6889 132.26 85.9787C132.556 86.2685 132.703 86.6449 132.703 87.108C132.703 87.5 132.59 87.8494 132.362 88.1562C132.138 88.4602 131.824 88.6989 131.421 88.8722C131.02 89.0455 130.556 89.1321 130.027 89.1321C129.294 89.1321 128.696 88.9759 128.233 88.6634C127.77 88.348 127.486 87.9006 127.381 87.321L128.612 87.1335C128.689 87.4545 128.847 87.6974 129.085 87.8622C129.324 88.0241 129.635 88.1051 130.019 88.1051C130.436 88.1051 130.77 88.0185 131.02 87.8452C131.27 87.669 131.395 87.4545 131.395 87.2017C131.395 86.9972 131.318 86.8253 131.165 86.6861C131.014 86.5469 130.783 86.4418 130.47 86.3707L129.362 86.1278C128.752 85.9886 128.3 85.767 128.007 85.4631C127.717 85.1591 127.573 84.7741 127.573 84.3082C127.573 83.9219 127.681 83.5838 127.896 83.294C128.112 83.0043 128.411 82.7784 128.791 82.6165C129.172 82.4517 129.608 82.3693 130.1 82.3693C130.807 82.3693 131.364 82.5227 131.77 82.8295C132.176 83.1335 132.445 83.5412 132.575 84.0526ZM137.36 82.4545V83.4773H133.784V82.4545H137.36ZM134.743 80.8864H136.017V87.0781C136.017 87.3253 136.054 87.5114 136.128 87.6364C136.202 87.7585 136.297 87.8423 136.414 87.8878C136.533 87.9304 136.662 87.9517 136.801 87.9517C136.904 87.9517 136.993 87.9446 137.07 87.9304C137.147 87.9162 137.206 87.9048 137.249 87.8963L137.479 88.9489C137.405 88.9773 137.3 89.0057 137.164 89.0341C137.027 89.0653 136.857 89.0824 136.652 89.0852C136.317 89.0909 136.004 89.0312 135.715 88.9062C135.425 88.7812 135.191 88.5881 135.012 88.3267C134.833 88.0653 134.743 87.7372 134.743 87.3423V80.8864ZM138.969 89V82.4545H140.201V83.4943H140.269C140.388 83.142 140.598 82.8651 140.899 82.6634C141.203 82.4588 141.547 82.3565 141.931 82.3565C142.01 82.3565 142.104 82.3594 142.212 82.3651C142.323 82.3707 142.409 82.3778 142.472 82.3864V83.6051C142.421 83.5909 142.33 83.5753 142.199 83.5582C142.068 83.5384 141.938 83.5284 141.807 83.5284C141.506 83.5284 141.237 83.5923 141.002 83.7202C140.769 83.8452 140.584 84.0199 140.448 84.2443C140.311 84.4659 140.243 84.7187 140.243 85.0028V89H138.969ZM143.775 89V82.4545H145.049V89H143.775ZM144.418 81.4446C144.196 81.4446 144.006 81.3707 143.847 81.223C143.691 81.0724 143.613 80.8935 143.613 80.6861C143.613 80.4759 143.691 80.2969 143.847 80.1491C144.006 79.9986 144.196 79.9233 144.418 79.9233C144.64 79.9233 144.828 79.9986 144.985 80.1491C145.144 80.2969 145.223 80.4759 145.223 80.6861C145.223 80.8935 145.144 81.0724 144.985 81.223C144.828 81.3707 144.64 81.4446 144.418 81.4446ZM149.72 89.1321C149.086 89.1321 148.541 88.9886 148.084 88.7017C147.629 88.4119 147.28 88.0128 147.035 87.5043C146.791 86.9957 146.669 86.4134 146.669 85.7571C146.669 85.0923 146.794 84.5057 147.044 83.9972C147.294 83.4858 147.646 83.0866 148.101 82.7997C148.555 82.5128 149.091 82.3693 149.707 82.3693C150.204 82.3693 150.647 82.4616 151.037 82.6463C151.426 82.8281 151.74 83.0838 151.978 83.4134C152.22 83.7429 152.363 84.1278 152.409 84.5682H151.169C151.101 84.2614 150.944 83.9972 150.7 83.7756C150.459 83.554 150.135 83.4432 149.728 83.4432C149.373 83.4432 149.062 83.5369 148.795 83.7244C148.531 83.9091 148.325 84.1733 148.177 84.517C148.03 84.858 147.956 85.2614 147.956 85.7273C147.956 86.2045 148.028 86.6165 148.173 86.9631C148.318 87.3097 148.522 87.5781 148.787 87.7685C149.054 87.9588 149.368 88.054 149.728 88.054C149.97 88.054 150.189 88.0099 150.385 87.9219C150.584 87.831 150.75 87.7017 150.883 87.5341C151.02 87.3665 151.115 87.1648 151.169 86.929H152.409C152.363 87.3523 152.226 87.7301 151.995 88.0625C151.765 88.3949 151.457 88.6562 151.071 88.8466C150.687 89.0369 150.237 89.1321 149.72 89.1321ZM157.027 82.4545V83.4773H153.451V82.4545H157.027ZM154.41 80.8864H155.684V87.0781C155.684 87.3253 155.721 87.5114 155.795 87.6364C155.869 87.7585 155.964 87.8423 156.081 87.8878C156.2 87.9304 156.329 87.9517 156.469 87.9517C156.571 87.9517 156.66 87.9446 156.737 87.9304C156.814 87.9162 156.873 87.9048 156.916 87.8963L157.146 88.9489C157.072 88.9773 156.967 89.0057 156.831 89.0341C156.694 89.0653 156.524 89.0824 156.319 89.0852C155.984 89.0909 155.672 89.0312 155.382 88.9062C155.092 88.7812 154.858 88.5881 154.679 88.3267C154.5 88.0653 154.41 87.7372 154.41 87.3423V80.8864ZM158.636 89V82.4545H159.91V89H158.636ZM159.28 81.4446C159.058 81.4446 158.868 81.3707 158.709 81.223C158.552 81.0724 158.474 80.8935 158.474 80.6861C158.474 80.4759 158.552 80.2969 158.709 80.1491C158.868 79.9986 159.058 79.9233 159.28 79.9233C159.501 79.9233 159.69 79.9986 159.846 80.1491C160.006 80.2969 160.085 80.4759 160.085 80.6861C160.085 80.8935 160.006 81.0724 159.846 81.223C159.69 81.3707 159.501 81.4446 159.28 81.4446ZM164.582 89.1321C163.968 89.1321 163.432 88.9915 162.975 88.7102C162.518 88.429 162.163 88.0355 161.91 87.5298C161.657 87.0241 161.53 86.4332 161.53 85.7571C161.53 85.0781 161.657 84.4844 161.91 83.9759C162.163 83.4673 162.518 83.0724 162.975 82.7912C163.432 82.5099 163.968 82.3693 164.582 82.3693C165.195 82.3693 165.731 82.5099 166.188 82.7912C166.646 83.0724 167.001 83.4673 167.253 83.9759C167.506 84.4844 167.633 85.0781 167.633 85.7571C167.633 86.4332 167.506 87.0241 167.253 87.5298C167.001 88.0355 166.646 88.429 166.188 88.7102C165.731 88.9915 165.195 89.1321 164.582 89.1321ZM164.586 88.0625C164.984 88.0625 165.313 87.9574 165.575 87.7472C165.836 87.5369 166.029 87.2571 166.154 86.9077C166.282 86.5582 166.346 86.1733 166.346 85.7528C166.346 85.3352 166.282 84.9517 166.154 84.6023C166.029 84.25 165.836 83.9673 165.575 83.7543C165.313 83.5412 164.984 83.4347 164.586 83.4347C164.185 83.4347 163.853 83.5412 163.589 83.7543C163.327 83.9673 163.133 84.25 163.005 84.6023C162.88 84.9517 162.817 85.3352 162.817 85.7528C162.817 86.1733 162.88 86.5582 163.005 86.9077C163.133 87.2571 163.327 87.5369 163.589 87.7472C163.853 87.9574 164.185 88.0625 164.586 88.0625ZM170.529 85.1136V89H169.255V82.4545H170.478V83.5199H170.559C170.71 83.1733 170.945 82.8949 171.266 82.6847C171.59 82.4744 171.998 82.3693 172.489 82.3693C172.935 82.3693 173.326 82.4631 173.661 82.6506C173.996 82.8352 174.256 83.1108 174.441 83.4773C174.626 83.8437 174.718 84.2969 174.718 84.8366V89H173.444V84.9901C173.444 84.5156 173.32 84.1449 173.073 83.8778C172.826 83.608 172.487 83.473 172.055 83.473C171.759 83.473 171.496 83.5369 171.266 83.6648C171.039 83.7926 170.859 83.9801 170.725 84.2273C170.594 84.4716 170.529 84.767 170.529 85.1136ZM181.532 84.0526L180.377 84.2571C180.329 84.1094 180.252 83.9687 180.147 83.8352C180.044 83.7017 179.905 83.5923 179.729 83.5071C179.553 83.4219 179.333 83.3793 179.069 83.3793C178.708 83.3793 178.407 83.4602 178.165 83.6222C177.924 83.7812 177.803 83.9872 177.803 84.2401C177.803 84.4588 177.884 84.6349 178.046 84.7685C178.208 84.902 178.469 85.0114 178.83 85.0966L179.87 85.3352C180.472 85.4744 180.921 85.6889 181.216 85.9787C181.512 86.2685 181.66 86.6449 181.66 87.108C181.66 87.5 181.546 87.8494 181.319 88.1562C181.094 88.4602 180.78 88.6989 180.377 88.8722C179.976 89.0455 179.512 89.1321 178.983 89.1321C178.25 89.1321 177.652 88.9759 177.189 88.6634C176.726 88.348 176.442 87.9006 176.337 87.321L177.569 87.1335C177.645 87.4545 177.803 87.6974 178.042 87.8622C178.28 88.0241 178.591 88.1051 178.975 88.1051C179.392 88.1051 179.726 88.0185 179.976 87.8452C180.226 87.669 180.351 87.4545 180.351 87.2017C180.351 86.9972 180.275 86.8253 180.121 86.6861C179.971 86.5469 179.739 86.4418 179.427 86.3707L178.319 86.1278C177.708 85.9886 177.256 85.767 176.963 85.4631C176.674 85.1591 176.529 84.7741 176.529 84.3082C176.529 83.9219 176.637 83.5838 176.853 83.294C177.069 83.0043 177.367 82.7784 177.748 82.6165C178.128 82.4517 178.564 82.3693 179.056 82.3693C179.763 82.3693 180.32 82.5227 180.726 82.8295C181.133 83.1335 181.401 83.5412 181.532 84.0526Z" fill="#FAFAFA"/>
<path d="M349.97 63.5303C349.703 63.2641 349.679 62.8474 349.897 62.5538L349.97 62.4697L356.439 56L349.97 49.5303C349.703 49.2641 349.679 48.8474 349.897 48.5538L349.97 48.4697C350.236 48.2034 350.653 48.1792 350.946 48.3971L351.03 48.4697L358.03 55.4697C358.297 55.7359 358.321 56.1526 358.103 56.4462L358.03 56.5303L351.03 63.5303C350.737 63.8232 350.263 63.8232 349.97 63.5303Z" fill="white"/>
<defs>
<linearGradient id="paint0_linear_2402_31462" x1="71.3342" y1="68.6671" x2="39.8631" y2="59.0614" gradientUnits="userSpaceOnUse">
<stop stop-color="#F89300"/>
<stop offset="1" stop-color="#FFBB58"/>
</linearGradient>
</defs>
</svg>
