<svg width="52" height="20" viewBox="0 0 52 20" fill="none" xmlns="http://www.w3.org/2000/svg">
<mask id="mask0_2509_1496" style="mask-type:luminance" maskUnits="userSpaceOnUse" x="0" y="1" width="24" height="18">
<rect y="1" width="24" height="18" fill="white"/>
</mask>
<g mask="url(#mask0_2509_1496)">
<path fill-rule="evenodd" clip-rule="evenodd" d="M0 5C0 2.79086 1.79086 1 4 1H20C22.2091 1 24 2.79086 24 5V15C24 17.2091 22.2091 19 20 19H4C1.79086 19 0 17.2091 0 15V5Z" fill="#F7FCFF"/>
<path fill-rule="evenodd" clip-rule="evenodd" d="M0 12V13.5H24V12H0Z" fill="#E31D1C"/>
<path fill-rule="evenodd" clip-rule="evenodd" d="M0 14.75V16.25H24V14.75H0Z" fill="#E31D1C"/>
<path fill-rule="evenodd" clip-rule="evenodd" d="M0 6.5V8H24V6.5H0Z" fill="#E31D1C"/>
<path fill-rule="evenodd" clip-rule="evenodd" d="M0 17.5V19H24V17.5H0Z" fill="#E31D1C"/>
<path fill-rule="evenodd" clip-rule="evenodd" d="M0 9.25V10.75H24V9.25H0Z" fill="#E31D1C"/>
<path fill-rule="evenodd" clip-rule="evenodd" d="M0 1V2.5H24V1H0Z" fill="#E31D1C"/>
<path fill-rule="evenodd" clip-rule="evenodd" d="M0 3.75V5.25H24V3.75H0Z" fill="#E31D1C"/>
<rect y="1" width="15" height="9.75" fill="#2E42A5"/>
<path fill-rule="evenodd" clip-rule="evenodd" d="M1.29143 3.20415L0.747018 3.58582L0.930817 2.90661L0.447279 2.47618H1.07884L1.29067 1.92188L1.53905 2.47618H2.07744L1.65441 2.90661L1.81818 3.58582L1.29143 3.20415ZM4.29141 3.20415L3.747 3.58582L3.9308 2.90661L3.44727 2.47618H4.07883L4.29065 1.92188L4.53903 2.47618H5.07742L4.6544 2.90661L4.81817 3.58582L4.29141 3.20415ZM6.747 3.58582L7.29141 3.20415L7.81817 3.58582L7.6544 2.90661L8.07742 2.47618H7.53903L7.29065 1.92188L7.07883 2.47618H6.44727L6.9308 2.90661L6.747 3.58582ZM10.2914 3.20415L9.747 3.58582L9.9308 2.90661L9.44727 2.47618H10.0788L10.2907 1.92188L10.539 2.47618H11.0774L10.6544 2.90661L10.8182 3.58582L10.2914 3.20415ZM0.747004 6.58582L1.29141 6.20415L1.81817 6.58582L1.6544 5.90661L2.07742 5.47618H1.53903L1.29065 4.92188L1.07883 5.47618H0.447266L0.930803 5.90661L0.747004 6.58582ZM4.29141 6.20415L3.747 6.58582L3.9308 5.90661L3.44727 5.47618H4.07883L4.29065 4.92188L4.53903 5.47618H5.07742L4.6544 5.90661L4.81817 6.58582L4.29141 6.20415ZM6.747 6.58582L7.29141 6.20415L7.81817 6.58582L7.6544 5.90661L8.07742 5.47618H7.53903L7.29065 4.92188L7.07883 5.47618H6.44727L6.9308 5.90661L6.747 6.58582ZM10.2914 6.20415L9.747 6.58582L9.9308 5.90661L9.44727 5.47618H10.0788L10.2907 4.92188L10.539 5.47618H11.0774L10.6544 5.90661L10.8182 6.58582L10.2914 6.20415ZM0.747004 9.58582L1.29141 9.20415L1.81817 9.58582L1.6544 8.90661L2.07742 8.47618H1.53903L1.29065 7.92188L1.07883 8.47618H0.447266L0.930803 8.90661L0.747004 9.58582ZM4.29141 9.20415L3.747 9.58582L3.9308 8.90661L3.44727 8.47618H4.07883L4.29065 7.92188L4.53903 8.47618H5.07742L4.6544 8.90661L4.81817 9.58582L4.29141 9.20415ZM6.747 9.58582L7.29141 9.20415L7.81817 9.58582L7.6544 8.90661L8.07742 8.47618H7.53903L7.29065 7.92188L7.07883 8.47618H6.44727L6.9308 8.90661L6.747 9.58582ZM10.2914 9.20415L9.747 9.58582L9.9308 8.90661L9.44727 8.47618H10.0788L10.2907 7.92188L10.539 8.47618H11.0774L10.6544 8.90661L10.8182 9.58582L10.2914 9.20415ZM12.747 3.58582L13.2914 3.20415L13.8182 3.58582L13.6544 2.90661L14.0774 2.47618H13.539L13.2907 1.92188L13.0788 2.47618H12.4473L12.9308 2.90661L12.747 3.58582ZM13.2914 6.20415L12.747 6.58582L12.9308 5.90661L12.4473 5.47618H13.0788L13.2907 4.92188L13.539 5.47618H14.0774L13.6544 5.90661L13.8182 6.58582L13.2914 6.20415ZM12.747 9.58582L13.2914 9.20415L13.8182 9.58582L13.6544 8.90661L14.0774 8.47618H13.539L13.2907 7.92188L13.0788 8.47618H12.4473L12.9308 8.90661L12.747 9.58582ZM2.79141 4.70415L2.247 5.08582L2.4308 4.40661L1.94727 3.97618H2.57883L2.79065 3.42188L3.03903 3.97618H3.57742L3.1544 4.40661L3.31817 5.08582L2.79141 4.70415ZM5.247 5.08582L5.79141 4.70415L6.31817 5.08582L6.1544 4.40661L6.57742 3.97618H6.03903L5.79065 3.42188L5.57883 3.97618H4.94727L5.4308 4.40661L5.247 5.08582ZM8.79141 4.70415L8.247 5.08582L8.4308 4.40661L7.94727 3.97618H8.57883L8.79065 3.42188L9.03903 3.97618H9.57742L9.1544 4.40661L9.31817 5.08582L8.79141 4.70415ZM2.247 8.08582L2.79141 7.70415L3.31817 8.08582L3.1544 7.40661L3.57742 6.97618H3.03903L2.79065 6.42188L2.57883 6.97618H1.94727L2.4308 7.40661L2.247 8.08582ZM5.79141 7.70415L5.247 8.08582L5.4308 7.40661L4.94727 6.97618H5.57883L5.79065 6.42188L6.03903 6.97618H6.57742L6.1544 7.40661L6.31817 8.08582L5.79141 7.70415ZM8.247 8.08582L8.79141 7.70415L9.31817 8.08582L9.1544 7.40661L9.57742 6.97618H9.03903L8.79065 6.42188L8.57883 6.97618H7.94727L8.4308 7.40661L8.247 8.08582ZM11.7914 4.70415L11.247 5.08582L11.4308 4.40661L10.9473 3.97618H11.5788L11.7907 3.42188L12.039 3.97618H12.5774L12.1544 4.40661L12.3182 5.08582L11.7914 4.70415ZM11.247 8.08582L11.7914 7.70415L12.3182 8.08582L12.1544 7.40661L12.5774 6.97618H12.039L11.7907 6.42188L11.5788 6.97618H10.9473L11.4308 7.40661L11.247 8.08582Z" fill="#F7FCFF"/>
</g>
<path d="M35.7241 6.64204C35.946 6.42015 36.2932 6.39998 36.5379 6.58153L36.608 6.64204L41.9993 12.0332L47.3907 6.64204C47.6126 6.42015 47.9598 6.39998 48.2045 6.58153L48.2746 6.64204C48.4965 6.86393 48.5167 7.21115 48.3351 7.45583L48.2746 7.52593L42.4413 13.3593C42.2194 13.5811 41.8722 13.6013 41.6275 13.4198L41.5574 13.3593L35.7241 7.52593C35.48 7.28185 35.48 6.88612 35.7241 6.64204Z" fill="#9E9E9E"/>
</svg>
