<svg width="192" height="168" viewBox="0 0 192 168" fill="none" xmlns="http://www.w3.org/2000/svg">
<path opacity="0.2" d="M180.725 86.2209C178.803 111.077 176.475 141.159 153.646 156.062C138.335 166.061 121.265 164.363 103.277 162.572C96.3724 161.884 61.5165 157.844 30.0154 130.157C14.9226 116.892 0.584878 104.284 0.0166601 85.8996C-0.504855 68.7625 11.2565 56.7054 29.8131 37.694C42.6953 24.497 62.8397 3.84845 92.7996 0.459296C101.175 -0.48936 107.9 0.18388 117.038 1.10193C135.167 2.92274 152.922 4.7053 164.761 13.7328C185.131 29.248 182.594 62.0684 180.725 86.2209Z" fill="white"/>
<path opacity="0.4" d="M163.812 127.626C148.587 142.56 132.638 147.701 101.378 157.769C75.1699 166.215 62.0698 170.43 52.0754 166.544C32.0943 158.763 26.7002 132.782 16.0597 81.5014C8.41601 44.6798 11.7553 35.6829 15.3592 29.9986C24.2093 16.0289 40.4152 12.7468 65.9694 7.5598C83.7087 3.96409 111.466 -1.66664 137.938 11.7752C145.341 15.5316 150.502 19.6934 157.53 25.3548C171.456 36.578 185.093 47.5717 189.942 61.1589C200.583 90.9574 166.653 124.834 163.812 127.626Z" fill="white"/>
<path d="M139.16 37.12C154.905 52.1572 163.655 70.1478 163.467 85.3812C163.456 100.816 154.5 113.5 138.849 122.464C123.197 131.393 104.605 135.696 89.0067 136.924C73.2144 137.98 60.415 135.955 51.8527 128.18C43.314 120.422 39.7224 107.698 39.1766 91.7548C38.8245 75.9908 41.5064 57.0139 49.9924 40.8C58.4373 24.5918 71.8705 15.0226 88.2086 14.4977C104.371 13.7825 123.438 22.1 139.16 37.12Z" fill="white"/>
</svg>
